<?xml version="1.0" encoding="utf-8"?>
<!-- Generator: Adobe Illustrator 22.0.1, SVG Export Plug-In . SVG Version: 6.00 Build 0)  -->
<svg version="1.1" id="Livello_1" xmlns="http://www.w3.org/2000/svg" xmlns:xlink="http://www.w3.org/1999/xlink" x="0px" y="0px"
	 viewBox="0 0 592 310" style="enable-background:new 0 0 592 310;" xml:space="preserve">
<style type="text/css">
	.st0{fill:#FFFFFF;}
</style>
<g>
	<g>
		<polygon class="st0" points="174.8,78.9 242.4,78.9 248.1,73.2 248.1,5.6 246.6,5.6 174.8,77.4 		"/>
		<polygon class="st0" points="174.8,163.5 242.4,163.5 248.1,157.8 248.1,90.2 246.5,90.2 174.8,161.9 		"/>
		<polygon class="st0" points="242.4,84.5 174.8,84.5 169.1,90.2 169.1,157.8 170.8,157.8 242.4,86.2 		"/>
		<polygon class="st0" points="5.6,163.5 73.3,163.5 78.9,157.8 78.9,90.2 77.6,90.2 5.6,162.1 		"/>
		<polygon class="st0" points="73.3,84.5 5.6,84.5 0,90.2 0,157.8 1.9,157.8 73.3,86.4 		"/>
		<polygon class="st0" points="327,84.5 259.4,84.5 253.7,90.2 253.7,157.8 255.3,157.8 327,86.1 		"/>
		<polygon class="st0" points="327,0 259.4,0 253.7,5.6 253.7,73.2 255.4,73.2 327,1.7 		"/>
		<polygon class="st0" points="349.6,163.5 417.2,163.5 422.9,157.8 422.9,90.2 421.1,90.2 349.6,161.7 		"/>
		<polygon class="st0" points="417.2,84.5 349.6,84.5 343.9,90.2 343.9,157.8 345.4,157.8 417.2,86 		"/>
		<polygon class="st0" points="434.1,163.5 501.8,163.5 507.4,157.8 507.4,90.2 505.6,90.2 434.1,161.6 		"/>
		<polygon class="st0" points="501.8,84.5 434.1,84.5 428.5,90.2 428.5,157.8 429.9,157.8 501.8,85.9 		"/>
		<polygon class="st0" points="518.7,163.5 586.4,163.5 592,157.8 592,90.2 590,90.2 518.7,161.5 		"/>
		<polygon class="st0" points="586.4,84.5 518.7,84.5 513.1,90.2 513.1,157.8 514.4,157.8 586.4,85.8 		"/>
		<polygon class="st0" points="157.9,169.1 90.2,169.1 84.6,174.7 84.6,242.4 86.3,242.4 157.9,170.8 		"/>
		<g>
			<path class="st0" d="M501.4,309.6h4.9v-22.8h8.7v-4.4h-22.3v4.4h8.7L501.4,309.6L501.4,309.6z M466.4,309.6H487v-4.3h-15.8V298
				H485v-4.3h-13.8v-7.1h15.6v-4.3h-20.4L466.4,309.6L466.4,309.6z M188.1,309.6h4.8v-11.1h13.9v-4.4h-13.9v-7.4h15.7v-4.4h-20.5
				V309.6z M162.6,295.8v-9.1h7c3.6,0,5.7,1.6,5.7,4.5v0.1c0,2.7-2.2,4.5-5.7,4.5H162.6z M157.8,309.6h4.8v-9.5h6.1l6.7,9.5h5.7
				l-7.4-10.3c3.9-1.1,6.6-3.8,6.6-8.2V291c0-2.4-0.8-4.4-2.3-5.9c-1.8-1.7-4.5-2.7-7.9-2.7h-12.3L157.8,309.6L157.8,309.6z
				 M581.2,310c4.5,0,8.3-1.9,10.8-4.1v-10.5h-11.2v1.9h9.2v7.8c-2,1.7-5.3,3.1-8.8,3.1c-7.3,0-11.8-5.3-11.8-12.3v-0.1
				c0-6.6,4.7-12.2,11.4-12.2c4.1,0,6.7,1.4,8.8,3.3l1.3-1.5c-2.8-2.3-5.6-3.6-10-3.6c-8.2,0-13.6,6.7-13.6,14.1v0.1
				C567.3,303.7,572.5,310,581.2,310z M385.3,310c5.3,0,9.1-3.1,9.1-7.5v-0.1c0-4-2.7-6.2-9.1-7.5c-6.5-1.3-8-3.1-8-6l0,0
				c0-2.9,2.7-5.2,6.7-5.2c3,0,5.6,0.8,8.2,3.1l1.3-1.6c-2.8-2.2-5.4-3.3-9.4-3.3c-5.1,0-8.9,3.1-8.9,7.2v0.1c0,4.1,2.7,6.3,9.3,7.7
				c6.2,1.3,7.8,2.9,7.8,5.8v0.1c0,3.1-2.8,5.4-7,5.4c-4,0-6.8-1.3-9.9-4l-1.3,1.5C377.6,308.5,380.9,310,385.3,310z M347.8,296.5
				v-12.3h9.4c5,0,7.9,2.3,7.9,6v0.1c0,3.9-3.4,6.2-8,6.2H347.8z M345.8,309.6h2.1v-11.3h9l8.8,11.3h2.6l-9.1-11.6
				c4.6-0.6,8-3.3,8-7.8V290c0-1.9-0.8-3.8-2.1-5.1c-1.7-1.6-4.4-2.7-7.7-2.7h-11.6L345.8,309.6L345.8,309.6z M317.6,309.6h19.8
				v-1.9h-17.7v-11h15.7v-1.9h-15.7v-10.7h17.5v-1.9h-19.6L317.6,309.6L317.6,309.6z M281.7,309.6h2v-23.7l10.9,15.7h0.2l10.9-15.7
				v23.7h2.1v-27.3h-1.9l-11,16.1l-11-16.1H282v27.3H281.7z M73.9,309.6h19.8v-1.9H76v-11h15.7v-1.9H76v-10.7h17.5v-1.9H73.9V309.6z
				 M535.5,309.6h3v-22.4l17.8,22.4h2.5v-27.3h-3v21.9l-17.3-21.9h-2.9L535.5,309.6L535.5,309.6z M522.5,309.6h3.1v-27.3h-3.1V309.6
				z M254.3,296.2v-11.1h8.5c4.4,0,7,2,7,5.4v0.1c0,3.5-2.9,5.6-7.1,5.6H254.3z M251.2,309.6h3.1V299h7.9l8,10.6h3.8l-8.4-11.1
				c4.3-0.8,7.5-3.4,7.5-7.9v-0.1c0-2.1-0.8-4-2.1-5.4c-1.7-1.7-4.4-2.7-7.8-2.7h-11.8v27.2H251.2z M228.9,307.2
				c-6.3,0-10.8-5.1-10.8-11.3v-0.1c0-6.2,4.5-11.2,10.8-11.2s10.8,5.1,10.8,11.3v0.1C239.6,302.2,235.1,307.2,228.9,307.2z
				 M228.8,310c8.4,0,14.1-6.6,14.1-14.1v-0.1c0-7.5-5.6-14-14-14s-14.1,6.6-14.1,14.1v0.1C214.8,303.5,220.4,310,228.8,310z
				 M51.9,309.8h2.7l11.8-27.5h-3.3l-9.8,23.5l-9.8-23.5H40L51.9,309.8z M438,309.6h21v-5.3h-15v-5.7h13v-5.3h-13v-5.5h14.7v-5.3
				H438V309.6z M129.4,309.6h20.9v-5.3h-14.9v-5.7h12.9v-5.3h-12.9v-5.5h14.7v-5.3h-20.7V309.6z M27,309.6h6v-27.3h-6V309.6z
				 M401.4,309.6h7.5V294l7,10.6h0.2l7-10.7v15.7h7.6v-27.3h-8l-6.6,10.6l-6.6-10.6h-8.1L401.4,309.6L401.4,309.6z M108,295.9v-7.2
				h3.6c2.7,0,4.4,1.2,4.4,3.6v0.1c0,2.1-1.7,3.6-4.4,3.6L108,295.9L108,295.9z M100.4,309.6h7.6v-7.8h3.8c6.9,0,11.8-3.4,11.8-9.8
				v-0.1c0-6-4.5-9.6-11.4-9.6h-11.8L100.4,309.6L100.4,309.6z M0,309.6h20.9V303H7.6v-20.7H0V309.6z"/>
		</g>
		<polygon class="st0" points="73.3,248 78.9,242.4 78.9,174.7 77.5,174.7 5.6,246.6 5.6,248 		"/>
		<polygon class="st0" points="73.3,169.1 5.6,169.1 0,174.7 0,242.4 1.8,242.4 73.3,170.9 		"/>
		<polygon class="st0" points="417.2,169.1 349.6,169.1 343.9,174.7 343.9,242.4 345.3,242.4 417.2,170.5 		"/>
		<polygon class="st0" points="501.8,169.1 434.1,169.1 428.5,174.7 428.5,242.4 429.8,242.4 501.8,170.4 		"/>
		<polygon class="st0" points="586.4,169.1 518.7,169.1 513.1,174.7 513.1,242.4 514.2,242.4 586.4,170.3 		"/>
		<polygon class="st0" points="5.6,78.9 73.3,78.9 78.9,73.2 78.9,5.6 77.7,5.6 5.6,77.6 		"/>
		<polygon class="st0" points="259.4,78.9 327,78.9 332.6,73.2 332.6,5.6 331.1,5.6 259.4,77.3 		"/>
		<polygon class="st0" points="349.6,78.9 417.2,78.9 422.9,73.2 422.9,5.6 421.2,5.6 349.6,77.2 		"/>
		<polygon class="st0" points="434.1,78.9 501.8,78.9 507.4,73.2 507.4,5.6 505.7,5.6 434.1,77.1 		"/>
		<polygon class="st0" points="518.7,78.9 586.4,78.9 592,73.2 592,5.6 590.1,5.6 518.7,77 		"/>
	</g>
	<polygon class="st0" points="248.1,242.4 248.1,174.7 242.4,169.1 174.8,169.1 174.8,170.7 246.5,242.4 	"/>
</g>
</svg>
