<?xml version="1.0" encoding="utf-8"?>
<!-- Generator: Adobe Illustrator 18.0.0, SVG Export Plug-In . SVG Version: 6.00 Build 0)  -->
<!DOCTYPE svg PUBLIC "-//W3C//DTD SVG 1.1//EN" "http://www.w3.org/Graphics/SVG/1.1/DTD/svg11.dtd">
<svg version="1.1" id="Livello_1" xmlns="http://www.w3.org/2000/svg" xmlns:xlink="http://www.w3.org/1999/xlink" x="0px" y="0px"
	 viewBox="0 0 46.8 78" enable-background="new 0 0 46.8 78" xml:space="preserve">
<g>
	<path fill="#198FCF" d="M22.5,77.8c-0.3-0.1-0.5-0.3-0.7-0.5c-0.1-0.1-0.4-0.5-1-1.4c-0.6-0.9-1.5-2-2.5-3.5
		c-1-1.5-2.2-3.3-3.4-5.3s-2.6-4.3-3.9-6.9c-0.8-1.5-1.5-2.9-2.2-4.4s-1.4-2.9-2-4.4s-1.2-2.9-1.8-4.3s-1-2.8-1.5-4.2
		c-0.6-1.8-1.1-3.5-1.5-5.2c-0.4-1.7-0.8-3.4-1.1-5c-0.3-1.6-0.5-3.2-0.6-4.8C0.1,26.5,0,24.9,0,23.4c0-3.2,0.6-6.3,1.8-9.1
		C3,11.5,4.7,9,6.8,6.9c2.1-2.1,4.6-3.8,7.4-5C17.1,0.6,20.2,0,23.4,0s6.3,0.6,9.1,1.8c2.8,1.2,5.3,2.9,7.4,5c2.1,2.1,3.8,4.6,5,7.4
		c1.2,2.8,1.8,5.9,1.8,9.1c0,1.5-0.1,3-0.2,4.6c-0.1,1.6-0.4,3.2-0.6,4.8c-0.3,1.6-0.7,3.3-1.1,5c-0.4,1.7-0.9,3.4-1.5,5.2
		c-0.5,1.4-1,2.8-1.5,4.2s-1.1,2.8-1.8,4.3s-1.3,2.9-2,4.4s-1.5,2.9-2.2,4.4c-1.3,2.5-2.7,4.8-3.9,6.9s-2.4,3.8-3.4,5.3
		c-1,1.5-1.8,2.7-2.5,3.5s-1,1.3-1,1.4c-0.2,0.2-0.4,0.4-0.7,0.5S23.7,78,23.4,78S22.8,77.9,22.5,77.8z M15.8,5.4
		c-2.4,1-4.4,2.4-6.2,4.2c-1.8,1.8-3.2,3.8-4.2,6.2c-1,2.4-1.5,4.9-1.5,7.6c0,3.2,0.3,6.4,1,9.6c0.6,3.2,1.5,6.3,2.5,9.3
		c1,3,2.1,5.9,3.4,8.6c1.2,2.7,2.5,5.2,3.7,7.4c0.9,1.7,1.7,3.2,2.6,4.7c0.9,1.5,1.7,2.8,2.5,4s1.5,2.3,2.2,3.3
		c0.7,1,1.2,1.8,1.7,2.5c0.5-0.7,1.1-1.5,1.7-2.5c0.7-1,1.4-2.1,2.2-3.3s1.6-2.6,2.5-4.1s1.7-3,2.6-4.6c1.2-2.2,2.4-4.7,3.7-7.4
		s2.4-5.6,3.4-8.6c1-3,1.8-6.1,2.5-9.3c0.6-3.2,1-6.4,1-9.5c0-2.7-0.5-5.2-1.5-7.6c-1-2.4-2.4-4.4-4.2-6.2c-1.8-1.8-3.8-3.2-6.2-4.2
		s-4.9-1.5-7.6-1.5S18.2,4.4,15.8,5.4z M18.8,34.2c-1.4-0.6-2.6-1.4-3.7-2.5c-1.1-1.1-1.9-2.3-2.5-3.7c-0.6-1.4-0.9-2.9-0.9-4.5
		c0-1.6,0.3-3.1,0.9-4.6c0.6-1.4,1.4-2.7,2.5-3.7c1.1-1.1,2.3-1.9,3.7-2.5s2.9-0.9,4.6-0.9s3.1,0.3,4.6,0.9s2.6,1.4,3.7,2.5
		c1.1,1.1,1.9,2.3,2.5,3.7c0.6,1.4,0.9,2.9,0.9,4.6c0,1.6-0.3,3.1-0.9,4.5c-0.6,1.4-1.4,2.7-2.5,3.7s-2.3,1.9-3.7,2.5
		c-1.4,0.6-2.9,0.9-4.6,0.9S20.2,34.8,18.8,34.2z M20.4,16.2c-1,0.4-1.8,1-2.5,1.7c-0.7,0.7-1.3,1.5-1.7,2.5c-0.4,0.9-0.6,2-0.6,3
		c0,1.1,0.2,2.1,0.6,3c0.4,1,1,1.8,1.7,2.5c0.7,0.7,1.5,1.3,2.5,1.7c1,0.4,2,0.6,3,0.6s2.1-0.2,3-0.6s1.8-1,2.5-1.7
		c0.7-0.7,1.3-1.5,1.7-2.5c0.4-1,0.6-2,0.6-3c0-1.1-0.2-2.1-0.6-3c-0.4-0.9-1-1.8-1.7-2.5c-0.7-0.7-1.5-1.3-2.5-1.7s-2-0.6-3-0.6
		S21.3,15.8,20.4,16.2z"/>
</g>
</svg>
