<?xml version="1.0" encoding="utf-8"?>
<!-- Generator: Adobe Illustrator 22.0.1, SVG Export Plug-In . SVG Version: 6.00 Build 0)  -->
<svg version="1.1" id="Livello_1" xmlns="http://www.w3.org/2000/svg" xmlns:xlink="http://www.w3.org/1999/xlink" x="0px" y="0px"
	 viewBox="0 0 1920 1080" style="enable-background:new 0 0 1920 1080;" xml:space="preserve">
<style type="text/css">
	.st0{fill:#198FCF;}
	.st1{fill:#282828;}
	.st2{fill:#FFFFFF;}
</style>
<rect y="-60" class="st0" width="1920" height="1200"/>
<g>
	<path class="st1" d="M1508,293.8l-446.9,0.8c-25.3,0-43.8,6.7-50.6,19.4c-6.7,11.8-3.4,32,9.3,54l223.4,386.1
		c12.6,21.9,27.8,34.6,42.2,34.6s29.5-12.6,42.2-34.6l222.6-387c12.6-21.9,16-41.3,8.4-54C1551.9,300.6,1533.3,293.8,1508,293.8z"/>
	<path class="st1" d="M678.4,326.7c-11.8-21.9-27.8-34.6-41.3-34.6c-14.3,0-29.5,12.6-42.2,34.6L370.7,712.8
		c-12.6,21.9-16,41.3-9.3,54c6.7,11.8,25.3,19.4,50.6,19.4l446.9,0.8c25.3,0,43.8-6.7,50.6-19.4c6.7-11.8,4.2-32-8.4-54L678.4,326.7
		z"/>
	<path class="st1" d="M1606.7-60H313.3c-146.4,157.6-236,368.6-236,600s89.7,442.4,236,600h1293.4c146.4-157.6,236-368.6,236-600
		S1753.1,97.6,1606.7-60z M975.2,804.7c-21.9,35.4-63.2,56.5-115.5,56.5l-446.9-0.8c-52.3,0-94.4-21.1-114.7-56.5
		s-16.9-82.6,9.3-127.3l224.3-386.1c26.1-45.5,64.9-71.7,106.2-71.7s80.1,26.1,106.2,71.7l222.6,387
		C992.9,723,996.3,769.3,975.2,804.7z M1392.5,790.4c-27.8,45.5-65.8,71.7-107.1,71.7c-41.3,0-80.1-26.1-106.2-71.7L955.8,404.3
		c-26.1-45.5-29.5-91.9-9.3-127.3s62.4-56.5,114.7-56.5l446.9-0.8c52.3,0,94.4,20.2,115.5,56.5c20.2,35.4,17.7,82.6-8.4,127.3
		L1392.5,790.4z"/>
	<path class="st1" d="M3.1,540C3.1,313,82.5,104.2,215-60H0v1200h215C82.5,975.8,3.1,767,3.1,540z"/>
	<path class="st1" d="M1705-60c132.5,164.2,211.9,373,211.9,600s-79.4,435.8-211.9,600h215V-60H1705z"/>
</g>
<g>
	<path class="st2" d="M383.1,957.8h-31.7v29.4h35.3v8.8h-45.8v-81.5h44v8.8h-33.5v25.8h31.7V957.8z"/>
	<path class="st2" d="M400.4,996.1v-81.5h11.5l26.1,41.2c6,9.6,10.8,18.1,14.6,26.5l0.2-0.1c-1-10.9-1.2-20.8-1.2-33.5v-34.1h9.9
		v81.5H451l-25.9-41.4c-5.7-9.1-11.1-18.4-15.2-27.2l-0.4,0.1c0.6,10.3,0.8,20.1,0.8,33.6v34.8H400.4z"/>
	<path class="st2" d="M537,993.4c-3.9,1.9-11.6,3.9-21.5,3.9c-23,0-40.3-14.5-40.3-41.2c0-25.5,17.3-42.8,42.6-42.8
		c10.2,0,16.6,2.2,19.4,3.6l-2.5,8.6c-4-1.9-9.7-3.4-16.4-3.4c-19.1,0-31.8,12.2-31.8,33.6c0,20,11.5,32.8,31.3,32.8
		c6.4,0,12.9-1.3,17.2-3.4L537,993.4z"/>
	<path class="st2" d="M617.4,954.4c0,28.1-17.1,42.9-37.9,42.9c-21.5,0-36.6-16.7-36.6-41.4c0-25.9,16.1-42.8,37.9-42.8
		C603,913.2,617.4,930.3,617.4,954.4z M554.1,955.8c0,17.4,9.4,33,26,33c16.7,0,26.1-15.4,26.1-33.9c0-16.2-8.5-33.1-26-33.1
		C562.8,921.8,554.1,937.9,554.1,955.8z"/>
	<path class="st2" d="M631.1,915.6c6.4-1,14-1.7,22.4-1.7c15.1,0,25.9,3.5,33,10.2c7.3,6.6,11.5,16.1,11.5,29.3
		c0,13.3-4.1,24.2-11.7,31.7c-7.6,7.6-20.2,11.7-36,11.7c-7.5,0-13.8-0.4-19.1-1V915.6z M641.6,987.7c2.7,0.5,6.5,0.6,10.6,0.6
		c22.5,0,34.7-12.6,34.7-34.6c0.1-19.2-10.8-31.5-33-31.5c-5.4,0-9.6,0.5-12.3,1.1V987.7z"/>
	<path class="st2" d="M722.2,914.5v81.5h-10.5v-81.5H722.2z"/>
	<path class="st2" d="M740.6,996.1v-81.5h11.5l26.1,41.2c6,9.6,10.8,18.1,14.6,26.5l0.2-0.1c-1-10.9-1.2-20.8-1.2-33.5v-34.1h9.9
		v81.5h-10.6l-25.9-41.4c-5.7-9.1-11.1-18.4-15.2-27.2l-0.4,0.1c0.6,10.3,0.8,20.1,0.8,33.6v34.8H740.6z"/>
	<path class="st2" d="M882.2,992.4c-4.7,1.7-14,4.5-25,4.5c-12.3,0-22.5-3.1-30.5-10.8c-7-6.8-11.4-17.7-11.4-30.4
		c0.1-24.3,16.8-42.1,44.1-42.1c9.4,0,16.8,2.1,20.3,3.8l-2.5,8.6c-4.4-1.9-9.8-3.5-18-3.5c-19.8,0-32.8,12.3-32.8,32.8
		c0,20.7,12.5,32.9,31.4,32.9c6.9,0,11.6-1,14-2.2v-24.3h-16.6v-8.5h26.8V992.4z"/>
	<path class="st2" d="M934.5,914.5v81.5H924v-81.5H934.5z"/>
	<path class="st2" d="M952.9,996.1v-81.5h11.5l26.1,41.2c6,9.6,10.8,18.1,14.6,26.5l0.2-0.1c-1-10.9-1.2-20.8-1.2-33.5v-34.1h9.9
		v81.5h-10.6l-25.9-41.4c-5.7-9.1-11.1-18.4-15.2-27.2l-0.4,0.1c0.6,10.3,0.8,20.1,0.8,33.6v34.8H952.9z"/>
	<path class="st2" d="M1058.2,915.5c5.1-0.8,11.7-1.6,20.2-1.6c10.4,0,18,2.4,22.9,6.8c4.5,3.9,7.1,9.8,7.1,17
		c0,7.4-2.2,13.2-6.3,17.4c-5.6,5.9-14.6,9-24.9,9c-3.1,0-6-0.1-8.5-0.7v32.7h-10.5V915.5z M1068.7,954.8c2.3,0.6,5.2,0.8,8.7,0.8
		c12.7,0,20.4-6.2,20.4-17.4c0-10.8-7.6-16-19.2-16c-4.6,0-8.1,0.4-9.9,0.8V954.8z"/>
	<path class="st2" d="M1122.6,915.6c5.3-1.1,12.9-1.7,20.2-1.7c11.2,0,18.5,2.1,23.6,6.6c4.1,3.6,6.4,9.2,6.4,15.5
		c0,10.8-6.8,17.9-15.4,20.8v0.4c6.3,2.2,10,8,12,16.4c2.7,11.4,4.6,19.2,6.3,22.4h-10.9c-1.3-2.3-3.1-9.3-5.4-19.5
		c-2.4-11.2-6.8-15.5-16.3-15.8h-9.9v35.3h-10.5V915.6z M1133.1,952.8h10.8c11.2,0,18.4-6.2,18.4-15.5c0-10.5-7.6-15.1-18.7-15.2
		c-5.1,0-8.7,0.5-10.4,1V952.8z"/>
	<path class="st2" d="M1257.7,954.4c0,28.1-17,42.9-37.8,42.9c-21.5,0-36.6-16.7-36.6-41.4c0-25.9,16.1-42.8,37.9-42.8
		C1243.3,913.2,1257.7,930.3,1257.7,954.4z M1194.5,955.8c0,17.4,9.4,33,26,33c16.7,0,26.1-15.4,26.1-33.9c0-16.2-8.5-33.1-26-33.1
		C1203.2,921.8,1194.5,937.9,1194.5,955.8z"/>
	<path class="st2" d="M1333.5,992.4c-4.7,1.7-14,4.5-25,4.5c-12.3,0-22.5-3.1-30.5-10.8c-7-6.8-11.4-17.7-11.4-30.4
		c0.1-24.3,16.8-42.1,44.1-42.1c9.4,0,16.8,2.1,20.3,3.8l-2.5,8.6c-4.4-1.9-9.8-3.5-18-3.5c-19.8,0-32.8,12.3-32.8,32.8
		c0,20.7,12.5,32.9,31.4,32.9c6.9,0,11.6-1,14-2.2v-24.3h-16.6v-8.5h26.9V992.4z"/>
	<path class="st2" d="M1349.6,915.6c5.3-1.1,12.9-1.7,20.2-1.7c11.3,0,18.5,2.1,23.6,6.6c4.1,3.6,6.4,9.2,6.4,15.5
		c0,10.8-6.8,17.9-15.4,20.8v0.4c6.3,2.2,10,8,12,16.4c2.7,11.4,4.6,19.2,6.3,22.4h-10.9c-1.3-2.3-3.2-9.3-5.4-19.5
		c-2.4-11.2-6.8-15.5-16.3-15.8h-9.9v35.3h-10.5V915.6z M1360.1,952.8h10.8c11.2,0,18.4-6.2,18.4-15.5c0-10.5-7.6-15.1-18.7-15.2
		c-5.1,0-8.7,0.5-10.4,1V952.8z"/>
	<path class="st2" d="M1456.9,957.8h-31.7v29.4h35.3v8.8h-45.8v-81.5h44v8.8h-33.5v25.8h31.7V957.8z"/>
	<path class="st2" d="M1472.8,983.2c4.7,2.9,11.6,5.3,18.9,5.3c10.8,0,17.1-5.7,17.1-13.9c0-7.6-4.4-12-15.4-16.2
		c-13.3-4.7-21.5-11.6-21.5-23.1c0-12.7,10.5-22.1,26.4-22.1c8.3,0,14.4,1.9,18,4l-2.9,8.6c-2.7-1.5-8.1-3.9-15.5-3.9
		c-11.1,0-15.4,6.6-15.4,12.2c0,7.6,5,11.4,16.2,15.7c13.8,5.3,20.8,12,20.8,23.9c0,12.6-9.3,23.5-28.5,23.5
		c-7.9,0-16.4-2.3-20.8-5.2L1472.8,983.2z"/>
	<path class="st2" d="M1532.4,983.2c4.7,2.9,11.6,5.3,18.9,5.3c10.8,0,17.1-5.7,17.1-13.9c0-7.6-4.4-12-15.4-16.2
		c-13.3-4.7-21.5-11.6-21.5-23.1c0-12.7,10.5-22.1,26.4-22.1c8.3,0,14.4,1.9,18,4l-2.9,8.6c-2.7-1.5-8.1-3.9-15.5-3.9
		c-11.1,0-15.4,6.6-15.4,12.2c0,7.6,5,11.4,16.2,15.7c13.8,5.3,20.8,12,20.8,23.9c0,12.6-9.3,23.5-28.5,23.5
		c-7.9,0-16.4-2.3-20.8-5.2L1532.4,983.2z"/>
</g>
</svg>
