<?xml version="1.0" encoding="utf-8"?>
<!-- Generator: Adobe Illustrator 18.0.0, SVG Export Plug-In . SVG Version: 6.00 Build 0)  -->
<!DOCTYPE svg PUBLIC "-//W3C//DTD SVG 1.1//EN" "http://www.w3.org/Graphics/SVG/1.1/DTD/svg11.dtd">
<svg version="1.1" id="Livello_1" xmlns="http://www.w3.org/2000/svg" xmlns:xlink="http://www.w3.org/1999/xlink" x="0px" y="0px"
	 viewBox="0 0 400 400" enable-background="new 0 0 400 400" xml:space="preserve">
<rect x="0" y="0" fill="#282828" width="400" height="400"/>
<g>
	<path fill="#198FCF" d="M124.2,294.7c-3.9,0-7.3-1.4-10.1-4.2c-2.8-2.8-4.2-6.1-4.2-10c0-0.2,0.1-1.2,0.2-3.1s0.6-4.2,1.3-7.1
		c0.7-2.9,1.9-6.2,3.5-9.9c1.6-3.7,3.8-7.4,6.6-11.2c1.7-2.2,3.6-4.3,5.5-6.3s4.1-3.9,6.3-5.6c2.3-1.8,4.7-3.4,7.2-4.9
		s5.3-2.9,8.1-4.1c3.5-1.5,7.1-2.9,11-4.1c3.9-1.2,8-2.1,12.3-2.9c4.3-0.8,8.8-1.4,13.4-1.8c4.7-0.4,9.5-0.6,14.6-0.6
		c5,0,9.8,0.2,14.5,0.6c4.7,0.4,9.2,1,13.4,1.8s8.3,1.7,12.2,2.9c3.9,1.2,7.6,2.5,11,4.1c2.8,1.2,5.5,2.6,8.1,4.1
		c2.6,1.5,5,3.1,7.3,4.9c2.3,1.8,4.4,3.6,6.4,5.6c2,2,3.8,4.1,5.5,6.3c2.9,3.8,5.1,7.6,6.7,11.2c1.5,3.7,2.7,7,3.4,9.9
		c0.7,2.9,1.2,5.3,1.3,7.1c0.2,1.8,0.2,2.9,0.2,3.1c0,3.9-1.4,7.2-4.2,10c-2.8,2.8-6.1,4.2-10.1,4.2H124.2z M176.9,230.2
		c-7.2,1.1-13.7,2.8-19.6,4.9c-5.9,2.2-11.2,4.9-15.9,8.2c-4.7,3.3-8.6,7-11.9,11.3c-2.5,3.2-4.4,6.4-5.7,9.4
		c-1.4,3.1-2.4,5.8-3,8.3c-0.6,2.4-1,4.4-1.2,5.9c-0.1,1.5-0.2,2.3-0.2,2.4c0,1.3,0.5,2.4,1.4,3.3c0.9,0.9,2.1,1.4,3.4,1.4h151.5
		c1.3,0,2.4-0.5,3.3-1.4c0.9-0.9,1.4-2,1.4-3.3c0-0.1-0.1-0.8-0.2-2.4c-0.1-1.5-0.5-3.5-1.2-5.9c-0.6-2.4-1.6-5.2-3-8.3
		c-1.3-3.1-3.2-6.2-5.7-9.4c-3.3-4.3-7.2-8-11.9-11.3c-4.7-3.3-10-6-15.9-8.2c-6-2.2-12.5-3.8-19.6-4.9s-14.8-1.7-23.1-1.7
		S184,229,176.9,230.2z M179.7,205.4c-6.3-2.7-11.8-6.5-16.6-11.2c-4.7-4.7-8.4-10.2-11.1-16.6c-2.7-6.3-4.1-13.1-4.1-20.2
		c0-7.2,1.4-14,4.1-20.3s6.4-11.8,11.1-16.6c4.7-4.7,10.2-8.4,16.6-11.2c6.3-2.7,13.1-4.1,20.3-4.1c7.2,0,13.9,1.4,20.2,4.1
		c6.3,2.7,11.8,6.5,16.6,11.2c4.7,4.7,8.4,10.2,11.2,16.6s4.1,13.1,4.1,20.3c0,7.2-1.4,13.9-4.1,20.2c-2.7,6.3-6.5,11.8-11.2,16.6
		c-4.7,4.7-10.2,8.4-16.6,11.2c-6.3,2.7-13.1,4.1-20.2,4.1C192.8,209.5,186,208.2,179.7,205.4z M183.4,118.1
		c-5.2,2.2-9.7,5.3-13.6,9.1c-3.9,3.9-6.9,8.4-9.2,13.6c-2.3,5.2-3.4,10.7-3.4,16.6c0,5.9,1.1,11.4,3.4,16.6
		c2.3,5.2,5.3,9.7,9.2,13.6c3.9,3.9,8.4,6.9,13.6,9.1s10.7,3.3,16.6,3.3s11.4-1.1,16.6-3.3s9.7-5.3,13.6-9.1
		c3.9-3.9,6.9-8.4,9.2-13.6c2.3-5.2,3.4-10.7,3.4-16.6c0-5.9-1.1-11.5-3.4-16.6c-2.3-5.2-5.3-9.7-9.2-13.6
		c-3.9-3.9-8.4-6.9-13.6-9.1c-5.2-2.2-10.7-3.3-16.6-3.3S188.6,115.9,183.4,118.1z"/>
</g>
</svg>
