<?xml version="1.0" encoding="utf-8"?>
<!-- Generator: Adobe Illustrator 25.0.1, SVG Export Plug-In . SVG Version: 6.00 Build 0)  -->
<svg version="1.1" id="Livello_1" xmlns="http://www.w3.org/2000/svg" xmlns:xlink="http://www.w3.org/1999/xlink" x="0px" y="0px"
	 viewBox="0 0 1920 1080" style="enable-background:new 0 0 1920 1080;" xml:space="preserve">
<style type="text/css">
	.st0{fill:#198FCF;}
	.st1{fill:#282828;}
	.st2{fill:#FFFFFF;}
</style>
<rect y="-60" class="st0" width="1920" height="1200"/>
<g>
	<path class="st1" d="M1508,293.8l-446.9,0.8c-25.3,0-43.8,6.7-50.6,19.4c-6.7,11.8-3.4,32,9.3,54l223.4,386.1
		c12.6,21.9,27.8,34.6,42.2,34.6s29.5-12.6,42.2-34.6l222.6-387c12.6-21.9,16-41.3,8.4-54C1551.9,300.6,1533.3,293.8,1508,293.8z"/>
	<path class="st1" d="M678.4,326.7c-11.8-21.9-27.8-34.6-41.3-34.6c-14.3,0-29.5,12.6-42.2,34.6L370.7,712.8
		c-12.6,21.9-16,41.3-9.3,54c6.7,11.8,25.3,19.4,50.6,19.4l446.9,0.8c25.3,0,43.8-6.7,50.6-19.4c6.7-11.8,4.2-32-8.4-54L678.4,326.7
		z"/>
	<path class="st1" d="M1606.7-60H313.3c-146.4,157.6-236,368.6-236,600s89.7,442.4,236,600h1293.4c146.4-157.6,236-368.6,236-600
		S1753.1,97.6,1606.7-60z M975.2,804.7c-21.9,35.4-63.2,56.5-115.5,56.5l-446.9-0.8c-52.3,0-94.4-21.1-114.7-56.5
		s-16.9-82.6,9.3-127.3l224.3-386.1c26.1-45.5,64.9-71.7,106.2-71.7s80.1,26.1,106.2,71.7l222.6,387
		C992.9,723,996.3,769.3,975.2,804.7z M1392.5,790.4c-27.8,45.5-65.8,71.7-107.1,71.7c-41.3,0-80.1-26.1-106.2-71.7L955.8,404.3
		c-26.1-45.5-29.5-91.9-9.3-127.3s62.4-56.5,114.7-56.5l446.9-0.8c52.3,0,94.4,20.2,115.5,56.5c20.2,35.4,17.7,82.6-8.4,127.3
		L1392.5,790.4z"/>
	<path class="st1" d="M3.1,540C3.1,313,82.5,104.2,215-60H0v1200h215C82.5,975.8,3.1,767,3.1,540z"/>
	<path class="st1" d="M1705-60c132.5,164.2,211.9,373,211.9,600s-79.4,435.8-211.9,600h215V-60H1705z"/>
</g>
<g>
	<path class="st2" d="M539.7,956.5h-32.3v30h36v9h-46.8v-83.2h44.9v9h-34.2v26.3h32.3V956.5z"/>
	<path class="st2" d="M557.4,995.6v-83.2h11.7l26.7,42.1c6.2,9.8,11,18.5,14.9,27l0.2-0.1c-1-11.1-1.2-21.2-1.2-34.2v-34.8h10.1
		v83.2H609l-26.4-42.2c-5.8-9.3-11.4-18.8-15.6-27.8l-0.4,0.1c0.6,10.5,0.9,20.5,0.9,34.3v35.6H557.4z"/>
	<path class="st2" d="M696.8,992.8c-4,2-11.9,4-22,4c-23.5,0-41.1-14.8-41.1-42.1c0-26,17.7-43.7,43.5-43.7
		c10.4,0,16.9,2.2,19.8,3.7l-2.6,8.8c-4.1-2-9.9-3.5-16.8-3.5c-19.5,0-32.5,12.5-32.5,34.3c0,20.4,11.7,33.5,32,33.5
		c6.5,0,13.2-1.4,17.5-3.5L696.8,992.8z"/>
	<path class="st2" d="M778.8,953.1c0,28.6-17.4,43.8-38.6,43.8c-22,0-37.4-17-37.4-42.2c0-26.4,16.4-43.7,38.6-43.7
		C764.1,911,778.8,928.4,778.8,953.1z M714.2,954.5c0,17.8,9.6,33.7,26.5,33.7c17,0,26.7-15.7,26.7-34.6c0-16.5-8.6-33.8-26.5-33.8
		C723.1,919.8,714.2,936.2,714.2,954.5z"/>
	<path class="st2" d="M792.7,913.5c6.5-1,14.3-1.7,22.8-1.7c15.4,0,26.4,3.6,33.7,10.4c7.4,6.8,11.7,16.4,11.7,29.9
		c0,13.6-4.2,24.7-12,32.3c-7.8,7.8-20.6,12-36.8,12c-7.7,0-14.1-0.4-19.5-1V913.5z M803.5,987c2.7,0.5,6.7,0.6,10.9,0.6
		c23,0,35.4-12.8,35.4-35.3c0.1-19.6-11-32.1-33.7-32.1c-5.6,0-9.8,0.5-12.6,1.1V987z"/>
	<path class="st2" d="M885.7,912.4v83.2h-10.7v-83.2H885.7z"/>
	<path class="st2" d="M904.4,995.6v-83.2h11.7l26.7,42.1c6.2,9.8,11,18.5,14.9,27l0.2-0.1c-1-11.1-1.2-21.2-1.2-34.2v-34.8h10.1
		v83.2H956l-26.4-42.2c-5.8-9.3-11.4-18.8-15.6-27.8l-0.4,0.1c0.6,10.5,0.9,20.5,0.9,34.3v35.6H904.4z"/>
	<path class="st2" d="M1049,991.9c-4.8,1.7-14.3,4.6-25.6,4.6c-12.6,0-23-3.2-31.1-11c-7.2-6.9-11.6-18-11.6-31
		c0.1-24.8,17.2-43,45.1-43c9.6,0,17.2,2.1,20.7,3.8l-2.6,8.8c-4.4-2-10-3.6-18.4-3.6c-20.2,0-33.5,12.6-33.5,33.5
		c0,21.1,12.7,33.6,32.1,33.6c7,0,11.9-1,14.3-2.2v-24.8h-16.9v-8.6h27.4V991.9z"/>
	<path class="st2" d="M1091.6,912.4h44.8v9h-34.1V949h31.5v8.9h-31.5v37.7h-10.7V912.4z"/>
	<path class="st2" d="M1155.6,969.4l-8.6,26.2h-11.1l28.3-83.2h13l28.4,83.2H1194l-8.9-26.2H1155.6z M1182.8,961l-8.1-24
		c-1.9-5.4-3.1-10.4-4.3-15.2h-0.2c-1.2,4.9-2.6,10-4.2,15.1l-8.1,24.1H1182.8z"/>
	<path class="st2" d="M1228.4,912.4v83.2h-10.7v-83.2H1228.4z"/>
	<path class="st2" d="M1247.2,912.4h10.7v74.2h35.6v9h-46.3V912.4z"/>
	<path class="st2" d="M1348.5,956.5h-32.3v30h36v9h-46.8v-83.2h44.9v9h-34.2v26.3h32.3V956.5z"/>
	<path class="st2" d="M1366.2,913.5c6.5-1,14.3-1.7,22.8-1.7c15.4,0,26.4,3.6,33.7,10.4c7.4,6.8,11.7,16.4,11.7,29.9
		c0,13.6-4.2,24.7-12,32.3c-7.8,7.8-20.6,12-36.8,12c-7.7,0-14.1-0.4-19.5-1V913.5z M1376.9,987c2.7,0.5,6.7,0.6,10.9,0.6
		c23,0,35.4-12.8,35.4-35.3c0.1-19.6-11-32.1-33.7-32.1c-5.6,0-9.8,0.5-12.6,1.1V987z"/>
</g>
</svg>
