<?xml version="1.0" encoding="utf-8"?>
<!-- Generator: Adobe Illustrator 25.0.1, SVG Export Plug-In . SVG Version: 6.00 Build 0)  -->
<svg version="1.1" id="Layer_1" xmlns="http://www.w3.org/2000/svg" xmlns:xlink="http://www.w3.org/1999/xlink" x="0px" y="0px"
	 viewBox="0 0 1068 269.3" style="enable-background:new 0 0 1068 269.3;" xml:space="preserve">
<style type="text/css">
	.st0{fill:#5D5D5D;}
</style>
<g id="Layer_2_1_">
</g>
<g id="Layer_1_1_">
	<path class="st0" d="M763.8,50.7v168.1h253.3V50.7H763.8z M932,104.9l3.9-0.1l1.3-3.4l0.8-2.2l0.8,2.2l1.3,3.4l3.9,0.1l2.6,0.1
		l-2.2,1.5l-3.1,2.2l1.1,3.4l0.8,2.3l-2.1-1.3l-3.2-2.1l-3.2,2.1l-2.1,1.3l0.8-2.3l1.1-3.4l-3.1-2.2l-2.2-1.5L932,104.9z
		 M829.8,141.4l0.8-2.3l1.1-3.4l-3.1-2.2l-2.2-1.5l2.7-0.1l3.9-0.1l1.3-3.4l0.8-2.2l0.8,2.2l1.3,3.4l3.9,0.1l2.6,0.1l-2.2,1.5
		l-3.1,2.2l1.1,3.4l0.8,2.3l-2.1-1.3L835,138l-3.2,2.1L829.8,141.4z M848.9,160.4l-3.1,2.2l1.1,3.4l0.7,2.3l-2.1-1.3l-3.2-2.1
		l-3.2,2.1l-2.1,1.3l0.8-2.3l1.1-3.4l-3.1-2.2l-2.2-1.5l2.6-0.1l3.9-0.1l1.3-3.4l0.8-2.2l0.8,2.2l1.3,3.4l3.9,0.1l2.6,0.1
		L848.9,160.4z M849,106.2l-3.1,2.2l1.1,3.4l0.8,2.3l-2.1-1.3l-3.2-2.1l-3.2,2.1l-2,1.3l0.7-2.3l1.1-3.4l-3.1-2.2l-2.2-1.5l2.6,0
		l3.9-0.1l1.3-3.4l0.8-2.2l0.8,2.2l1.3,3.4l3.9,0.1l2.6,0L849,106.2z M868.9,180.1l-3.1,2.2l1.1,3.4l0.8,2.3l-2.1-1.3l-3.2-2.1
		l-3.2,2.1l-2.1,1.3l0.8-2.3l1.1-3.4l-3.1-2.2l-2.2-1.5l2.6-0.1l3.9-0.1l1.3-3.4l0.8-2.2l0.8,2.2l1.3,3.4l3.9,0.1l2.6,0.1
		L868.9,180.1z M869.1,86.7l-3.1,2.2l1.1,3.4l0.8,2.3l-2.1-1.4l-3.2-2.1l-3.2,2.1l-2.1,1.4l0.8-2.3l1.1-3.4l-3.1-2.2l-2.2-1.5
		l2.7-0.1l3.9-0.1l1.3-3.4l0.8-2.2l0.8,2.2l1.3,3.4l3.9,0.1l2.6,0.1L869.1,86.7z M896.7,187.3l-3.1,2.2l1.1,3.4l0.8,2.3l-2.1-1.3
		l-3.2-2.1L887,194l-2.1,1.3l0.8-2.3l1.1-3.4l-3.1-2.2l-2.2-1.5l2.7-0.1l3.9-0.1l1.3-3.4l0.8-2.2l0.8,2.2l1.3,3.4l3.9,0.1l2.6,0.1
		L896.7,187.3z M896.7,79.5l-3.1,2.2l1.1,3.4l0.8,2.3l-2.1-1.3l-3.2-2.1l-3.2,2.1l-2.1,1.3l0.8-2.3l1.1-3.4l-3.1-2.2l-2.2-1.5l2.6,0
		l3.9-0.1l1.3-3.4l0.8-2.2l0.8,2.2l1.3,3.4l3.9,0.1l2.6,0L896.7,79.5z M924.3,180.2l-3.1,2.2l1.1,3.4l0.7,2.3l-2-1.3l-3.2-2.1
		l-3.2,2.1l-2.1,1.3l0.8-2.3l1.1-3.4l-3.1-2.2l-2.2-1.5l2.6-0.1l3.9-0.1l1.3-3.4l0.8-2.2l0.8,2.2l1.3,3.4l3.9,0.1l2.6,0.1
		L924.3,180.2z M924.5,86.7l-3.1,2.2l1.1,3.4l0.8,2.3l-2.1-1.3l-3.2-2.1l-3.2,2.1l-2.1,1.3l0.8-2.3l1.1-3.4l-3.1-2.2l-2.2-1.5
		l2.7-0.1l3.9-0.1l1.3-3.4l0.8-2.2l0.8,2.2l1.3,3.4l3.9,0.1l2.6,0.1L924.5,86.7z M944.3,160.6l-3.1,2.2l1.1,3.4l0.8,2.3l-2.1-1.3
		l-3.2-2.1l-3.2,2.1l-2,1.3l0.7-2.3l1.1-3.4l-3.1-2.2l-2.2-1.5l2.6-0.1l3.9-0.1l1.3-3.4l0.8-2.2l0.8,2.2l1.3,3.4l3.9,0.1l2.6,0.1
		L944.3,160.6z M951.8,133.5l-3.1,2.2l1.1,3.4l0.8,2.3l-2.1-1.3l-3.2-2.1l-3.2,2.1l-2.1,1.3l0.8-2.3l1.1-3.4l-3.1-2.2l-2.2-1.5
		l2.6,0l3.9-0.1l1.3-3.4l0.8-2.2l0.8,2.2l1.3,3.4l3.9,0.1l2.6,0L951.8,133.5z"/>
	<g>
		<g>
			<path class="st0" d="M348.1,76.7l5.1,1.3c-1.1,4.2-3,7.4-5.7,9.5c-2.8,2.2-6.1,3.3-10.1,3.3c-4.1,0-7.5-0.8-10-2.5
				s-4.5-4.1-5.9-7.3c-1.3-3.2-2-6.6-2-10.3c0-4,0.8-7.5,2.3-10.5s3.7-5.2,6.5-6.8c2.8-1.5,5.9-2.3,9.3-2.3c3.8,0,7,1,9.6,2.9
				c2.6,2,4.4,4.7,5.4,8.2l-5,1.2c-0.9-2.8-2.2-4.8-3.9-6.1c-1.7-1.3-3.8-1.9-6.4-1.9c-2.9,0-5.4,0.7-7.4,2.1
				c-2,1.4-3.4,3.3-4.2,5.7c-0.8,2.4-1.2,4.8-1.2,7.4c0,3.3,0.5,6.1,1.4,8.6c0.9,2.4,2.4,4.3,4.4,5.5s4.2,1.8,6.5,1.8
				c2.8,0,5.2-0.8,7.2-2.5C346.1,82.4,347.4,80,348.1,76.7z"/>
			<path class="st0" d="M357,76.3c0-5.2,1.4-9,4.3-11.4c2.4-2.1,5.3-3.1,8.7-3.1c3.8,0,6.9,1.3,9.3,3.8c2.4,2.5,3.6,6,3.6,10.4
				c0,3.6-0.5,6.4-1.6,8.4c-1.1,2.1-2.6,3.6-4.7,4.8s-4.3,1.7-6.7,1.7c-3.9,0-7-1.2-9.4-3.7C358.2,84.6,357,81,357,76.3z
				 M361.8,76.3c0,3.6,0.8,6.2,2.3,8c1.5,1.8,3.5,2.7,5.8,2.7c2.3,0,4.3-0.9,5.8-2.7c1.5-1.8,2.3-4.5,2.3-8.1c0-3.4-0.8-6-2.3-7.8
				s-3.5-2.7-5.8-2.7c-2.3,0-4.3,0.9-5.8,2.6C362.6,70.1,361.8,72.7,361.8,76.3z"/>
			<path class="st0" d="M386.6,78.7v-4.7H401v4.7H386.6z"/>
			<path class="st0" d="M407.3,90.2V66h-4.1v-3.7h4.1v-3c0-1.9,0.2-3.3,0.5-4.2c0.5-1.2,1.2-2.2,2.4-3c1.1-0.8,2.7-1.1,4.8-1.1
				c1.3,0,2.8,0.2,4.4,0.5l-0.7,4.1c-1-0.2-1.9-0.3-2.8-0.3c-1.4,0-2.4,0.3-3,0.9c-0.6,0.6-0.9,1.8-0.9,3.4v2.6h5.4V66H412v24.1
				H407.3z"/>
			<path class="st0" d="M439.1,90.2v-4.1c-2.2,3.1-5.1,4.7-8.8,4.7c-1.6,0-3.2-0.3-4.6-0.9c-1.4-0.6-2.5-1.4-3.1-2.4
				c-0.7-1-1.2-2.1-1.4-3.5c-0.2-0.9-0.3-2.4-0.3-4.4V62.4h4.7v15.4c0,2.5,0.1,4.1,0.3,5c0.3,1.2,0.9,2.2,1.9,2.9
				c1,0.7,2.1,1.1,3.5,1.1c1.4,0,2.7-0.4,4-1.1s2.1-1.7,2.6-3c0.5-1.2,0.8-3.1,0.8-5.4V62.4h4.7v27.8H439.1z"/>
			<path class="st0" d="M450.6,90.2V62.4h4.2v4c2-3.1,5-4.6,8.8-4.6c1.7,0,3.2,0.3,4.6,0.9c1.4,0.6,2.4,1.4,3.1,2.4
				c0.7,1,1.2,2.1,1.5,3.5c0.2,0.9,0.3,2.4,0.3,4.6v17.1h-4.7V73.3c0-1.9-0.2-3.4-0.5-4.3c-0.4-1-1-1.7-1.9-2.3
				c-0.9-0.6-2-0.9-3.3-0.9c-2,0-3.7,0.6-5.2,1.9c-1.4,1.3-2.2,3.7-2.2,7.3v15.2H450.6z"/>
			<path class="st0" d="M498.2,90.2v-3.5c-1.8,2.8-4.3,4.1-7.7,4.1c-2.2,0-4.2-0.6-6.1-1.8c-1.8-1.2-3.3-2.9-4.3-5.1
				c-1-2.2-1.5-4.7-1.5-7.6c0-2.8,0.5-5.3,1.4-7.6c0.9-2.3,2.3-4,4.1-5.2c1.8-1.2,3.9-1.8,6.2-1.8c1.7,0,3.2,0.4,4.5,1.1
				c1.3,0.7,2.4,1.6,3.2,2.8V51.8h4.7v38.4H498.2z M483.4,76.3c0,3.6,0.7,6.2,2.2,8c1.5,1.8,3.3,2.6,5.3,2.6c2,0,3.8-0.8,5.2-2.5
				c1.4-1.7,2.1-4.3,2.1-7.7c0-3.8-0.7-6.6-2.2-8.4c-1.5-1.8-3.3-2.7-5.4-2.7c-2.1,0-3.8,0.9-5.2,2.6
				C484.1,69.9,483.4,72.6,483.4,76.3z"/>
			<path class="st0" d="M528.9,81.2l4.8,0.6c-0.8,2.8-2.2,5.1-4.2,6.6c-2.1,1.6-4.7,2.4-7.9,2.4c-4,0-7.3-1.3-9.6-3.8
				c-2.4-2.5-3.6-6-3.6-10.5c0-4.7,1.2-8.3,3.6-10.9c2.4-2.6,5.5-3.9,9.3-3.9c3.7,0,6.7,1.3,9.1,3.8c2.3,2.5,3.5,6.1,3.5,10.7
				c0,0.3,0,0.7,0,1.3h-20.6c0.2,3.1,1,5.4,2.6,7c1.5,1.6,3.5,2.4,5.8,2.4c1.7,0,3.2-0.5,4.4-1.4C527.2,84.7,528.2,83.2,528.9,81.2z
				 M513.5,73.6h15.4c-0.2-2.3-0.8-4.1-1.8-5.3c-1.5-1.8-3.4-2.7-5.8-2.7c-2.2,0-4,0.7-5.4,2.2C514.5,69.2,513.7,71.2,513.5,73.6z"
				/>
			<path class="st0" d="M557.6,90.2v-3.5c-1.8,2.8-4.3,4.1-7.7,4.1c-2.2,0-4.2-0.6-6.1-1.8c-1.8-1.2-3.3-2.9-4.3-5.1
				c-1-2.2-1.5-4.7-1.5-7.6c0-2.8,0.5-5.3,1.4-7.6c0.9-2.3,2.3-4,4.1-5.2c1.8-1.2,3.9-1.8,6.2-1.8c1.7,0,3.2,0.4,4.5,1.1
				c1.3,0.7,2.4,1.6,3.2,2.8V51.8h4.7v38.4H557.6z M542.7,76.3c0,3.6,0.7,6.2,2.2,8c1.5,1.8,3.3,2.6,5.3,2.6c2,0,3.8-0.8,5.2-2.5
				c1.4-1.7,2.1-4.3,2.1-7.7c0-3.8-0.7-6.6-2.2-8.4s-3.3-2.7-5.4-2.7c-2.1,0-3.8,0.9-5.2,2.6C543.4,69.9,542.7,72.6,542.7,76.3z"/>
			<path class="st0" d="M588.4,90.2h-4.3V51.8h4.7v13.7c2-2.5,4.5-3.7,7.6-3.7c1.7,0,3.3,0.3,4.8,1c1.5,0.7,2.8,1.7,3.7,2.9
				c1,1.2,1.7,2.8,2.3,4.5c0.6,1.8,0.8,3.7,0.8,5.7c0,4.8-1.2,8.5-3.5,11.1c-2.3,2.6-5.2,3.9-8.4,3.9c-3.3,0-5.8-1.4-7.7-4.1
				L588.4,90.2L588.4,90.2z M588.4,76.1c0,3.3,0.5,5.7,1.4,7.2c1.5,2.4,3.5,3.6,6,3.6c2,0,3.8-0.9,5.3-2.7c1.5-1.8,2.2-4.5,2.2-8
				c0-3.6-0.7-6.3-2.1-8c-1.4-1.7-3.2-2.6-5.2-2.6c-2,0-3.8,0.9-5.3,2.7C589.1,70.1,588.4,72.7,588.4,76.1z"/>
			<path class="st0" d="M613.5,100.9l-0.5-4.4c1,0.3,1.9,0.4,2.7,0.4c1,0,1.9-0.2,2.5-0.5s1.1-0.8,1.5-1.5c0.3-0.5,0.8-1.6,1.4-3.5
				c0.1-0.3,0.2-0.6,0.4-1.2l-10.5-27.9h5.1l5.8,16.1c0.7,2,1.4,4.2,2,6.4c0.5-2.2,1.2-4.3,1.9-6.3l5.9-16.2h4.7l-10.5,28.3
				c-1.1,3.1-2,5.2-2.6,6.3c-0.8,1.6-1.8,2.7-2.9,3.4s-2.4,1.1-3.9,1.1C615.7,101.5,614.7,101.3,613.5,100.9z"/>
			<path class="st0" d="M665.5,86l0.7,4.2c-1.3,0.3-2.5,0.4-3.5,0.4c-1.7,0-3-0.3-4-0.8s-1.6-1.3-2-2.1c-0.4-0.9-0.6-2.7-0.6-5.6V66
				h-3.4v-3.7h3.4v-6.9l4.7-2.8v9.7h4.7V66h-4.7v16.3c0,1.3,0.1,2.2,0.2,2.6c0.2,0.4,0.4,0.7,0.8,0.9c0.4,0.2,0.9,0.3,1.6,0.3
				C663.9,86.2,664.6,86.1,665.5,86z"/>
			<path class="st0" d="M670,90.2V51.8h4.7v13.8c2.2-2.5,4.9-3.8,8.3-3.8c2,0,3.8,0.4,5.3,1.2c1.5,0.8,2.6,1.9,3.2,3.4
				c0.7,1.4,1,3.5,1,6.2v17.6h-4.7V72.6c0-2.4-0.5-4.1-1.5-5.1c-1-1.1-2.5-1.6-4.3-1.6c-1.4,0-2.7,0.4-3.9,1.1
				c-1.2,0.7-2.1,1.7-2.6,2.9c-0.5,1.2-0.8,3-0.8,5.1v15.2H670z"/>
			<path class="st0" d="M718.6,81.2l4.8,0.6c-0.8,2.8-2.2,5.1-4.2,6.6c-2.1,1.6-4.7,2.4-7.9,2.4c-4,0-7.3-1.3-9.6-3.8
				c-2.4-2.5-3.6-6-3.6-10.5c0-4.7,1.2-8.3,3.6-10.9s5.5-3.9,9.3-3.9c3.7,0,6.7,1.3,9.1,3.8s3.5,6.1,3.5,10.7c0,0.3,0,0.7,0,1.3H703
				c0.2,3.1,1,5.4,2.6,7c1.5,1.6,3.5,2.4,5.8,2.4c1.7,0,3.2-0.5,4.4-1.4C717,84.7,717.9,83.2,718.6,81.2z M703.2,73.6h15.4
				c-0.2-2.3-0.8-4.1-1.8-5.3c-1.5-1.8-3.4-2.7-5.8-2.7c-2.2,0-4,0.7-5.4,2.2C704.2,69.2,703.4,71.2,703.2,73.6z"/>
		</g>
		<g>
			<path class="st0" d="M78.5,141.1l5.1,1.3c-1.1,4.2-3,7.4-5.7,9.5c-2.8,2.2-6.1,3.3-10.1,3.3c-4.1,0-7.5-0.8-10-2.5
				s-4.5-4.1-5.9-7.3c-1.3-3.2-2-6.6-2-10.3c0-4,0.8-7.5,2.3-10.5s3.7-5.2,6.5-6.8s5.9-2.3,9.3-2.3c3.8,0,7,1,9.6,2.9
				s4.4,4.7,5.4,8.2l-5,1.2c-0.9-2.8-2.2-4.8-3.9-6.1c-1.7-1.3-3.8-1.9-6.4-1.9c-2.9,0-5.4,0.7-7.4,2.1c-2,1.4-3.4,3.3-4.2,5.7
				c-0.8,2.4-1.2,4.8-1.2,7.4c0,3.3,0.5,6.1,1.4,8.6c0.9,2.4,2.4,4.3,4.4,5.5c2,1.2,4.2,1.8,6.5,1.8c2.8,0,5.2-0.8,7.2-2.5
				C76.5,146.8,77.8,144.3,78.5,141.1z"/>
			<path class="st0" d="M89.1,154.6v-27.8h4.2v4.2c1.1-2,2.1-3.3,3-3.9c0.9-0.6,1.9-0.9,3-0.9c1.6,0,3.2,0.5,4.8,1.5l-1.6,4.4
				c-1.1-0.7-2.3-1-3.4-1c-1,0-1.9,0.3-2.8,0.9c-0.8,0.6-1.4,1.5-1.7,2.6c-0.5,1.7-0.8,3.5-0.8,5.5v14.6H89.1z"/>
			<path class="st0" d="M125.9,145.6l4.8,0.6c-0.8,2.8-2.2,5.1-4.2,6.6c-2.1,1.6-4.7,2.4-7.9,2.4c-4,0-7.3-1.3-9.6-3.8
				c-2.4-2.5-3.6-6-3.6-10.5c0-4.7,1.2-8.3,3.6-10.9c2.4-2.6,5.5-3.9,9.3-3.9c3.7,0,6.7,1.3,9.1,3.8c2.3,2.5,3.5,6.1,3.5,10.7
				c0,0.3,0,0.7,0,1.3h-20.6c0.2,3.1,1,5.4,2.6,7c1.5,1.6,3.5,2.4,5.8,2.4c1.7,0,3.2-0.5,4.4-1.4C124.2,149,125.1,147.6,125.9,145.6
				z M110.5,138h15.4c-0.2-2.3-0.8-4.1-1.8-5.3c-1.5-1.8-3.4-2.7-5.8-2.7c-2.2,0-4,0.7-5.4,2.2C111.4,133.6,110.6,135.6,110.5,138z"
				/>
			<path class="st0" d="M154.6,151.1c-1.7,1.5-3.4,2.5-5,3.1c-1.6,0.6-3.3,0.9-5.2,0.9c-3,0-5.4-0.7-7-2.2c-1.6-1.5-2.4-3.4-2.4-5.7
				c0-1.4,0.3-2.6,0.9-3.7c0.6-1.1,1.4-2,2.4-2.7c1-0.7,2.1-1.2,3.4-1.5c0.9-0.2,2.3-0.5,4.2-0.7c3.8-0.5,6.6-1,8.4-1.6
				c0-0.6,0-1.1,0-1.2c0-1.9-0.4-3.3-1.3-4.1c-1.2-1.1-3-1.6-5.3-1.6c-2.2,0-3.8,0.4-4.9,1.2s-1.8,2.2-2.3,4.1l-4.6-0.6
				c0.4-2,1.1-3.6,2.1-4.8c1-1.2,2.3-2.1,4.1-2.8c1.8-0.7,3.9-1,6.3-1c2.4,0,4.3,0.3,5.8,0.8s2.6,1.3,3.3,2.1
				c0.7,0.8,1.2,1.9,1.5,3.2c0.2,0.8,0.2,2.3,0.2,4.3v6.3c0,4.4,0.1,7.2,0.3,8.3c0.2,1.2,0.6,2.3,1.2,3.3h-4.9
				C155.1,153.6,154.8,152.4,154.6,151.1z M154.2,140.6c-1.7,0.7-4.3,1.3-7.7,1.8c-1.9,0.3-3.3,0.6-4.1,0.9
				c-0.8,0.4-1.4,0.9-1.8,1.5s-0.7,1.4-0.7,2.2c0,1.3,0.5,2.3,1.4,3.1c0.9,0.8,2.3,1.3,4.2,1.3c1.8,0,3.4-0.4,4.8-1.2
				c1.4-0.8,2.4-1.9,3.1-3.3c0.5-1.1,0.8-2.6,0.8-4.7L154.2,140.6L154.2,140.6z"/>
			<path class="st0" d="M176.5,150.3l0.7,4.2c-1.3,0.3-2.5,0.4-3.5,0.4c-1.7,0-3-0.3-4-0.8c-0.9-0.5-1.6-1.3-2-2.1
				c-0.4-0.9-0.6-2.7-0.6-5.6v-16h-3.4v-3.7h3.4v-6.9l4.7-2.8v9.7h4.7v3.7h-4.7v16.3c0,1.3,0.1,2.2,0.2,2.6c0.2,0.4,0.4,0.7,0.8,0.9
				c0.4,0.2,0.9,0.3,1.6,0.3C174.9,150.5,175.6,150.5,176.5,150.3z"/>
			<path class="st0" d="M181.1,121.6v-5.4h4.7v5.4H181.1z M181.1,154.6v-27.8h4.7v27.8H181.1z"/>
			<path class="st0" d="M200.6,154.6l-10.5-27.8h4.9l5.9,16.7c0.6,1.8,1.2,3.7,1.8,5.6c0.4-1.5,1-3.2,1.7-5.3l6.1-17h4.8L205,154.6
				L200.6,154.6L200.6,154.6z"/>
			<path class="st0" d="M238.5,145.6l4.8,0.6c-0.8,2.8-2.2,5.1-4.2,6.6c-2.1,1.6-4.7,2.4-7.9,2.4c-4,0-7.3-1.3-9.6-3.8
				c-2.4-2.5-3.6-6-3.6-10.5c0-4.7,1.2-8.3,3.6-10.9c2.4-2.6,5.5-3.9,9.3-3.9c3.7,0,6.7,1.3,9.1,3.8c2.3,2.5,3.5,6.1,3.5,10.7
				c0,0.3,0,0.7,0,1.3h-20.6c0.2,3.1,1,5.4,2.6,7c1.5,1.6,3.5,2.4,5.8,2.4c1.7,0,3.2-0.5,4.4-1.4C236.8,149,237.8,147.6,238.5,145.6
				z M223.1,138h15.4c-0.2-2.3-0.8-4.1-1.8-5.3c-1.5-1.8-3.4-2.7-5.8-2.7c-2.2,0-4,0.7-5.4,2.2C224.1,133.6,223.3,135.6,223.1,138z"
				/>
			<path class="st0" d="M264.7,154.6v-38.4h27.6v4.5h-22.5v11.8h21.1v4.5h-21.1V150h23.4v4.5L264.7,154.6L264.7,154.6z"/>
			<path class="st0" d="M317.7,154.6v-4.1c-2.2,3.1-5.1,4.7-8.8,4.7c-1.6,0-3.2-0.3-4.6-0.9s-2.5-1.4-3.2-2.4
				c-0.7-1-1.2-2.1-1.4-3.5c-0.2-0.9-0.3-2.4-0.3-4.4v-17.2h4.7v15.4c0,2.5,0.1,4.1,0.3,5c0.3,1.2,0.9,2.2,1.9,2.9
				c1,0.7,2.1,1.1,3.5,1.1s2.7-0.4,4-1.1c1.2-0.7,2.1-1.7,2.6-3c0.5-1.2,0.8-3.1,0.8-5.4v-14.9h4.7v27.8L317.7,154.6L317.7,154.6z"
				/>
			<path class="st0" d="M329.2,154.6v-27.8h4.2v4.2c1.1-2,2.1-3.3,3-3.9c0.9-0.6,1.9-0.9,3-0.9c1.6,0,3.2,0.5,4.8,1.5l-1.6,4.4
				c-1.1-0.7-2.3-1-3.4-1c-1,0-1.9,0.3-2.8,0.9c-0.8,0.6-1.4,1.5-1.7,2.6c-0.5,1.7-0.8,3.5-0.8,5.5v14.6H329.2z"/>
			<path class="st0" d="M345.3,140.7c0-5.2,1.4-9,4.3-11.4c2.4-2.1,5.3-3.1,8.7-3.1c3.8,0,6.9,1.3,9.3,3.8c2.4,2.5,3.6,6,3.6,10.4
				c0,3.6-0.5,6.4-1.6,8.4c-1.1,2.1-2.6,3.6-4.7,4.8c-2,1.1-4.3,1.7-6.7,1.7c-3.9,0-7-1.2-9.4-3.7
				C346.5,148.9,345.3,145.4,345.3,140.7z M350.1,140.7c0,3.6,0.8,6.2,2.3,8c1.5,1.8,3.5,2.7,5.8,2.7c2.3,0,4.3-0.9,5.8-2.7
				c1.5-1.8,2.3-4.5,2.3-8.1c0-3.4-0.8-6-2.3-7.8c-1.6-1.8-3.5-2.7-5.8-2.7c-2.3,0-4.3,0.9-5.8,2.6
				C350.9,134.4,350.1,137.1,350.1,140.7z"/>
			<path class="st0" d="M376.7,165.2v-38.5h4.3v3.6c1-1.4,2.1-2.5,3.4-3.2c1.3-0.7,2.8-1.1,4.6-1.1c2.4,0,4.4,0.6,6.2,1.8
				s3.2,2.9,4.1,5.2c0.9,2.2,1.4,4.7,1.4,7.3c0,2.8-0.5,5.4-1.5,7.7c-1,2.3-2.5,4-4.4,5.2c-1.9,1.2-4,1.8-6.1,1.8
				c-1.6,0-3-0.3-4.2-1c-1.2-0.7-2.3-1.5-3.1-2.5v13.5L376.7,165.2L376.7,165.2z M380.9,140.8c0,3.6,0.7,6.2,2.2,7.9
				c1.4,1.7,3.2,2.6,5.2,2.6c2.1,0,3.9-0.9,5.4-2.7c1.5-1.8,2.2-4.5,2.2-8.2c0-3.5-0.7-6.2-2.2-8c-1.4-1.8-3.2-2.6-5.2-2.6
				c-2,0-3.8,0.9-5.3,2.8C381.7,134.5,380.9,137.2,380.9,140.8z"/>
			<path class="st0" d="M425.3,145.6l4.8,0.6c-0.8,2.8-2.2,5.1-4.2,6.6c-2.1,1.6-4.7,2.4-7.9,2.4c-4,0-7.3-1.3-9.6-3.8
				c-2.4-2.5-3.6-6-3.6-10.5c0-4.7,1.2-8.3,3.6-10.9c2.4-2.6,5.5-3.9,9.3-3.9c3.7,0,6.7,1.3,9.1,3.8s3.5,6.1,3.5,10.7
				c0,0.3,0,0.7,0,1.3h-20.6c0.2,3.1,1,5.4,2.6,7c1.5,1.6,3.5,2.4,5.8,2.4c1.7,0,3.2-0.5,4.4-1.4C423.6,149,424.6,147.6,425.3,145.6
				z M409.9,138h15.4c-0.2-2.3-0.8-4.1-1.8-5.3c-1.5-1.8-3.4-2.7-5.8-2.7c-2.2,0-4,0.7-5.4,2.2C410.8,133.6,410,135.6,409.9,138z"/>
			<path class="st0" d="M451.4,154.6v-38.4h14.4c2.5,0,4.5,0.1,5.8,0.4c1.9,0.3,3.4,0.9,4.7,1.8c1.3,0.9,2.3,2.1,3.1,3.7
				c0.8,1.6,1.2,3.3,1.2,5.2c0,3.3-1,6-3.1,8.3c-2.1,2.3-5.8,3.4-11.2,3.4h-9.8v15.6L451.4,154.6L451.4,154.6z M456.5,134.4h9.9
				c3.3,0,5.6-0.6,7-1.8c1.4-1.2,2.1-2.9,2.1-5.2c0-1.6-0.4-3-1.2-4.1c-0.8-1.1-1.9-1.9-3.2-2.3c-0.9-0.2-2.4-0.3-4.7-0.3h-9.8
				L456.5,134.4L456.5,134.4z"/>
			<path class="st0" d="M486.3,154.6v-27.8h4.2v4.2c1.1-2,2.1-3.3,3-3.9c0.9-0.6,1.9-0.9,3-0.9c1.6,0,3.2,0.5,4.8,1.5l-1.6,4.4
				c-1.1-0.7-2.3-1-3.4-1c-1,0-1.9,0.3-2.8,0.9c-0.8,0.6-1.4,1.5-1.7,2.6c-0.5,1.7-0.8,3.5-0.8,5.5v14.6H486.3z"/>
			<path class="st0" d="M502.4,140.7c0-5.2,1.4-9,4.3-11.4c2.4-2.1,5.3-3.1,8.7-3.1c3.8,0,6.9,1.3,9.3,3.8c2.4,2.5,3.6,6,3.6,10.4
				c0,3.6-0.5,6.4-1.6,8.4c-1.1,2.1-2.6,3.6-4.7,4.8c-2,1.1-4.3,1.7-6.7,1.7c-3.9,0-7-1.2-9.4-3.7
				C503.6,148.9,502.4,145.4,502.4,140.7z M507.2,140.7c0,3.6,0.8,6.2,2.3,8c1.5,1.8,3.5,2.7,5.8,2.7c2.3,0,4.3-0.9,5.8-2.7
				c1.5-1.8,2.3-4.5,2.3-8.1c0-3.4-0.8-6-2.3-7.8c-1.6-1.8-3.5-2.7-5.8-2.7c-2.3,0-4.3,0.9-5.8,2.6
				C508,134.4,507.2,137.1,507.2,140.7z"/>
			<path class="st0" d="M532.9,156.9l4.6,0.7c0.2,1.4,0.7,2.4,1.6,3.1c1.2,0.9,2.8,1.3,4.8,1.3c2.2,0,3.8-0.4,5-1.3
				c1.2-0.9,2-2.1,2.4-3.7c0.2-1,0.4-3,0.3-6.1c-2,2.4-4.6,3.6-7.7,3.6c-3.8,0-6.7-1.4-8.8-4.1c-2.1-2.8-3.1-6.1-3.1-9.9
				c0-2.7,0.5-5.1,1.4-7.3s2.3-4,4.2-5.2c1.8-1.2,3.9-1.8,6.4-1.8c3.3,0,6,1.3,8.1,4v-3.4h4.3v24c0,4.3-0.4,7.4-1.3,9.2
				c-0.9,1.8-2.3,3.2-4.2,4.3c-1.9,1-4.2,1.6-7,1.6c-3.3,0-6-0.7-8-2.2C533.8,162.1,532.9,159.9,532.9,156.9z M536.8,140.2
				c0,3.6,0.7,6.3,2.2,8c1.4,1.7,3.2,2.5,5.4,2.5c2.2,0,4-0.8,5.4-2.5c1.5-1.7,2.2-4.3,2.2-7.8c0-3.4-0.8-6-2.3-7.7
				c-1.5-1.7-3.3-2.6-5.4-2.6c-2.1,0-3.9,0.9-5.3,2.6C537.5,134.3,536.8,136.8,536.8,140.2z"/>
			<path class="st0" d="M563.4,154.6v-27.8h4.2v4.2c1.1-2,2.1-3.3,3-3.9c0.9-0.6,1.9-0.9,3-0.9c1.6,0,3.2,0.5,4.8,1.5l-1.6,4.4
				c-1.1-0.7-2.3-1-3.4-1c-1,0-1.9,0.3-2.8,0.9c-0.8,0.6-1.4,1.5-1.7,2.6c-0.5,1.7-0.8,3.5-0.8,5.5v14.6H563.4z"/>
			<path class="st0" d="M599.2,151.1c-1.7,1.5-3.4,2.5-5,3.1c-1.6,0.6-3.3,0.9-5.2,0.9c-3,0-5.4-0.7-7-2.2c-1.6-1.5-2.4-3.4-2.4-5.7
				c0-1.4,0.3-2.6,0.9-3.7c0.6-1.1,1.4-2,2.4-2.7c1-0.7,2.1-1.2,3.4-1.5c0.9-0.2,2.3-0.5,4.2-0.7c3.8-0.5,6.6-1,8.4-1.6
				c0-0.6,0-1.1,0-1.2c0-1.9-0.4-3.3-1.3-4.1c-1.2-1.1-3-1.6-5.3-1.6c-2.2,0-3.8,0.4-4.9,1.2c-1.1,0.8-1.8,2.2-2.3,4.1l-4.6-0.6
				c0.4-2,1.1-3.6,2.1-4.8c1-1.2,2.3-2.1,4.1-2.8s3.9-1,6.3-1c2.4,0,4.3,0.3,5.8,0.8s2.6,1.3,3.3,2.1c0.7,0.8,1.2,1.9,1.5,3.2
				c0.2,0.8,0.2,2.3,0.2,4.3v6.3c0,4.4,0.1,7.2,0.3,8.3c0.2,1.2,0.6,2.3,1.2,3.3h-4.9C599.7,153.6,599.4,152.4,599.2,151.1z
				 M598.9,140.6c-1.7,0.7-4.3,1.3-7.7,1.8c-1.9,0.3-3.3,0.6-4.1,0.9c-0.8,0.4-1.4,0.9-1.8,1.5c-0.4,0.7-0.7,1.4-0.7,2.2
				c0,1.3,0.5,2.3,1.4,3.1c0.9,0.8,2.3,1.3,4.2,1.3c1.8,0,3.4-0.4,4.8-1.2c1.4-0.8,2.4-1.9,3.1-3.3c0.5-1.1,0.8-2.6,0.8-4.7V140.6z"
				/>
			<path class="st0" d="M610.9,154.6v-27.8h4.2v3.9c0.9-1.4,2-2.5,3.5-3.3c1.4-0.8,3.1-1.2,4.9-1.2c2,0,3.7,0.4,5,1.3
				c1.3,0.9,2.2,2.1,2.8,3.6c2.2-3.2,5-4.9,8.5-4.9c2.7,0,4.9,0.8,6.3,2.3c1.5,1.5,2.2,3.9,2.2,7.1v19.1h-4.7V137
				c0-1.9-0.2-3.2-0.5-4.1s-0.9-1.5-1.7-2c-0.8-0.5-1.7-0.8-2.8-0.8c-1.9,0-3.6,0.7-4.8,2c-1.3,1.3-1.9,3.4-1.9,6.2v16.2h-4.7v-18.1
				c0-2.1-0.4-3.7-1.1-4.7c-0.8-1-2-1.6-3.7-1.6c-1.3,0-2.5,0.4-3.7,1c-1.1,0.7-1.9,1.7-2.4,3.1c-0.5,1.3-0.8,3.3-0.8,5.8v14.4
				L610.9,154.6L610.9,154.6z"/>
			<path class="st0" d="M655.3,154.6v-27.8h4.2v3.9c0.9-1.4,2-2.5,3.5-3.3c1.4-0.8,3.1-1.2,4.9-1.2c2,0,3.7,0.4,5,1.3
				c1.3,0.9,2.2,2.1,2.8,3.6c2.2-3.2,5-4.9,8.5-4.9c2.7,0,4.9,0.8,6.3,2.3c1.5,1.5,2.2,3.9,2.2,7.1v19.1h-4.7V137
				c0-1.9-0.2-3.2-0.5-4.1s-0.9-1.5-1.7-2c-0.8-0.5-1.7-0.8-2.8-0.8c-1.9,0-3.6,0.7-4.8,2c-1.3,1.3-1.9,3.4-1.9,6.2v16.2h-4.7v-18.1
				c0-2.1-0.4-3.7-1.1-4.7c-0.8-1-2-1.6-3.7-1.6c-1.3,0-2.5,0.4-3.7,1c-1.1,0.7-1.9,1.7-2.4,3.1c-0.5,1.3-0.8,3.3-0.8,5.8v14.4
				L655.3,154.6L655.3,154.6z"/>
			<path class="st0" d="M718.6,145.6l4.8,0.6c-0.8,2.8-2.2,5.1-4.2,6.6c-2.1,1.6-4.7,2.4-7.9,2.4c-4,0-7.3-1.3-9.6-3.8
				c-2.4-2.5-3.6-6-3.6-10.5c0-4.7,1.2-8.3,3.6-10.9c2.4-2.6,5.5-3.9,9.3-3.9c3.7,0,6.7,1.3,9.1,3.8s3.5,6.1,3.5,10.7
				c0,0.3,0,0.7,0,1.3H703c0.2,3.1,1,5.4,2.6,7c1.5,1.6,3.5,2.4,5.8,2.4c1.7,0,3.2-0.5,4.4-1.4C717,149,717.9,147.6,718.6,145.6z
				 M703.2,138h15.4c-0.2-2.3-0.8-4.1-1.8-5.3c-1.5-1.8-3.4-2.7-5.8-2.7c-2.2,0-4,0.7-5.4,2.2C704.2,133.6,703.4,135.6,703.2,138z"
				/>
		</g>
		<g>
			<path class="st0" d="M195.4,205c0-5.1,1.4-9,4.3-11.4c2.4-2.1,5.3-3.1,8.7-3.1c3.8,0,6.9,1.3,9.3,3.8c2.4,2.5,3.6,6,3.6,10.4
				c0,3.6-0.5,6.4-1.6,8.4c-1.1,2.1-2.6,3.6-4.7,4.8c-2,1.1-4.3,1.7-6.7,1.7c-3.9,0-7-1.2-9.4-3.7
				C196.6,213.3,195.4,209.7,195.4,205z M200.2,205c0,3.6,0.8,6.2,2.3,8c1.5,1.8,3.5,2.7,5.8,2.7c2.3,0,4.3-0.9,5.8-2.7
				c1.5-1.8,2.3-4.5,2.3-8.1c0-3.4-0.8-6-2.3-7.8c-1.6-1.8-3.5-2.7-5.8-2.7c-2.3,0-4.3,0.9-5.8,2.6C201,198.8,200.2,201.5,200.2,205
				z"/>
			<path class="st0" d="M227.9,218.9v-24.1h-4.1v-3.7h4.1v-3c0-1.9,0.2-3.3,0.5-4.2c0.5-1.2,1.2-2.2,2.4-3c1.1-0.8,2.7-1.1,4.8-1.1
				c1.3,0,2.8,0.2,4.4,0.5l-0.7,4.1c-1-0.2-1.9-0.3-2.8-0.3c-1.4,0-2.4,0.3-3,0.9c-0.6,0.6-0.9,1.8-0.9,3.4v2.6h5.4v3.7h-5.4v24.1
				L227.9,218.9L227.9,218.9z"/>
			<path class="st0" d="M266.7,214.7l0.7,4.2c-1.3,0.3-2.5,0.4-3.5,0.4c-1.7,0-3-0.3-4-0.8c-0.9-0.5-1.6-1.3-2-2.1
				c-0.4-0.9-0.6-2.7-0.6-5.6v-16h-3.4v-3.7h3.4v-6.9l4.7-2.8v9.7h4.7v3.7H262V211c0,1.3,0.1,2.2,0.2,2.6c0.2,0.4,0.4,0.7,0.8,0.9
				c0.4,0.2,0.9,0.3,1.6,0.3C265.2,214.9,265.8,214.8,266.7,214.7z"/>
			<path class="st0" d="M271.3,218.9v-38.4h4.7v13.8c2.2-2.5,4.9-3.8,8.3-3.8c2,0,3.8,0.4,5.3,1.2c1.5,0.8,2.6,1.9,3.2,3.4
				c0.7,1.4,1,3.5,1,6.2v17.6h-4.7v-17.6c0-2.4-0.5-4.1-1.5-5.1c-1-1.1-2.5-1.6-4.3-1.6c-1.4,0-2.7,0.4-3.9,1.1s-2.1,1.7-2.6,2.9
				c-0.5,1.2-0.8,3-0.8,5.1v15.2L271.3,218.9L271.3,218.9z"/>
			<path class="st0" d="M319.9,210l4.8,0.6c-0.8,2.8-2.2,5.1-4.2,6.6c-2.1,1.6-4.7,2.4-7.9,2.4c-4,0-7.3-1.3-9.6-3.8
				c-2.4-2.5-3.6-6-3.6-10.5c0-4.7,1.2-8.3,3.6-10.9c2.4-2.6,5.5-3.9,9.3-3.9c3.7,0,6.7,1.3,9.1,3.8c2.3,2.5,3.5,6.1,3.5,10.7
				c0,0.3,0,0.7,0,1.3h-20.6c0.2,3.1,1,5.4,2.6,7c1.5,1.6,3.5,2.4,5.8,2.4c1.7,0,3.2-0.5,4.4-1.4C318.2,213.4,319.1,212,319.9,210z
				 M304.5,202.4h15.4c-0.2-2.3-0.8-4.1-1.8-5.3c-1.5-1.8-3.4-2.7-5.8-2.7c-2.2,0-4,0.7-5.4,2.2S304.6,199.9,304.5,202.4z"/>
			<path class="st0" d="M346.1,218.9v-38.4h27.6v4.5h-22.5v11.8h21.1v4.5h-21.1v13.1h23.4v4.5H346.1z"/>
			<path class="st0" d="M399.1,218.9v-4.1c-2.2,3.1-5.1,4.7-8.8,4.7c-1.6,0-3.2-0.3-4.6-0.9s-2.5-1.4-3.2-2.4
				c-0.7-1-1.2-2.1-1.4-3.5c-0.2-0.9-0.3-2.4-0.3-4.4v-17.2h4.7v15.4c0,2.5,0.1,4.1,0.3,5c0.3,1.2,0.9,2.2,1.9,2.9
				c1,0.7,2.1,1.1,3.5,1.1s2.7-0.4,4-1.1c1.2-0.7,2.1-1.7,2.6-3c0.5-1.2,0.8-3.1,0.8-5.4v-14.9h4.7v27.8H399.1z"/>
			<path class="st0" d="M410.6,218.9v-27.8h4.2v4.2c1.1-2,2.1-3.3,3-3.9c0.9-0.6,1.9-0.9,3-0.9c1.6,0,3.2,0.5,4.8,1.5l-1.6,4.4
				c-1.1-0.7-2.3-1-3.4-1c-1,0-1.9,0.3-2.8,0.9c-0.8,0.6-1.4,1.5-1.7,2.6c-0.5,1.7-0.8,3.5-0.8,5.5v14.6L410.6,218.9L410.6,218.9z"
				/>
			<path class="st0" d="M426.6,205c0-5.1,1.4-9,4.3-11.4c2.4-2.1,5.3-3.1,8.7-3.1c3.8,0,6.9,1.3,9.3,3.8c2.4,2.5,3.6,6,3.6,10.4
				c0,3.6-0.5,6.4-1.6,8.4c-1.1,2.1-2.6,3.6-4.7,4.8c-2,1.1-4.3,1.7-6.7,1.7c-3.9,0-7-1.2-9.4-3.7
				C427.8,213.3,426.6,209.7,426.6,205z M431.5,205c0,3.6,0.8,6.2,2.3,8c1.5,1.8,3.5,2.7,5.8,2.7c2.3,0,4.3-0.9,5.8-2.7
				c1.5-1.8,2.3-4.5,2.3-8.1c0-3.4-0.8-6-2.3-7.8c-1.6-1.8-3.5-2.7-5.8-2.7c-2.3,0-4.3,0.9-5.8,2.6
				C432.2,198.8,431.5,201.5,431.5,205z"/>
			<path class="st0" d="M458,229.6v-38.5h4.3v3.6c1-1.4,2.1-2.5,3.4-3.2s2.8-1.1,4.6-1.1c2.4,0,4.4,0.6,6.2,1.8
				c1.8,1.2,3.2,2.9,4.1,5.2s1.4,4.7,1.4,7.3c0,2.8-0.5,5.4-1.5,7.7c-1,2.3-2.5,4-4.4,5.2c-1.9,1.2-4,1.8-6.1,1.8
				c-1.6,0-3-0.3-4.2-1c-1.2-0.7-2.3-1.5-3.1-2.5v13.5L458,229.6L458,229.6z M462.3,205.2c0,3.6,0.7,6.2,2.2,7.9
				c1.4,1.7,3.2,2.6,5.2,2.6c2.1,0,3.9-0.9,5.3-2.7c1.5-1.8,2.2-4.5,2.2-8.2c0-3.5-0.7-6.2-2.2-8s-3.2-2.6-5.2-2.6
				c-2,0-3.8,0.9-5.3,2.8C463.1,198.9,462.3,201.6,462.3,205.2z"/>
			<path class="st0" d="M506.6,210l4.8,0.6c-0.8,2.8-2.2,5.1-4.2,6.6c-2.1,1.6-4.7,2.4-7.9,2.4c-4,0-7.3-1.3-9.6-3.8
				c-2.4-2.5-3.6-6-3.6-10.5c0-4.7,1.2-8.3,3.6-10.9s5.5-3.9,9.3-3.9c3.7,0,6.7,1.3,9.1,3.8c2.3,2.5,3.5,6.1,3.5,10.7
				c0,0.3,0,0.7,0,1.3H491c0.2,3.1,1,5.4,2.6,7c1.5,1.6,3.5,2.4,5.8,2.4c1.7,0,3.2-0.5,4.4-1.4C505,213.4,505.9,212,506.6,210z
				 M491.2,202.4h15.4c-0.2-2.3-0.8-4.1-1.8-5.3c-1.5-1.8-3.4-2.7-5.8-2.7c-2.2,0-4,0.7-5.4,2.2C492.2,198,491.4,199.9,491.2,202.4z
				"/>
			<path class="st0" d="M535.4,215.5c-1.7,1.5-3.4,2.5-5,3.1c-1.6,0.6-3.3,0.9-5.2,0.9c-3,0-5.4-0.7-7-2.2c-1.6-1.5-2.4-3.4-2.4-5.7
				c0-1.4,0.3-2.6,0.9-3.7c0.6-1.1,1.4-2,2.4-2.7c1-0.7,2.1-1.2,3.4-1.5c0.9-0.2,2.3-0.5,4.2-0.7c3.8-0.5,6.6-1,8.4-1.6
				c0-0.6,0-1.1,0-1.2c0-1.9-0.4-3.3-1.3-4.1c-1.2-1.1-3-1.6-5.3-1.6c-2.2,0-3.8,0.4-4.9,1.2c-1.1,0.8-1.8,2.2-2.3,4.1l-4.6-0.6
				c0.4-2,1.1-3.6,2.1-4.8c1-1.2,2.3-2.1,4.1-2.8c1.8-0.7,3.9-1,6.3-1c2.4,0,4.3,0.3,5.8,0.8s2.6,1.3,3.3,2.1
				c0.7,0.8,1.2,1.9,1.5,3.2c0.2,0.8,0.2,2.3,0.2,4.3v6.3c0,4.4,0.1,7.2,0.3,8.3c0.2,1.2,0.6,2.3,1.2,3.3h-4.9
				C535.9,218,535.5,216.8,535.4,215.5z M535,205c-1.7,0.7-4.3,1.3-7.7,1.8c-1.9,0.3-3.3,0.6-4.1,0.9c-0.8,0.4-1.4,0.9-1.8,1.5
				c-0.4,0.7-0.7,1.4-0.7,2.2c0,1.3,0.5,2.3,1.4,3.1c0.9,0.8,2.3,1.3,4.2,1.3c1.8,0,3.4-0.4,4.8-1.2c1.4-0.8,2.4-1.9,3.1-3.3
				c0.5-1.1,0.8-2.6,0.8-4.7V205z"/>
			<path class="st0" d="M547,218.9v-27.8h4.2v4c2-3.1,5-4.6,8.8-4.6c1.7,0,3.2,0.3,4.6,0.9c1.4,0.6,2.4,1.4,3.1,2.4
				c0.7,1,1.2,2.1,1.5,3.5c0.2,0.9,0.3,2.4,0.3,4.6v17.1h-4.7V202c0-1.9-0.2-3.4-0.5-4.3c-0.4-1-1-1.7-1.9-2.3
				c-0.9-0.6-2-0.9-3.3-0.9c-2,0-3.7,0.6-5.2,1.9c-1.4,1.3-2.2,3.7-2.2,7.3v15.2L547,218.9L547,218.9z"/>
			<path class="st0" d="M617.1,180.5h5.1v22.2c0,3.9-0.4,6.9-1.3,9.2c-0.9,2.3-2.4,4.1-4.7,5.5c-2.3,1.4-5.2,2.1-8.9,2.1
				c-3.6,0-6.5-0.6-8.8-1.9c-2.3-1.2-3.9-3-4.9-5.4c-1-2.3-1.5-5.6-1.5-9.6v-22.2h5.1v22.2c0,3.3,0.3,5.8,0.9,7.4
				c0.6,1.6,1.7,2.8,3.2,3.7c1.5,0.9,3.3,1.3,5.5,1.3c3.7,0,6.4-0.8,7.9-2.5c1.6-1.7,2.4-4.9,2.4-9.8L617.1,180.5L617.1,180.5z"/>
			<path class="st0" d="M630,218.9v-27.8h4.2v4c2-3.1,5-4.6,8.8-4.6c1.7,0,3.2,0.3,4.6,0.9c1.4,0.6,2.4,1.4,3.1,2.4
				c0.7,1,1.2,2.1,1.5,3.5c0.2,0.9,0.3,2.4,0.3,4.6v17.1h-4.7V202c0-1.9-0.2-3.4-0.5-4.3c-0.4-1-1-1.7-1.9-2.3
				c-0.9-0.6-2-0.9-3.3-0.9c-2,0-3.7,0.6-5.2,1.9c-1.4,1.3-2.2,3.7-2.2,7.3v15.2L630,218.9L630,218.9z"/>
			<path class="st0" d="M659.7,186v-5.4h4.7v5.4H659.7z M659.7,218.9v-27.8h4.7v27.8H659.7z"/>
			<path class="st0" d="M669.8,205c0-5.1,1.4-9,4.3-11.4c2.4-2.1,5.3-3.1,8.7-3.1c3.8,0,6.9,1.3,9.3,3.8c2.4,2.5,3.6,6,3.6,10.4
				c0,3.6-0.5,6.4-1.6,8.4c-1.1,2.1-2.6,3.6-4.7,4.8c-2,1.1-4.3,1.7-6.7,1.7c-3.9,0-7-1.2-9.4-3.7
				C670.9,213.3,669.8,209.7,669.8,205z M674.6,205c0,3.6,0.8,6.2,2.3,8c1.5,1.8,3.5,2.7,5.8,2.7c2.3,0,4.3-0.9,5.8-2.7
				c1.5-1.8,2.3-4.5,2.3-8.1c0-3.4-0.8-6-2.3-7.8c-1.6-1.8-3.5-2.7-5.8-2.7c-2.3,0-4.3,0.9-5.8,2.6
				C675.3,198.8,674.6,201.5,674.6,205z"/>
			<path class="st0" d="M701.2,218.9v-27.8h4.2v4c2-3.1,5-4.6,8.8-4.6c1.7,0,3.2,0.3,4.6,0.9c1.4,0.6,2.4,1.4,3.1,2.4
				c0.7,1,1.2,2.1,1.5,3.5c0.2,0.9,0.3,2.4,0.3,4.6v17.1h-4.7V202c0-1.9-0.2-3.4-0.5-4.3c-0.4-1-1-1.7-1.9-2.3
				c-0.9-0.6-2-0.9-3.3-0.9c-2,0-3.7,0.6-5.2,1.9c-1.4,1.3-2.2,3.7-2.2,7.3v15.2L701.2,218.9L701.2,218.9z"/>
		</g>
	</g>
</g>
</svg>
