<?xml version="1.0" encoding="utf-8"?>
<!-- Generator: Adobe Illustrator 18.0.0, SVG Export Plug-In . SVG Version: 6.00 Build 0)  -->
<!DOCTYPE svg PUBLIC "-//W3C//DTD SVG 1.1//EN" "http://www.w3.org/Graphics/SVG/1.1/DTD/svg11.dtd">
<svg version="1.1" id="Livello_1" xmlns="http://www.w3.org/2000/svg" xmlns:xlink="http://www.w3.org/1999/xlink" x="0px" y="0px"
	 viewBox="0 0 49 49" enable-background="new 0 0 49 49" xml:space="preserve">
<path fill="#198FCF" d="M46.5,35.8c1.5,1.5,2.2,3.3,2.2,5.3c0,2.1-0.7,3.9-2.2,5.3c-1.5,1.5-3.3,2.2-5.3,2.2s-3.9-0.7-5.3-2.2
	c-1.5-1.5-2.2-3.3-2.2-5.3c0-0.6,0.1-1.2,0.2-1.8L13.8,29.2c-1.5,1.9-3.5,2.8-6,2.8c-2.1,0-3.9-0.7-5.3-2.2
	c-1.5-1.5-2.2-3.3-2.2-5.3s0.7-3.9,2.2-5.3c1.5-1.5,3.3-2.2,5.3-2.2c2.2,0,4.1,0.8,5.6,2.5l20.3-9.8c-0.1-0.6-0.2-1.1-0.2-1.7
	c0-2.1,0.7-3.9,2.2-5.3c1.5-1.5,3.3-2.2,5.3-2.2s3.9,0.7,5.3,2.2c1.5,1.5,2.2,3.3,2.2,5.3s-0.7,3.9-2.2,5.3
	c-1.5,1.5-3.3,2.2-5.3,2.2c-2.6,0-4.6-1-6.1-3.1L15.1,22c0.3,0.8,0.4,1.6,0.4,2.5c0,0.6-0.1,1.3-0.3,2l19.9,10.1c1.5-2,3.5-3,6-3
	C43.2,33.6,45,34.3,46.5,35.8z M12.4,24.5c0-1.3-0.4-2.3-1.3-3.2c-0.9-0.9-2-1.3-3.2-1.3c-1.3,0-2.3,0.4-3.2,1.3
	c-0.9,0.9-1.3,2-1.3,3.2c0,1.3,0.4,2.3,1.3,3.2c0.9,0.9,2,1.3,3.2,1.3c1.3,0,2.3-0.4,3.2-1.3C12,26.8,12.4,25.8,12.4,24.5z
	 M36.6,7.9c0,1.3,0.4,2.3,1.3,3.2c0.9,0.9,2,1.3,3.2,1.3c1.3,0,2.3-0.4,3.2-1.3c0.9-0.9,1.3-2,1.3-3.2c0-1.3-0.4-2.3-1.3-3.2
	c-0.9-0.9-2-1.3-3.2-1.3c-1.3,0-2.3,0.4-3.2,1.3C37,5.5,36.6,6.6,36.6,7.9z M45.7,41.1c0-1.3-0.4-2.3-1.3-3.2
	c-0.9-0.9-2-1.3-3.2-1.3c-1.3,0-2.3,0.4-3.2,1.3c-0.9,0.9-1.3,2-1.3,3.2c0,1.3,0.4,2.3,1.3,3.2c0.9,0.9,2,1.3,3.2,1.3
	c1.3,0,2.3-0.4,3.2-1.3C45.2,43.5,45.7,42.4,45.7,41.1z"/>
</svg>
