<?xml version="1.0" encoding="utf-8"?>
<!-- Generator: Adobe Illustrator 22.0.1, SVG Export Plug-In . SVG Version: 6.00 Build 0)  -->
<svg version="1.1" id="Livello_1" xmlns="http://www.w3.org/2000/svg" xmlns:xlink="http://www.w3.org/1999/xlink" x="0px" y="0px"
	 viewBox="0 0 348.7 311.8" style="enable-background:new 0 0 348.7 311.8;" xml:space="preserve">
<style type="text/css">
	.st0{fill:none;stroke:#198FCF;stroke-width:6.1825;stroke-miterlimit:10;}
	.st1{fill:#282829;stroke:#198FCF;stroke-width:6.1825;stroke-miterlimit:10;}
	.st2{enable-background:new    ;}
	.st3{fill:#198FCF;}
</style>
<circle class="st0" cx="178.2" cy="157.6" r="149.9"/>
<circle class="st0" cx="200.6" cy="159.9" r="147.6"/>
<circle class="st1" cx="155.1" cy="155.9" r="151.6"/>
<g class="st2">
	<path class="st3" d="M107,212.6c-2.4,0-4.4-0.8-6-2.5c-1.7-1.7-2.5-3.7-2.5-6c0-0.1,0-0.7,0.1-1.8c0.1-1.1,0.3-2.5,0.8-4.3
		c0.4-1.7,1.1-3.7,2.1-5.9c0.9-2.2,2.3-4.4,4-6.7c1-1.3,2.1-2.6,3.3-3.8c1.2-1.2,2.4-2.3,3.8-3.4c1.3-1.1,2.8-2,4.3-2.9
		c1.5-0.9,3.1-1.7,4.8-2.5c2.1-0.9,4.3-1.7,6.6-2.4s4.8-1.3,7.3-1.7c2.6-0.5,5.2-0.8,8-1.1s5.7-0.4,8.7-0.4c3,0,5.9,0.1,8.7,0.4
		s5.5,0.6,8,1.1c2.5,0.5,5,1,7.3,1.7s4.5,1.5,6.6,2.4c1.7,0.7,3.3,1.6,4.8,2.5s3,1.9,4.3,2.9c1.4,1.1,2.6,2.2,3.8,3.4
		c1.2,1.2,2.3,2.5,3.3,3.8c1.7,2.3,3.1,4.5,4,6.7s1.6,4.2,2,5.9c0.4,1.7,0.7,3.2,0.8,4.3c0.1,1.1,0.1,1.7,0.1,1.8
		c0,2.3-0.8,4.3-2.5,6c-1.7,1.7-3.7,2.5-6,2.5H107z M138.5,174c-4.3,0.7-8.2,1.7-11.7,3c-3.5,1.3-6.7,2.9-9.5,4.9
		c-2.8,2-5.2,4.2-7.1,6.8c-1.5,1.9-2.6,3.8-3.4,5.6c-0.8,1.8-1.4,3.5-1.8,5s-0.6,2.6-0.7,3.5c-0.1,0.9-0.1,1.4-0.1,1.4
		c0,0.8,0.3,1.4,0.8,2s1.2,0.8,2,0.8h90.7c0.8,0,1.4-0.3,2-0.8s0.8-1.2,0.8-2c0,0,0-0.5-0.1-1.4c-0.1-0.9-0.3-2.1-0.7-3.5
		c-0.4-1.5-1-3.1-1.8-5s-1.9-3.7-3.4-5.6c-2-2.5-4.3-4.8-7.1-6.8c-2.8-2-6-3.6-9.5-4.9c-3.6-1.3-7.5-2.3-11.7-3
		c-4.3-0.7-8.9-1-13.8-1C147.4,173,142.8,173.3,138.5,174z M140.2,159.1c-3.8-1.6-7.1-3.9-9.9-6.7c-2.8-2.8-5-6.1-6.7-9.9
		c-1.6-3.8-2.4-7.8-2.4-12.1c0-4.3,0.8-8.4,2.4-12.2c1.6-3.8,3.8-7.1,6.7-9.9c2.8-2.8,6.1-5.1,9.9-6.7c3.8-1.6,7.8-2.5,12.2-2.5
		c4.3,0,8.3,0.8,12.1,2.5c3.8,1.6,7.1,3.9,9.9,6.7s5.1,6.1,6.7,9.9c1.6,3.8,2.5,7.8,2.5,12.2c0,4.3-0.8,8.3-2.5,12.1
		c-1.6,3.8-3.9,7.1-6.7,9.9c-2.8,2.8-6.1,5.1-9.9,6.7c-3.8,1.6-7.8,2.5-12.1,2.5C148,161.6,143.9,160.8,140.2,159.1z M142.4,106.9
		c-3.1,1.3-5.8,3.1-8.1,5.5c-2.3,2.3-4.1,5-5.5,8.1c-1.3,3.1-2,6.4-2,10c0,3.5,0.7,6.8,2,9.9s3.2,5.8,5.5,8.1c2.3,2.3,5,4.1,8.1,5.5
		c3.1,1.3,6.4,2,9.9,2c3.5,0,6.8-0.7,9.9-2c3.1-1.3,5.8-3.1,8.1-5.5s4.1-5,5.5-8.1c1.3-3.1,2-6.4,2-9.9c0-3.5-0.7-6.9-2-10
		c-1.3-3.1-3.2-5.8-5.5-8.1s-5-4.1-8.1-5.5c-3.1-1.3-6.4-2-9.9-2C148.8,104.9,145.5,105.6,142.4,106.9z"/>
</g>
</svg>
