<?xml version="1.0" encoding="utf-8"?>
<!-- Generator: Adobe Illustrator 18.0.0, SVG Export Plug-In . SVG Version: 6.00 Build 0)  -->
<!DOCTYPE svg PUBLIC "-//W3C//DTD SVG 1.1//EN" "http://www.w3.org/Graphics/SVG/1.1/DTD/svg11.dtd">
<svg version="1.1" id="Livello_1" xmlns="http://www.w3.org/2000/svg" xmlns:xlink="http://www.w3.org/1999/xlink" x="0px" y="0px"
	 viewBox="0 0 1920 1200" enable-background="new 0 0 1920 1200" xml:space="preserve">
<rect x="0" y="0" fill="#198FCF" width="1920" height="1200"/>
<g>
	<path fill="#282828" d="M1508,353.8l-446.9,0.8c-25.3,0-43.8,6.7-50.6,19.4c-6.7,11.8-3.4,32,9.3,54l223.4,386.1
		c12.6,21.9,27.8,34.6,42.2,34.6s29.5-12.6,42.2-34.6l222.6-387c12.6-21.9,16-41.3,8.4-54C1551.9,360.6,1533.3,353.8,1508,353.8z"/>
	<path fill="#282828" d="M678.4,386.7c-11.8-21.9-27.8-34.6-41.3-34.6c-14.3,0-29.5,12.6-42.2,34.6L370.7,772.8
		c-12.6,21.9-16,41.3-9.3,54c6.7,11.8,25.3,19.4,50.6,19.4l446.9,0.8c25.3,0,43.8-6.7,50.6-19.4c6.7-11.8,4.2-32-8.4-54L678.4,386.7
		z"/>
	<path fill="#282828" d="M1606.7,0H313.3c-146.4,157.6-236,368.6-236,600s89.7,442.4,236,600h1293.4c146.4-157.6,236-368.6,236-600
		S1753.1,157.6,1606.7,0z M975.2,864.7c-21.9,35.4-63.2,56.5-115.5,56.5l-446.9-0.8c-52.3,0-94.4-21.1-114.7-56.5
		s-16.9-82.6,9.3-127.3l224.3-386.1c26.1-45.5,64.9-71.7,106.2-71.7s80.1,26.1,106.2,71.7l222.6,387
		C992.9,783,996.3,829.3,975.2,864.7z M1392.5,850.4c-27.8,45.5-65.8,71.7-107.1,71.7c-41.3,0-80.1-26.1-106.2-71.7L955.8,464.3
		c-26.1-45.5-29.5-91.9-9.3-127.3c20.2-35.4,62.4-56.5,114.7-56.5l446.9-0.8c52.3,0,94.4,20.2,115.5,56.5
		c20.2,35.4,17.7,82.6-8.4,127.3L1392.5,850.4z"/>
	<path fill="#282828" d="M3.1,600C3.1,373,82.5,164.2,215,0H0v1200h215C82.5,1035.8,3.1,827,3.1,600z"/>
	<path fill="#282828" d="M1705,0c132.5,164.2,211.9,373,211.9,600s-79.4,435.8-211.9,600h215V0H1705z"/>
</g>
</svg>
