<?xml version="1.0" encoding="utf-8"?>
<!-- Generator: Adobe Illustrator 18.0.0, SVG Export Plug-In . SVG Version: 6.00 Build 0)  -->
<!DOCTYPE svg PUBLIC "-//W3C//DTD SVG 1.1//EN" "http://www.w3.org/Graphics/SVG/1.1/DTD/svg11.dtd">
<svg version="1.1" id="Livello_1" xmlns="http://www.w3.org/2000/svg" xmlns:xlink="http://www.w3.org/1999/xlink" x="0px" y="0px"
	 viewBox="0 0 1280 720" enable-background="new 0 0 1280 720" xml:space="preserve">
<g>
	<path fill="#198FCF" d="M635.2,719.4c-1.4-0.5-3-1-4.4-1.9c-1-0.5-6.6-4.2-16.7-11c-10.1-6.8-23.2-16.2-39.4-28.4
		c-16.2-12.1-34.5-26.9-54.9-44.3c-20.4-17.4-41.4-36.8-62.9-58.3c-12.9-13-24.9-25.9-36.3-38.9c-11.3-13-22-25.9-32.2-38.9
		c-10.1-13-19.5-26-28.3-39.1c-8.7-13.1-16.7-26.1-23.9-39.1c-9.5-16.5-17.6-33-24.8-49.8c-7.1-16.7-12.9-33.2-17.5-49.6
		c-4.7-16.4-8.2-32.9-10.5-49.2s-3.5-32.6-3.5-48.6c0-30.6,5.2-59.4,15.8-86.4s24.7-50.6,42.8-70.7s39.1-36.1,63.1-47.8
		C425.6,5.8,451.4,0,479.1,0c9.1,0,18.5,1,27.9,2.9c9.5,1.9,18.9,4.8,28.3,8.5S554,19.6,563.1,25c9.2,5.4,18.2,11.6,26.8,18.8
		c10.1,8.3,19.4,17.3,27.7,27.1s15.8,19.9,22.2,30.4c6.2-10.4,13.5-20.6,22-30.4c8.6-9.8,17.8-18.8,27.9-27.1
		c8.6-7.2,17.5-13.4,26.6-18.8c9.1-5.4,18.4-9.9,27.7-13.7c9.4-3.7,18.8-6.6,28.3-8.5C782,1,791.4,0,800.7,0
		c27.4,0,53.2,5.8,77.3,17.6c24.2,11.7,45.3,27.6,63.3,47.8s32.2,43.7,42.8,70.7c10.5,27,15.8,55.8,15.8,86.4
		c0,16-1.3,32.2-3.7,48.6c-2.4,16.4-6,32.8-10.7,49.2c-4.7,16.4-10.4,32.9-17.4,49.6s-15,33.3-24.4,49.9c-7.4,13-15.4,26-24,39.1
		c-8.6,13.1-18,26.1-28.1,39.1s-20.9,25.9-32.4,38.9c-11.4,13-23.5,25.9-36.1,38.9c-21.4,21.5-42.4,41-62.9,58.3
		c-20.4,17.4-38.8,32.1-54.9,44.3c-16.2,12.2-29.3,21.6-39.6,28.4c-10.3,6.8-15.8,10.4-16.5,11c-1.4,0.8-3.1,1.4-4.6,1.9
		c-1.6,0.4-3.1,0.6-4.6,0.6C638.3,720,636.7,719.8,635.2,719.4z"/>
</g>
</svg>
