<?xml version="1.0" encoding="utf-8"?>
<!-- Generator: Adobe Illustrator 18.0.0, SVG Export Plug-In . SVG Version: 6.00 Build 0)  -->
<!DOCTYPE svg PUBLIC "-//W3C//DTD SVG 1.1//EN" "http://www.w3.org/Graphics/SVG/1.1/DTD/svg11.dtd">
<svg version="1.1" id="Livello_1" xmlns="http://www.w3.org/2000/svg" xmlns:xlink="http://www.w3.org/1999/xlink" x="0px" y="0px"
	 viewBox="0 0 227 227" enable-background="new 0 0 227 227" xml:space="preserve">
<g>
	<g>
		<path fill="#232323" d="M113.5,227C50.9,227,0,176.1,0,113.5C0,50.9,50.9,0,113.5,0C176.1,0,227,50.9,227,113.5
			C227,176.1,176.1,227,113.5,227L113.5,227z M113.5,8.8C55.8,8.8,8.8,55.8,8.8,113.5c0,57.7,47,104.7,104.7,104.7
			c57.7,0,104.7-47,104.7-104.7C218.2,55.8,171.2,8.8,113.5,8.8L113.5,8.8z"/>
	</g>
	<g>
		<path fill="#198FCF" d="M152.1,151.7c-4.9,0-9.5-3.1-12.6-8.5l-26.5-45.8c-3.1-5.4-3.5-10.9-1.1-15.1c2.4-4.2,7.4-6.7,13.6-6.7
			l53-0.1c6.2,0,11.2,2.4,13.7,6.7c2.4,4.2,2.1,9.8-1,15.1l-26.4,45.9C161.5,148.6,157,151.7,152.1,151.7L152.1,151.7z M178.5,84.3
			l-53,0.1c-3,0-5.2,0.8-6,2.3c-0.8,1.4-0.4,3.8,1.1,6.4l26.5,45.8c1.5,2.6,3.3,4.1,5,4.1s3.5-1.5,5-4.1l26.4-45.9
			c1.5-2.6,1.9-4.9,1-6.4C183.7,85.1,181.5,84.3,178.5,84.3L178.5,84.3z"/>
	</g>
	<g>
		<path fill="#232323" d="M101.6,151.6L101.6,151.6l-53-0.1c-6.2,0-11.2-2.5-13.6-6.7c-2.4-4.2-2-9.8,1.1-15.1l26.6-45.8
			c3.1-5.4,7.7-8.5,12.6-8.5c4.9,0,9.5,3.1,12.6,8.5l26.4,45.9c3.1,5.4,3.5,10.9,1,15.1C112.7,149.1,107.8,151.6,101.6,151.6
			L101.6,151.6z M75.2,84.1c-1.7,0-3.5,1.5-5,4.1L43.6,134c-1.5,2.6-1.9,4.9-1.1,6.4c0.8,1.4,3,2.3,6,2.3l53,0.1l0,4.4v-4.4
			c3,0,5.2-0.8,6-2.3c0.8-1.4,0.5-3.8-1-6.4L80.1,88.2C78.7,85.6,76.8,84.1,75.2,84.1L75.2,84.1z"/>
	</g>
</g>
</svg>
