<?xml version="1.0" encoding="utf-8"?>
<!-- Generator: Adobe Illustrator 18.0.0, SVG Export Plug-In . SVG Version: 6.00 Build 0)  -->
<!DOCTYPE svg PUBLIC "-//W3C//DTD SVG 1.1//EN" "http://www.w3.org/Graphics/SVG/1.1/DTD/svg11.dtd">
<svg version="1.1" id="Livello_1" xmlns="http://www.w3.org/2000/svg" xmlns:xlink="http://www.w3.org/1999/xlink" x="0px" y="0px"
	 viewBox="0 0 473.6 225.5" enable-background="new 0 0 473.6 225.5" xml:space="preserve">
<g>
	<g>
		<path fill="#198FCF" d="M350.6,225.5c-14.4,0-28-9.1-37.2-25L235,65.1c-9.2-15.9-10.3-32.2-3.1-44.7c7.2-12.5,21.9-19.7,40.3-19.7
			l156.4-0.2c18.4,0,33.1,7.2,40.3,19.7c7.2,12.5,6.1,28.8-3,44.7l-78,135.5C378.6,216.4,365.1,225.5,350.6,225.5L350.6,225.5z
			 M428.7,26.4l-156.5,0.2c-8.8,0-15.3,2.5-17.8,6.7c-2.5,4.3-1.3,11.1,3.1,18.8l78.4,135.4c4.4,7.7,9.8,12,14.7,12
			s10.3-4.4,14.7-12.1l78-135.6c4.4-7.7,5.5-14.5,3.1-18.8C444,28.9,437.5,26.4,428.7,26.4L428.7,26.4z"/>
	</g>
	<g>
		<path fill="#198FCF" d="M201.5,225.1h-0.2l-156.4-0.3c-18.4,0-33-7.3-40.2-19.8c-7.2-12.5-6-28.8,3.2-44.7L86.4,25
			c9.2-15.9,22.8-25,37.2-25c14.5,0,28.1,9.2,37.2,25.1l77.9,135.6c9.1,15.9,10.2,32.2,3,44.7C234.4,217.9,219.8,225.1,201.5,225.1
			L201.5,225.1z M123.5,26c-4.9,0-10.3,4.4-14.7,12L30.3,173.3c-4.4,7.7-5.6,14.5-3.1,18.8c2.5,4.3,8.9,6.7,17.8,6.8l156.4,0.3
			l0.1,13v-13c8.8,0,15.3-2.4,17.7-6.7c2.5-4.3,1.4-11.1-3-18.8L138.3,38.1C133.8,30.4,128.5,26,123.5,26L123.5,26z"/>
	</g>
</g>
</svg>
