<?xml version="1.0" encoding="utf-8"?>
<!-- Generator: Adobe Illustrator 18.0.0, SVG Export Plug-In . SVG Version: 6.00 Build 0)  -->
<!DOCTYPE svg PUBLIC "-//W3C//DTD SVG 1.1//EN" "http://www.w3.org/Graphics/SVG/1.1/DTD/svg11.dtd">
<svg version="1.1" id="Livello_1" xmlns="http://www.w3.org/2000/svg" xmlns:xlink="http://www.w3.org/1999/xlink" x="0px" y="0px"
	 viewBox="0 0 374.2 178.6" enable-background="new 0 0 374.2 178.6" xml:space="preserve">
<g>
	<g>
		<path fill="#232323" d="M276.4,177.8c-11.3,0-22-7.1-29.2-19.6L185.7,51.9c-7.2-12.5-8.1-25.3-2.5-35.1
			c5.7-9.8,17.2-15.5,31.6-15.5l122.7-0.1c14.5,0,26,5.6,31.6,15.4c5.7,9.8,4.8,22.6-2.4,35.1l-61.2,106.4
			C298.4,170.6,287.7,177.8,276.4,177.8L276.4,177.8z M337.6,21.6l-122.8,0.1c-6.9,0-12,1.9-14,5.3c-1.9,3.4-1,8.7,2.4,14.7
			l61.5,106.2c3.5,6,7.7,9.4,11.6,9.4s8.1-3.5,11.5-9.5l61.2-106.4c3.5-6,4.3-11.4,2.4-14.7C349.6,23.5,344.5,21.6,337.6,21.6
			L337.6,21.6z"/>
	</g>
	<g>
		<path fill="#232323" d="M159.4,177.5h-0.1l-122.7-0.3c-14.4,0-25.9-5.7-31.6-15.5c-5.6-9.8-4.7-22.6,2.5-35.1L69,20.4
			C76.3,8,86.9,0.8,98.2,0.8c11.4,0,22,7.2,29.2,19.7L188.5,127c7.2,12.5,8,25.3,2.4,35.1C185.2,171.8,173.7,177.5,159.4,177.5
			L159.4,177.5z M98.2,21.2c-3.9,0-8.1,3.4-11.6,9.4L25.1,136.8c-3.5,6-4.4,11.4-2.5,14.7c1.9,3.4,7,5.3,14,5.3l122.7,0.3l0.1,10.2
			v-10.2c6.9,0,12-1.9,13.9-5.2c1.9-3.3,1.1-8.7-2.4-14.7L109.8,30.7C106.3,24.7,102.1,21.2,98.2,21.2L98.2,21.2z"/>
	</g>
</g>
</svg>
