<?xml version="1.0" encoding="utf-8"?>
<!-- Generator: Adobe Illustrator 18.0.0, SVG Export Plug-In . SVG Version: 6.00 Build 0)  -->
<!DOCTYPE svg PUBLIC "-//W3C//DTD SVG 1.1//EN" "http://www.w3.org/Graphics/SVG/1.1/DTD/svg11.dtd">
<svg version="1.1" id="Livello_1" xmlns="http://www.w3.org/2000/svg" xmlns:xlink="http://www.w3.org/1999/xlink" x="0px" y="0px"
	 viewBox="0 0 466 466" enable-background="new 0 0 466 466" xml:space="preserve">
<g>
	<g>
		<path fill="#313131" d="M233,465.8C104.6,465.8,0.1,361.4,0.1,233C0.1,104.6,104.6,0.2,233,0.2c128.4,0,232.9,104.5,232.9,232.8
			C465.9,361.4,361.4,465.8,233,465.8L233,465.8z M233,18.2C114.5,18.2,18.2,114.6,18.2,233c0,118.5,96.4,214.8,214.8,214.8
			c118.5,0,214.8-96.4,214.8-214.8C447.8,114.6,351.5,18.2,233,18.2L233,18.2z"/>
	</g>
	<g>
		<path fill="#313131" d="M312.1,311.3c-10,0-19.5-6.3-25.8-17.4l-54.4-94c-6.4-11-7.2-22.4-2.2-31.1c5-8.7,15.2-13.7,28-13.7
			l108.7-0.1c12.8,0,23,5,28,13.7c5,8.7,4.3,20-2.1,31.1l-54.2,94.2C331.5,305,322.1,311.3,312.1,311.3L312.1,311.3z M366.3,173
			l-108.7,0.1c-6.1,0-10.7,1.7-12.4,4.7c-1.7,3-0.9,7.7,2.2,13l54.4,94c3.1,5.3,6.8,8.4,10.2,8.4c3.4,0,7.2-3.1,10.2-8.4l54.2-94.2
			c3.1-5.3,3.8-10.1,2.1-13C376.9,174.7,372.4,173,366.3,173L366.3,173z"/>
	</g>
	<g>
		<path fill="#313131" d="M208.5,311.1h-0.1l-108.7-0.2c-12.8,0-23-5-28-13.7c-5-8.7-4.2-20,2.2-31.1l54.5-94
			c6.4-11,15.8-17.3,25.8-17.3c10.1,0,19.5,6.4,25.9,17.5l54.1,94.2c6.3,11.1,7.1,22.4,2.1,31.1
			C231.4,306.1,221.2,311.1,208.5,311.1L208.5,311.1z M154.3,172.7c-3.4,0-7.1,3-10.2,8.4l-54.5,94c-3.1,5.3-3.9,10.1-2.2,13
			c1.7,3,6.2,4.7,12.4,4.7l108.7,0.2l0.1,9v-9c6.1,0,10.6-1.7,12.3-4.6c1.7-3,0.9-7.7-2.1-13l-54.1-94.2
			C161.5,175.8,157.8,172.7,154.3,172.7L154.3,172.7z"/>
	</g>
</g>
</svg>
