<?xml version="1.0" encoding="utf-8"?>
<!-- Generator: Adobe Illustrator 23.0.2, SVG Export Plug-In . SVG Version: 6.00 Build 0)  -->
<svg version="1.1" id="Layer_1" xmlns="http://www.w3.org/2000/svg" xmlns:xlink="http://www.w3.org/1999/xlink" x="0px" y="0px"
	 viewBox="0 0 595.28 60.58" style="enable-background:new 0 0 595.28 60.58;" xml:space="preserve">
<style type="text/css">
	.st0{fill:#FFFFFF;}
	.st1{fill:#555454;}
	.st2{fill:#1D8FCF;}
</style>
<rect y="-2.45" class="st0" width="595.28" height="63.02"/>
<g>
	<g>
		<path class="st1" d="M563.22,60.58c-17.38,0-31.51-14.13-31.51-31.51s14.13-31.51,31.51-31.51s31.51,14.13,31.51,31.51
			S580.6,60.58,563.22,60.58L563.22,60.58z M563.22,0c-16.02,0-29.06,13.04-29.06,29.06s13.04,29.06,29.06,29.06
			s29.06-13.06,29.06-29.06S579.23,0,563.22,0L563.22,0z"/>
	</g>
	<g>
		<path class="st2" d="M573.93,39.66c-1.35,0-2.63-0.85-3.5-2.35l-7.35-12.71c-0.85-1.5-0.96-3.02-0.3-4.19
			c0.67-1.17,2.06-1.85,3.78-1.85l14.71-0.02c1.72,0,3.11,0.67,3.8,1.85c0.67,1.17,0.57,2.72-0.28,4.19l-7.32,12.73
			C576.54,38.81,575.3,39.66,573.93,39.66L573.93,39.66z M581.27,20.95l-14.71,0.02c-0.83,0-1.44,0.22-1.67,0.63
			c-0.22,0.39-0.11,1.06,0.3,1.78l7.35,12.71c0.41,0.72,0.91,1.13,1.39,1.13c0.46,0,0.96-0.41,1.39-1.13l7.34-12.74
			c0.41-0.72,0.52-1.35,0.28-1.78C582.71,21.17,582.1,20.95,581.27,20.95L581.27,20.95z"/>
	</g>
	<g>
		<path class="st1" d="M559.91,39.64L559.91,39.64l-14.71-0.04c-1.72,0-3.11-0.69-3.78-1.85c-0.67-1.17-0.56-2.72,0.3-4.19
			l7.41-12.73c0.85-1.5,2.13-2.35,3.5-2.35c1.35,0,2.63,0.85,3.5,2.35l7.34,12.74c0.85,1.5,0.96,3.02,0.28,4.19
			C563,38.94,561.63,39.64,559.91,39.64L559.91,39.64z M552.59,20.9c-0.46,0-0.96,0.41-1.39,1.13l-7.39,12.71
			c-0.41,0.72-0.52,1.35-0.3,1.78c0.22,0.39,0.83,0.63,1.67,0.63l14.71,0.02v1.22V37.2c0.83,0,1.44-0.22,1.67-0.63
			c0.22-0.39,0.13-1.06-0.28-1.78l-7.34-12.74C553.55,21.32,553.03,20.9,552.59,20.9L552.59,20.9z"/>
	</g>
</g>
</svg>
