<?xml version="1.0" encoding="utf-8"?>
<!-- Generator: Adobe Illustrator 18.0.0, SVG Export Plug-In . SVG Version: 6.00 Build 0)  -->
<!DOCTYPE svg PUBLIC "-//W3C//DTD SVG 1.1//EN" "http://www.w3.org/Graphics/SVG/1.1/DTD/svg11.dtd">
<svg version="1.1" id="Livello_1" xmlns="http://www.w3.org/2000/svg" xmlns:xlink="http://www.w3.org/1999/xlink" x="0px" y="0px"
	 viewBox="0 0 340.2 340.2" enable-background="new 0 0 340.2 340.2" xml:space="preserve">
<g>
	<g>
		<path fill="#545454" d="M170.1,340.2C76.3,340.2,0,263.9,0,170.1S76.3,0,170.1,0s170.1,76.3,170.1,170.1S263.9,340.2,170.1,340.2
			L170.1,340.2z M170.1,13.2c-86.5,0-156.9,70.4-156.9,156.9S83.6,327,170.1,327S327,256.5,327,170.1S256.5,13.2,170.1,13.2
			L170.1,13.2z"/>
	</g>
	<g>
		<path fill="#198FCF" d="M227.9,227.3c-7.3,0-14.2-4.6-18.9-12.7L169.3,146c-4.6-8.1-5.2-16.3-1.6-22.6s11.1-10,20.4-10l79.4-0.1
			c9.3,0,16.8,3.6,20.5,10c3.6,6.3,3.1,14.7-1.5,22.6L247,214.6C242,222.7,235.3,227.3,227.9,227.3L227.9,227.3z M267.5,126.3
			l-79.4,0.1c-4.5,0-7.8,1.2-9,3.4c-1.2,2.1-0.6,5.7,1.6,9.6l39.7,68.6c2.2,3.9,4.9,6.1,7.5,6.1c2.5,0,5.2-2.2,7.5-6.1l39.6-68.8
			c2.2-3.9,2.8-7.3,1.5-9.6C275.3,127.5,272,126.3,267.5,126.3L267.5,126.3z"/>
	</g>
	<g>
		<path fill="#545454" d="M152.2,227.2L152.2,227.2L72.8,227c-9.3,0-16.8-3.7-20.4-10c-3.6-6.3-3-14.7,1.6-22.6L94,125.7
			c4.6-8.1,11.5-12.7,18.9-12.7c7.3,0,14.2,4.6,18.9,12.7l39.6,68.8c4.6,8.1,5.2,16.3,1.5,22.6C168.9,223.4,161.5,227.2,152.2,227.2
			L152.2,227.2z M112.7,126c-2.5,0-5.2,2.2-7.5,6.1l-39.9,68.6c-2.2,3.9-2.8,7.3-1.6,9.6c1.2,2.1,4.5,3.4,9,3.4l79.4,0.1v6.6V214
			c4.5,0,7.8-1.2,9-3.4c1.2-2.1,0.7-5.7-1.5-9.6L120,132.2C117.9,128.3,115.1,126,112.7,126L112.7,126z"/>
	</g>
</g>
</svg>
