<?xml version="1.0" encoding="utf-8"?>
<!-- Generator: Adobe Illustrator 18.0.0, SVG Export Plug-In . SVG Version: 6.00 Build 0)  -->
<!DOCTYPE svg PUBLIC "-//W3C//DTD SVG 1.1//EN" "http://www.w3.org/Graphics/SVG/1.1/DTD/svg11.dtd">
<svg version="1.1" id="Livello_1" xmlns="http://www.w3.org/2000/svg" xmlns:xlink="http://www.w3.org/1999/xlink" x="0px" y="0px"
	 viewBox="0 0 356 356" enable-background="new 0 0 356 356" xml:space="preserve">
<g>
	<g>
		<path fill="#5E5E5E" d="M178,356C79.9,356,0,276.1,0,178C0,79.9,79.9,0,178,0c98.1,0,178,79.8,178,178
			C356,276.1,276.1,356,178,356L178,356z M178,13.8C87.5,13.8,13.8,87.5,13.8,178c0,90.5,73.7,164.2,164.2,164.2
			c90.5,0,164.2-73.7,164.2-164.2C342.2,87.5,268.5,13.8,178,13.8L178,13.8z"/>
	</g>
	<g>
		<path fill="#198FCF" d="M238.4,237.9c-7.7,0-14.9-4.8-19.8-13.3l-41.6-71.9c-4.9-8.4-5.5-17.1-1.7-23.8
			c3.8-6.7,11.6-10.5,21.4-10.5l83-0.1c9.8,0,17.6,3.8,21.4,10.4c3.8,6.6,3.3,15.3-1.6,23.7l-41.4,72
			C253.3,233,246.1,237.9,238.4,237.9L238.4,237.9z M279.9,132.2l-83.1,0.1c-4.7,0-8.1,1.3-9.4,3.6c-1.3,2.3-0.7,5.9,1.7,10
			l41.6,71.9c2.3,4.1,5.2,6.4,7.8,6.4s5.5-2.3,7.8-6.4l41.4-72c2.3-4.1,2.9-7.7,1.6-10C288,133.5,284.6,132.2,279.9,132.2
			L279.9,132.2z"/>
	</g>
	<g>
		<path fill="#5E5E5E" d="M159.3,237.7L159.3,237.7l-83.1-0.2c-9.8,0-17.5-3.9-21.4-10.5c-3.8-6.7-3.2-15.3,1.7-23.8l41.7-71.8
			c4.9-8.4,12.1-13.3,19.7-13.3c7.7,0,14.9,4.9,19.8,13.3l41.4,72c4.9,8.5,5.4,17.1,1.6,23.7C176.8,233.9,169,237.7,159.3,237.7
			L159.3,237.7z M117.9,131.9c-2.6,0-5.5,2.3-7.8,6.4l-41.7,71.8c-2.4,4.1-3,7.7-1.7,10c1.3,2.3,4.7,3.6,9.4,3.6l83,0.2l0.1,6.9
			v-6.9c4.7,0,8.1-1.3,9.4-3.6c1.3-2.3,0.7-5.9-1.6-10l-41.4-72C123.3,134.3,120.5,131.9,117.9,131.9L117.9,131.9z"/>
	</g>
</g>
</svg>
