<?xml version="1.0" encoding="utf-8"?>
<!-- Generator: Adobe Illustrator 18.0.0, SVG Export Plug-In . SVG Version: 6.00 Build 0)  -->
<!DOCTYPE svg PUBLIC "-//W3C//DTD SVG 1.1//EN" "http://www.w3.org/Graphics/SVG/1.1/DTD/svg11.dtd">
<svg version="1.1" id="Layer_1" xmlns="http://www.w3.org/2000/svg" xmlns:xlink="http://www.w3.org/1999/xlink" x="0px" y="0px"
	 viewBox="75.4 507.5 1190.6 486.6" enable-background="new 75.4 507.5 1190.6 486.6" xml:space="preserve">
<g>
	<path fill="#198FCF" d="M401.4,832.5c-10.4,0-20.3-6.7-27-18.2L317.6,716c-6.7-11.5-7.5-23.3-2.4-32.4c5.4-9.1,15.8-14.5,29.2-14.5
		l113.5-0.3c13.4,0,24.1,5.1,29.2,14.2c5.4,9.1,4.6,20.9-2.1,32.4l-56.5,98.2C421.8,826.1,411.8,832.5,401.4,832.5 M457.9,688.2
		H344.4c-6.4,0-11.2,1.9-12.8,4.8c-1.9,3.2-1.1,8,2.1,13.7l56.7,98.2c3.2,5.6,7.2,8.8,10.7,8.8s7.5-3.2,10.7-8.8l56.7-98.2
		c3.2-5.6,4-10.4,2.1-13.7C469.1,689.8,464.3,688.2,457.9,688.2"/>
	<g>
		<path fill="#FFFFFF" d="M318.7,507.5c-134.1,0-243.3,109.2-243.3,243.3s108.9,243.3,243.3,243.3c134.1,0,243.3-109.2,243.3-243.3
			S452.8,507.5,318.7,507.5z M318.7,975.1C195,975.1,94.4,874.5,94.4,750.8S195,526.5,318.7,526.5S543,627.2,543,750.8
			S442.4,975.1,318.7,975.1z"/>
		<path fill="#FFFFFF" d="M263.6,687.1c-6.7-11.5-16.6-18.2-27-18.2c-10.4,0-20.3,6.7-27,17.9l-57,98.2c-6.7,11.5-7.5,23.3-2.4,32.4
			c5.4,9.1,15.8,14.2,29.2,14.5l113.5,0.3l0,0c13.4,0,23.8-5.1,29.2-14.2c5.1-9.1,4.6-20.9-2.1-32.4L263.6,687.1z M305.9,808.7
			c-1.9,3.2-6.4,4.8-12.8,4.8v9.4v-9.4l-113.5-0.3c-6.4,0-11.2-1.9-12.8-4.8c-1.9-3.2-0.8-8,2.4-13.7l57-98.2
			c3.2-5.6,7.2-8.8,10.7-8.8s7.5,3.2,10.7,8.8L304,795C306.9,800.6,307.7,805.4,305.9,808.7z"/>
		<path fill="#FFFFFF" d="M734.1,669.7h-84.8c-10.2,0.3-22.5,5.4-23.6,27.8v133.3h19.8V697c-0.3-3.7,0-6.4,1.6-8
			c1.9-1.9,5.4-2.4,10.4-1.6h69.1h0.5c4.6-0.8,7.8-0.3,9.1,1.6c1.3,1.6,1.6,5.1,0.5,9.6v132.2h20.3v-132c1.3-9.6,0-17.1-4.3-22.2
			C748.8,672.2,742.7,669.7,734.1,669.7z"/>
		<path fill="#FFFFFF" d="M922.5,673.8c-2.7-3.2-7-4.8-12.6-4.8h-92.1h-0.5c-9.4,0-16.1,2.1-20.1,6.7c-3.2,3.7-4.6,8.8-3.5,15.5
			v111.1c1.1,22.5,13.4,27.6,23.6,27.6h87c0.5,0,1.1,0,1.6,0c6.7,0,11.5-1.9,15-5.9c4.3-4.8,5.6-12.6,4.3-23.3V690.9
			C926.6,683.1,925.8,677.5,922.5,673.8z M825.9,812.4h-0.5c-4.6,0.8-7.8,0.3-9.6-1.6c-1.9-1.9-2.7-5.6-2.4-10.7V693
			c-0.3-3.2,0-5.4,1.1-6.7c1.1-1.1,2.7-1.6,5.1-1.6c1.6,0,3.2,0.3,5.1,0.5h0.3h69.6c4.3-0.5,7.2,0,8.8,1.6c1.1,1.3,1.6,3.7,1.1,7.2
			v106.3v0.5c1.1,4.6,0.8,7.8-0.5,9.6c-1.1,1.3-2.9,1.9-5.6,1.9c-1.1,0-2.1,0-3.5-0.3L825.9,812.4z"/>
		<path fill="#FFFFFF" d="M1075.9,667.9h-91.8c-10.7,0.3-23.6,5.4-24.9,27.8v111.3c0.5,14.5,8.6,21.9,23.3,21.9c0.8,0,1.3,0,1.9,0
			h8.3c12.8,0,22.5-4.8,28.9-14.2l37.2-61.3l33.5-56.2c4.8-9.9,5.4-17.1,2.1-22.2C1091.7,670.3,1085.3,667.9,1075.9,667.9z
			 M978.8,695.7c-0.5-4-0.3-7,1.1-8.6c1.3-1.6,3.7-2.4,7.2-2.4c1.3,0,2.9,0.3,4.8,0.5h0.3h71.7c1.1,0,1.9,0,2.7,0
			c3.5,0,5.4,0.8,5.6,1.3c0.3,0.3,0.8,2.4-3.5,8.6l-62.6,108.7c-4,5.9-8.6,8.6-14.2,8.6h-0.5c-5.6,1.1-9.4,0.8-11.2-1.1
			c-1.3-1.3-1.6-3.5-1.3-7V696V695.7z"/>
		<path fill="#FFFFFF" d="M1160.8,812.4h-0.5c-5.1,1.1-8.8,0.8-10.4-1.1c-1.3-1.3-1.6-3.5-1.3-7V695.7c-0.5-4,0-7,1.3-8.8
			c1.9-2.1,5.6-2.7,11.2-1.9h0.3h69.1c0.8,0,1.9,0,2.7,0c3.5,0,4.8,0.8,5.4,1.3c0.3,0.3,0.8,2.4-3.5,8.8l-33.5,59.7h21.9l32.7-57.5
			c4.6-9.9,5.1-17.4,1.9-22.5c-2.9-4.6-9.1-7-17.9-7h-87.3c-10.2,0.3-22.5,5.4-23.6,27.8v111.3c0.3,14.5,8,21.9,22.2,21.9
			c0.5,0,1.3,0,1.9,0H1266v-16.3L1160.8,812.4L1160.8,812.4z"/>
	</g>
</g>
</svg>
