<?xml version="1.0" encoding="utf-8"?>
<!-- Generator: Adobe Illustrator 23.0.2, SVG Export Plug-In . SVG Version: 6.00 Build 0)  -->
<svg version="1.1" id="Layer_1" xmlns="http://www.w3.org/2000/svg" xmlns:xlink="http://www.w3.org/1999/xlink" x="0px" y="0px"
	 viewBox="0 0 1190.6 486.6" style="enable-background:new 0 0 1190.6 486.6;" xml:space="preserve">
<style type="text/css">
	.st0{fill:#198FCF;}
</style>
<g>
	<path class="st0" d="M326,325c-10.4,0-20.3-6.7-27-18.2l-56.8-98.3c-6.7-11.5-7.5-23.3-2.4-32.4c5.4-9.1,15.8-14.5,29.2-14.5
		l113.5-0.3c13.4,0,24.1,5.1,29.2,14.2c5.4,9.1,4.6,20.9-2.1,32.4l-56.5,98.2C346.4,318.6,336.4,325,326,325 M382.5,180.7H269
		c-6.4,0-11.2,1.9-12.8,4.8c-1.9,3.2-1.1,8,2.1,13.7l56.7,98.2c3.2,5.6,7.2,8.8,10.7,8.8s7.5-3.2,10.7-8.8l56.7-98.2
		c3.2-5.6,4-10.4,2.1-13.7C393.7,182.3,388.9,180.7,382.5,180.7"/>
	<g>
		<path d="M243.3,0C109.2,0,0,109.2,0,243.3s108.9,243.3,243.3,243.3c134.1,0,243.3-109.2,243.3-243.3S377.4,0,243.3,0z
			 M243.3,467.6C119.6,467.6,19,367,19,243.3S119.6,19,243.3,19s224.3,100.7,224.3,224.3S367,467.6,243.3,467.6z"/>
		<path d="M188.2,179.6c-6.7-11.5-16.6-18.2-27-18.2s-20.3,6.7-27,17.9l-57,98.2c-6.7,11.5-7.5,23.3-2.4,32.4
			c5.4,9.1,15.8,14.2,29.2,14.5l113.5,0.3l0,0c13.4,0,23.8-5.1,29.2-14.2c5.1-9.1,4.6-20.9-2.1-32.4L188.2,179.6z M230.5,301.2
			c-1.9,3.2-6.4,4.8-12.8,4.8v9.4V306l-113.5-0.3c-6.4,0-11.2-1.9-12.8-4.8c-1.9-3.2-0.8-8,2.4-13.7l57-98.2
			c3.2-5.6,7.2-8.8,10.7-8.8s7.5,3.2,10.7,8.8l56.4,98.5C231.5,293.1,232.3,297.9,230.5,301.2z"/>
		<path d="M658.7,162.2h-84.8c-10.2,0.3-22.5,5.4-23.6,27.8v133.3h19.8V189.5c-0.3-3.7,0-6.4,1.6-8c1.9-1.9,5.4-2.4,10.4-1.6h69.1
			h0.5c4.6-0.8,7.8-0.3,9.1,1.6c1.3,1.6,1.6,5.1,0.5,9.6v132.2h20.3v-132c1.3-9.6,0-17.1-4.3-22.2
			C673.4,164.7,667.3,162.2,658.7,162.2z"/>
		<path d="M847.1,166.3c-2.7-3.2-7-4.8-12.6-4.8h-92.1h-0.5c-9.4,0-16.1,2.1-20.1,6.7c-3.2,3.7-4.6,8.8-3.5,15.5v111.1
			c1.1,22.5,13.4,27.6,23.6,27.6h87c0.5,0,1.1,0,1.6,0c6.7,0,11.5-1.9,15-5.9c4.3-4.8,5.6-12.6,4.3-23.3V183.4
			C851.2,175.6,850.4,170,847.1,166.3z M750.5,304.9H750c-4.6,0.8-7.8,0.3-9.6-1.6c-1.9-1.9-2.7-5.6-2.4-10.7V185.5
			c-0.3-3.2,0-5.4,1.1-6.7c1.1-1.1,2.7-1.6,5.1-1.6c1.6,0,3.2,0.3,5.1,0.5h0.3h69.6c4.3-0.5,7.2,0,8.8,1.6c1.1,1.3,1.6,3.7,1.1,7.2
			v106.3v0.5c1.1,4.6,0.8,7.8-0.5,9.6c-1.1,1.3-2.9,1.9-5.6,1.9c-1.1,0-2.1,0-3.5-0.3L750.5,304.9z"/>
		<path d="M1000.5,160.4h-91.8c-10.7,0.3-23.6,5.4-24.9,27.8v111.3c0.5,14.5,8.6,21.9,23.3,21.9c0.8,0,1.3,0,1.9,0h8.3
			c12.8,0,22.5-4.8,28.9-14.2l37.2-61.3l33.5-56.2c4.8-9.9,5.4-17.1,2.1-22.2C1016.3,162.8,1009.9,160.4,1000.5,160.4z M903.4,188.2
			c-0.5-4-0.3-7,1.1-8.6c1.3-1.6,3.7-2.4,7.2-2.4c1.3,0,2.9,0.3,4.8,0.5h0.3h71.7c1.1,0,1.9,0,2.7,0c3.5,0,5.4,0.8,5.6,1.3
			c0.3,0.3,0.8,2.4-3.5,8.6l-62.6,108.7c-4,5.9-8.6,8.6-14.2,8.6H916c-5.6,1.1-9.4,0.8-11.2-1.1c-1.3-1.3-1.6-3.5-1.3-7V188.5
			L903.4,188.2L903.4,188.2z"/>
		<path d="M1085.4,304.9h-0.5c-5.1,1.1-8.8,0.8-10.4-1.1c-1.3-1.3-1.6-3.5-1.3-7V188.2c-0.5-4,0-7,1.3-8.8c1.9-2.1,5.6-2.7,11.2-1.9
			h0.3h69.1c0.8,0,1.9,0,2.7,0c3.5,0,4.8,0.8,5.4,1.3c0.3,0.3,0.8,2.4-3.5,8.8l-33.5,59.7h21.9l32.7-57.5c4.6-9.9,5.1-17.4,1.9-22.5
			c-2.9-4.6-9.1-7-17.9-7h-87.3c-10.2,0.3-22.5,5.4-23.6,27.8v111.3c0.3,14.5,8,21.9,22.2,21.9c0.5,0,1.3,0,1.9,0h112.6V305
			L1085.4,304.9L1085.4,304.9z"/>
	</g>
</g>
</svg>
