<svg id="Layer_1" data-name="Layer 1" xmlns="http://www.w3.org/2000/svg" viewBox="0 0 800 800"><defs><style>.cls-1{fill:#fff;}</style></defs><title>Artboard 1</title><path d="M528.45,64.48h-1.32v.44l-.88.44v.43h-.44v1.32h-.44v1.32L514.84,213.74,435.38,212l-47,4.83-.44.44h-.88l-.44.44h0v.44h-.44v.43l-.44.44v.88l-2.19,99.65-45.66-4.39V211.54l-.44-.44-.43-.44h0l-.44-.44-.88-.44L252.32,208l-3.51-103.6v-.88h0v-.88h-.44v-.44l-.44-.44h-.44l-.44-.44h-.44L179,90.82h-.88L93.4,97.4h-.87l-.88.44h0l-.44.44-.44.88-.44.88v.44l10.1,112.38a2.93,2.93,0,0,0,3.07,2.63l79,2.2,6.15,107.55.43.88v.44l.88.88h0l.88.43,86.48,10.54,1.32,63.22-21.51-3.52-.88-.44h-1.76l-.43.44L195.25,424l-.44.44v.44l-.44.44h0v.44l2.2,41.7-7-1.31v-.44h-2.19L127.65,496l-.88.44h0l-.44.44v.44l-.44.44h0v1.31l7,81.66v.43a4.39,4.39,0,0,0,1.76,2.2h.44l71.55,25c.88.88,1.76.44,2.64-.44l53.12-41.26h.44l.43-.88v-.88l.44-.44-.87-25,20.63,5.71h1.32l1.31-.44h.44l49.61-38.63h.44l.44-.88h.43V457.82l42.59,8.78-2.2,102.72h0v.88l.88,1.32h0l.88.44h.44v.43l106.67,29.42-7.46,99.65h0l.44,1.32h0a3.45,3.45,0,0,0,1.76,1.75L605.27,748H607l.44-.44h.44l.43-.44.44-.43.44-.44v-.44l18.44-70.68v-.44l13.61-97.46v-1.31l-.44-.44V575h0l-.44-.44-.44-.44h0l-.88-.44h-.87L524.94,546.49l8.34-97.89v-1.32h0l-.44-.88L532,446l-.44-.44h-.44L430.11,428l3.08-71.12,72.87,8.34.88.44h.44l1.31-.44.44-.44L541.62,341h0v-.43l.88-.44v-.44l.43-.88V338l9.22-110.63,122,3.08,2.2.44,1.32-.44h0l11.85-7,.88-.87h0v-.44l.44-.44v-.44L711.07,75.45l-.44-.44v-.87l-7.9-21.08-.88-.87-.44-.44H701v-.44h-1.31Z"/><path class="cls-1" d="M699.66,54.38,528.45,67.55l-11,155.84,158.92,4.39Z"/><path class="cls-1" d="M506.94,362.55l10.53-139.16-128.62-3.51-3.08,128.19Z"/><path class="cls-1" d="M489.82,599.61l-7.47,101.85,124.24,43.46,14.49-108.43Z"/><path class="cls-1" d="M489.82,599.61l8.34-112.38L383.14,464,381,569.32Z"/><path class="cls-1" d="M103.5,212.42l81.65,2.19L178.57,93.89,93.4,100.48Z"/><path class="cls-1" d="M197.45,426.21l5.26,93.07,81.66,23.26-1.76-99.21Z"/><path class="cls-1" d="M202.71,519.28,129,499.08l7,81.66,71.55,25Z"/><path class="cls-1" d="M385.77,348.07,280,335.34l2.63,108L383.14,464Z"/><path class="cls-1" d="M280,335.34l-2.2-118.09-92.63-2.64,6.59,110.19Z"/></svg>