<?xml version="1.0" encoding="utf-8"?>
<!-- Generator: Adobe Illustrator 25.0.1, SVG Export Plug-In . SVG Version: 6.00 Build 0)  -->
<svg version="1.1" id="Layer_1" xmlns="http://www.w3.org/2000/svg" xmlns:xlink="http://www.w3.org/1999/xlink" x="0px" y="0px"
	 viewBox="0 0 1280 720" style="enable-background:new 0 0 1280 720;" xml:space="preserve">
<style type="text/css">
	.st0{opacity:0.2;fill:#FFFFFF;}
	.st1{enable-background:new    ;}
	.st2{fill-rule:evenodd;clip-rule:evenodd;fill:#D12B28;}
	.st3{fill-rule:evenodd;clip-rule:evenodd;fill:#FFFFFF;}
</style>
<rect class="st0" width="1280" height="720"/>
<g id="形状_1_6_" class="st1">
	<g id="形状_1_7_">
		<g>
			<circle class="st2" cx="219.2" cy="223.3" r="92.2"/>
		</g>
	</g>
</g>
<g id="形状_1_4_" class="st1">
	<g id="形状_1_5_">
		<g>
			<path class="st3" d="M261.1,185.5v-18.7c-60.9,1.8-42.5,88.1-86.7,90.2v18.7c29.2-0.9,40.6-21.7,49.9-45.1h25.5v-18.7h-18.5
				C237.9,198.4,243.6,186.3,261.1,185.5z"/>
		</g>
	</g>
</g>
<g>
	<path d="M373.3,152.2H367v-3.7h17.1v3.7h-6.3v15.9h-4.5V152.2z"/>
	<path d="M404.5,148.5v19.6H400v-8h-8.9v8h-4.5v-19.6h4.5v7.7h8.9v-7.7H404.5z"/>
	<path d="M409.2,148.5h4.5v19.6h-4.5V148.5z"/>
	<path d="M420.3,167.8c-1.4-0.4-2.6-1-3.5-1.6l1.5-3.4c0.8,0.6,1.8,1.1,3,1.5s2.3,0.6,3.5,0.6c1.3,0,2.2-0.2,2.9-0.6
		c0.6-0.4,0.9-0.9,0.9-1.5c0-0.5-0.2-0.9-0.5-1.2c-0.4-0.3-0.8-0.6-1.4-0.7c-0.6-0.2-1.3-0.4-2.3-0.6c-1.5-0.4-2.7-0.7-3.7-1.1
		s-1.8-0.9-2.4-1.7c-0.7-0.8-1-1.8-1-3.1c0-1.1,0.3-2.2,0.9-3.1c0.6-0.9,1.5-1.7,2.8-2.2c1.2-0.5,2.8-0.8,4.5-0.8
		c1.3,0,2.5,0.1,3.7,0.4c1.2,0.3,2.2,0.7,3.1,1.3l-1.4,3.4c-1.8-1-3.6-1.5-5.4-1.5c-1.3,0-2.2,0.2-2.8,0.6c-0.6,0.4-0.9,1-0.9,1.6
		c0,0.7,0.4,1.2,1,1.5c0.7,0.3,1.8,0.6,3.2,1c1.5,0.4,2.7,0.7,3.7,1.1s1.8,0.9,2.5,1.7c0.7,0.8,1,1.8,1,3.1c0,1.1-0.3,2.1-0.9,3.1
		c-0.6,0.9-1.6,1.7-2.8,2.2c-1.3,0.5-2.8,0.8-4.6,0.8C423.2,168.4,421.7,168.2,420.3,167.8z"/>
	<path d="M457,163.9h-9.1l-1.7,4.2h-4.6l8.7-19.6h4.5l8.8,19.6h-4.8L457,163.9z M455.6,160.4l-3.1-7.5l-3.1,7.5H455.6z"/>
	<path d="M478.1,168.1l-3.8-5.5h-0.2h-3.9v5.5h-4.5v-19.6h8.5c1.7,0,3.2,0.3,4.5,0.9c1.3,0.6,2.3,1.4,3,2.5c0.7,1.1,1,2.3,1,3.8
		c0,1.5-0.3,2.7-1,3.8c-0.7,1.1-1.7,1.9-3,2.4l4.4,6.3H478.1z M476.9,153c-0.7-0.6-1.7-0.9-3.1-0.9h-3.7v6.8h3.7
		c1.4,0,2.4-0.3,3.1-0.9c0.7-0.6,1.1-1.4,1.1-2.5C478,154.5,477.6,153.6,476.9,153z"/>
	<path d="M489.9,152.2h-6.3v-3.7h17.1v3.7h-6.3v15.9h-4.5V152.2z"/>
	<path d="M515.1,167.1c-1.6-0.9-2.9-2.1-3.8-3.6s-1.4-3.3-1.4-5.2s0.5-3.7,1.4-5.2s2.2-2.7,3.8-3.6c1.6-0.9,3.4-1.3,5.4-1.3
		c1.7,0,3.2,0.3,4.6,0.9c1.4,0.6,2.5,1.5,3.5,2.6l-2.9,2.7c-1.3-1.5-3-2.3-4.9-2.3c-1.2,0-2.3,0.3-3.2,0.8c-1,0.5-1.7,1.3-2.2,2.2
		c-0.5,1-0.8,2-0.8,3.2s0.3,2.3,0.8,3.2c0.5,1,1.3,1.7,2.2,2.2c1,0.5,2,0.8,3.2,0.8c2,0,3.6-0.8,4.9-2.3l2.9,2.7
		c-0.9,1.1-2.1,2-3.5,2.6c-1.4,0.6-2.9,0.9-4.6,0.9C518.5,168.4,516.7,168,515.1,167.1z"/>
	<path d="M535.2,167.1c-1.6-0.9-2.9-2.1-3.8-3.6s-1.4-3.3-1.4-5.2c0-1.9,0.5-3.7,1.4-5.2s2.2-2.7,3.8-3.6c1.6-0.9,3.5-1.3,5.5-1.3
		s3.9,0.4,5.5,1.3c1.6,0.9,2.9,2.1,3.8,3.6c0.9,1.5,1.4,3.3,1.4,5.2c0,1.9-0.5,3.7-1.4,5.2c-0.9,1.5-2.2,2.7-3.8,3.6
		s-3.5,1.3-5.5,1.3S536.8,168,535.2,167.1z M543.8,163.7c0.9-0.5,1.7-1.3,2.2-2.2c0.5-1,0.8-2,0.8-3.2s-0.3-2.3-0.8-3.2
		c-0.5-1-1.3-1.7-2.2-2.2c-0.9-0.5-2-0.8-3.1-0.8c-1.2,0-2.2,0.3-3.1,0.8c-0.9,0.5-1.7,1.3-2.2,2.2c-0.5,1-0.8,2-0.8,3.2
		s0.3,2.3,0.8,3.2c0.5,1,1.3,1.7,2.2,2.2c0.9,0.5,2,0.8,3.1,0.8C541.9,164.5,542.9,164.3,543.8,163.7z"/>
	<path d="M572.8,148.5v19.6h-3.7l-9.8-11.9v11.9h-4.5v-19.6h3.8l9.7,11.9v-11.9H572.8z"/>
	<path d="M581.5,152.2h-6.3v-3.7h17.1v3.7h-6.3v15.9h-4.5V152.2z"/>
	<path d="M609.9,164.4v3.6h-15.2v-19.6h14.8v3.6h-10.3v4.3h9.1v3.5h-9.1v4.5H609.9z"/>
	<path d="M631.5,148.5v19.6h-3.7l-9.8-11.9v11.9h-4.5v-19.6h3.8l9.7,11.9v-11.9H631.5z"/>
	<path d="M640.2,152.2H634v-3.7h17.1v3.7h-6.3v15.9h-4.5V152.2z"/>
	<path d="M661.4,148.5h4.5v19.6h-4.5V148.5z"/>
	<path d="M672.5,167.8c-1.4-0.4-2.6-1-3.5-1.6l1.5-3.4c0.8,0.6,1.8,1.1,3,1.5c1.2,0.4,2.3,0.6,3.5,0.6c1.3,0,2.2-0.2,2.9-0.6
		c0.6-0.4,0.9-0.9,0.9-1.5c0-0.5-0.2-0.9-0.5-1.2c-0.4-0.3-0.8-0.6-1.4-0.7c-0.6-0.2-1.3-0.4-2.3-0.6c-1.5-0.4-2.7-0.7-3.7-1.1
		c-1-0.4-1.8-0.9-2.5-1.7c-0.7-0.8-1-1.8-1-3.1c0-1.1,0.3-2.2,0.9-3.1c0.6-0.9,1.5-1.7,2.8-2.2c1.2-0.5,2.8-0.8,4.5-0.8
		c1.3,0,2.5,0.1,3.7,0.4c1.2,0.3,2.2,0.7,3.1,1.3l-1.4,3.4c-1.8-1-3.6-1.5-5.4-1.5c-1.3,0-2.2,0.2-2.8,0.6c-0.6,0.4-0.9,1-0.9,1.6
		c0,0.7,0.4,1.2,1.1,1.5c0.7,0.3,1.8,0.6,3.2,1c1.5,0.4,2.7,0.7,3.7,1.1c1,0.4,1.8,0.9,2.4,1.7c0.7,0.8,1,1.8,1,3.1
		c0,1.1-0.3,2.1-0.9,3.1c-0.6,0.9-1.6,1.7-2.8,2.2c-1.3,0.5-2.8,0.8-4.6,0.8C675.5,168.4,674,168.2,672.5,167.8z"/>
	<path d="M714.2,168.1l0-11.8l-5.8,9.7h-2l-5.7-9.4v11.5h-4.3v-19.6h3.8l7.3,12.2l7.2-12.2h3.7l0.1,19.6H714.2z"/>
	<path d="M736,163.9h-9.1l-1.7,4.2h-4.6l8.7-19.6h4.5l8.8,19.6h-4.8L736,163.9z M734.6,160.4l-3.1-7.5l-3.1,7.5H734.6z"/>
	<path d="M744.6,148.5h8.9c2.1,0,4,0.4,5.6,1.2c1.6,0.8,2.9,2,3.8,3.4c0.9,1.5,1.4,3.2,1.4,5.2s-0.5,3.7-1.4,5.2s-2.2,2.6-3.8,3.4
		c-1.6,0.8-3.5,1.2-5.6,1.2h-8.9V148.5z M753.3,164.3c2,0,3.5-0.5,4.7-1.6c1.2-1.1,1.8-2.6,1.8-4.4s-0.6-3.3-1.8-4.4
		c-1.2-1.1-2.7-1.6-4.7-1.6h-4.1v12.2H753.3z"/>
	<path d="M782.9,164.4v3.6h-15.2v-19.6h14.8v3.6h-10.3v4.3h9.1v3.5h-9.1v4.5H782.9z"/>
	<path d="M794.4,148.5h4.5v19.6h-4.5V148.5z"/>
	<path d="M821.6,148.5v19.6h-3.7l-9.8-11.9v11.9h-4.5v-19.6h3.8l9.7,11.9v-11.9H821.6z"/>
	<path d="M838.7,152.1v5.2h9.1v3.6h-9.1v7.1h-4.5v-19.6H849v3.6H838.7z"/>
	<path d="M852,148.5h4.5v15.9h9.8v3.7H852V148.5z"/>
	<path d="M882,163.9h-9.1l-1.7,4.2h-4.6l8.7-19.6h4.5l8.8,19.6h-4.8L882,163.9z M880.6,160.4l-3.1-7.5l-3.1,7.5H880.6z"/>
	<path d="M892.5,167.8c-1.4-0.4-2.6-1-3.5-1.6l1.5-3.4c0.8,0.6,1.8,1.1,3,1.5c1.2,0.4,2.3,0.6,3.5,0.6c1.3,0,2.2-0.2,2.9-0.6
		c0.6-0.4,0.9-0.9,0.9-1.5c0-0.5-0.2-0.9-0.5-1.2c-0.4-0.3-0.8-0.6-1.4-0.7c-0.6-0.2-1.3-0.4-2.3-0.6c-1.5-0.4-2.7-0.7-3.7-1.1
		c-1-0.4-1.8-0.9-2.5-1.7c-0.7-0.8-1-1.8-1-3.1c0-1.1,0.3-2.2,0.9-3.1c0.6-0.9,1.5-1.7,2.8-2.2c1.2-0.5,2.8-0.8,4.5-0.8
		c1.3,0,2.5,0.1,3.7,0.4c1.2,0.3,2.2,0.7,3.1,1.3l-1.4,3.4c-1.8-1-3.6-1.5-5.4-1.5c-1.3,0-2.2,0.2-2.8,0.6c-0.6,0.4-0.9,1-0.9,1.6
		c0,0.7,0.4,1.2,1.1,1.5c0.7,0.3,1.8,0.6,3.2,1c1.5,0.4,2.7,0.7,3.7,1.1c1,0.4,1.8,0.9,2.4,1.7c0.7,0.8,1,1.8,1,3.1
		c0,1.1-0.3,2.1-0.9,3.1c-0.6,0.9-1.6,1.7-2.8,2.2c-1.3,0.5-2.8,0.8-4.6,0.8C895.5,168.4,894,168.2,892.5,167.8z"/>
	<path d="M926.4,148.5v19.6h-4.5v-8H913v8h-4.5v-19.6h4.5v7.7h8.9v-7.7H926.4z"/>
	<path d="M373.8,185.7v5.2h9.1v3.6h-9.1v7.1h-4.5v-19.6H384v3.6H373.8z"/>
	<path d="M387.1,182.1h4.5V198h9.8v3.7h-14.4V182.1z"/>
	<path d="M417.1,197.5H408l-1.7,4.2h-4.6l8.7-19.6h4.5l8.8,19.6h-4.8L417.1,197.5z M415.7,194l-3.1-7.5l-3.1,7.5H415.7z"/>
	<path d="M427.6,201.4c-1.4-0.4-2.6-1-3.5-1.6l1.5-3.4c0.8,0.6,1.8,1.1,3,1.5s2.3,0.6,3.5,0.6c1.3,0,2.2-0.2,2.9-0.6
		c0.6-0.4,0.9-0.9,0.9-1.5c0-0.5-0.2-0.9-0.5-1.2c-0.4-0.3-0.8-0.6-1.4-0.7c-0.6-0.2-1.3-0.4-2.3-0.6c-1.5-0.4-2.7-0.7-3.7-1.1
		s-1.8-0.9-2.4-1.7c-0.7-0.8-1-1.8-1-3.1c0-1.1,0.3-2.2,0.9-3.1c0.6-0.9,1.5-1.7,2.8-2.2c1.2-0.5,2.8-0.8,4.5-0.8
		c1.3,0,2.5,0.1,3.7,0.4c1.2,0.3,2.2,0.7,3.1,1.3l-1.4,3.4c-1.8-1-3.6-1.5-5.4-1.5c-1.3,0-2.2,0.2-2.8,0.6c-0.6,0.4-0.9,1-0.9,1.6
		c0,0.7,0.4,1.2,1,1.5c0.7,0.3,1.8,0.6,3.2,1c1.5,0.4,2.7,0.7,3.7,1.1s1.8,0.9,2.5,1.7c0.7,0.8,1,1.8,1,3.1c0,1.1-0.3,2.1-0.9,3.1
		c-0.6,0.9-1.6,1.7-2.8,2.2c-1.3,0.5-2.8,0.8-4.6,0.8C430.5,202,429,201.8,427.6,201.4z"/>
	<path d="M461.5,182.1v19.6H457v-8h-8.9v8h-4.5v-19.6h4.5v7.7h8.9v-7.7H461.5z"/>
	<path d="M474.1,182.1h4.5v19.6h-4.5V182.1z"/>
	<path d="M485.2,201.4c-1.4-0.4-2.6-1-3.5-1.6l1.5-3.4c0.8,0.6,1.8,1.1,3,1.5s2.3,0.6,3.5,0.6c1.3,0,2.2-0.2,2.9-0.6
		c0.6-0.4,0.9-0.9,0.9-1.5c0-0.5-0.2-0.9-0.5-1.2c-0.4-0.3-0.8-0.6-1.4-0.7c-0.6-0.2-1.3-0.4-2.3-0.6c-1.5-0.4-2.7-0.7-3.7-1.1
		s-1.8-0.9-2.4-1.7c-0.7-0.8-1-1.8-1-3.1c0-1.1,0.3-2.2,0.9-3.1c0.6-0.9,1.5-1.7,2.8-2.2c1.2-0.5,2.8-0.8,4.5-0.8
		c1.3,0,2.5,0.1,3.7,0.4c1.2,0.3,2.2,0.7,3.1,1.3l-1.4,3.4c-1.8-1-3.6-1.5-5.4-1.5c-1.3,0-2.2,0.2-2.8,0.6c-0.6,0.4-0.9,1-0.9,1.6
		c0,0.7,0.4,1.2,1,1.5c0.7,0.3,1.8,0.6,3.2,1c1.5,0.4,2.7,0.7,3.7,1.1s1.8,0.9,2.5,1.7c0.7,0.8,1,1.8,1,3.1c0,1.1-0.3,2.1-0.9,3.1
		c-0.6,0.9-1.6,1.7-2.8,2.2c-1.3,0.5-2.8,0.8-4.6,0.8C488.1,202,486.6,201.8,485.2,201.4z"/>
	<path d="M527,182.1v19.6h-3.7l-9.8-11.9v11.9H509v-19.6h3.8l9.7,11.9v-11.9H527z"/>
	<path d="M535.7,200.7c-1.6-0.9-2.9-2.1-3.8-3.6s-1.4-3.3-1.4-5.2c0-1.9,0.5-3.7,1.4-5.2s2.2-2.7,3.8-3.6c1.6-0.9,3.5-1.3,5.5-1.3
		s3.9,0.4,5.5,1.3c1.6,0.9,2.9,2.1,3.8,3.6c0.9,1.5,1.4,3.3,1.4,5.2c0,1.9-0.5,3.7-1.4,5.2c-0.9,1.5-2.2,2.7-3.8,3.6
		s-3.5,1.3-5.5,1.3S537.3,201.6,535.7,200.7z M544.3,197.3c0.9-0.5,1.7-1.3,2.2-2.2c0.5-1,0.8-2,0.8-3.2s-0.3-2.3-0.8-3.2
		c-0.5-1-1.3-1.7-2.2-2.2c-0.9-0.5-2-0.8-3.1-0.8c-1.2,0-2.2,0.3-3.1,0.8c-0.9,0.5-1.7,1.3-2.2,2.2c-0.5,1-0.8,2-0.8,3.2
		s0.3,2.3,0.8,3.2c0.5,1,1.3,1.7,2.2,2.2c0.9,0.5,2,0.8,3.1,0.8C542.3,198.1,543.4,197.9,544.3,197.3z"/>
	<path d="M559.1,185.8h-6.3v-3.7h17.1v3.7h-6.3v15.9h-4.5V185.8z"/>
	<path d="M580.2,182.1h4.5v19.6h-4.5V182.1z"/>
	<path d="M607.4,182.1v19.6h-3.7l-9.8-11.9v11.9h-4.5v-19.6h3.8l9.7,11.9v-11.9H607.4z"/>
	<path d="M614,201.4c-1.4-0.4-2.6-1-3.5-1.6l1.5-3.4c0.8,0.6,1.8,1.1,3,1.5s2.3,0.6,3.5,0.6c1.3,0,2.2-0.2,2.9-0.6
		c0.6-0.4,0.9-0.9,0.9-1.5c0-0.5-0.2-0.9-0.5-1.2c-0.4-0.3-0.8-0.6-1.4-0.7c-0.6-0.2-1.3-0.4-2.3-0.6c-1.5-0.4-2.7-0.7-3.7-1.1
		s-1.8-0.9-2.4-1.7c-0.7-0.8-1-1.8-1-3.1c0-1.1,0.3-2.2,0.9-3.1c0.6-0.9,1.5-1.7,2.8-2.2c1.2-0.5,2.8-0.8,4.5-0.8
		c1.3,0,2.5,0.1,3.7,0.4c1.2,0.3,2.2,0.7,3.1,1.3l-1.4,3.4c-1.8-1-3.6-1.5-5.4-1.5c-1.3,0-2.2,0.2-2.8,0.6c-0.6,0.4-0.9,1-0.9,1.6
		c0,0.7,0.4,1.2,1,1.5c0.7,0.3,1.8,0.6,3.2,1c1.5,0.4,2.7,0.7,3.7,1.1s1.8,0.9,2.5,1.7c0.7,0.8,1,1.8,1,3.1c0,1.1-0.3,2.1-0.9,3.1
		c-0.6,0.9-1.6,1.7-2.8,2.2c-1.3,0.5-2.8,0.8-4.6,0.8C616.9,202,615.4,201.8,614,201.4z"/>
	<path d="M633.7,185.8h-6.3v-3.7h17.1v3.7h-6.3v15.9h-4.5V185.8z"/>
	<path d="M658.9,197.5h-9.1l-1.7,4.2h-4.6l8.7-19.6h4.5l8.8,19.6h-4.8L658.9,197.5z M657.4,194l-3.1-7.5l-3.1,7.5H657.4z"/>
	<path d="M667.4,182.1h4.5V198h9.8v3.7h-14.4V182.1z"/>
	<path d="M684.3,182.1h4.5V198h9.8v3.7h-14.4V182.1z"/>
	<path d="M716.4,198v3.6h-15.2v-19.6H716v3.6h-10.3v4.3h9.1v3.5h-9.1v4.5H716.4z"/>
	<path d="M720,182.1h8.9c2.1,0,4,0.4,5.6,1.2c1.6,0.8,2.9,2,3.8,3.4c0.9,1.5,1.4,3.2,1.4,5.2s-0.5,3.7-1.4,5.2s-2.2,2.6-3.8,3.4
		c-1.6,0.8-3.5,1.2-5.6,1.2H720V182.1z M728.7,197.9c2,0,3.5-0.5,4.7-1.6c1.2-1.1,1.8-2.6,1.8-4.4s-0.6-3.3-1.8-4.4
		c-1.2-1.1-2.7-1.6-4.7-1.6h-4.1v12.2H728.7z"/>
	<path d="M755.1,200.7c-1.6-0.9-2.9-2.1-3.8-3.6c-0.9-1.5-1.4-3.3-1.4-5.2c0-1.9,0.5-3.7,1.4-5.2c0.9-1.5,2.2-2.7,3.8-3.6
		c1.6-0.9,3.5-1.3,5.5-1.3c2,0,3.9,0.4,5.5,1.3c1.6,0.9,2.9,2.1,3.8,3.6s1.4,3.3,1.4,5.2c0,1.9-0.5,3.7-1.4,5.2s-2.2,2.7-3.8,3.6
		s-3.5,1.3-5.5,1.3C758.5,202,756.7,201.6,755.1,200.7z M763.7,197.3c0.9-0.5,1.7-1.3,2.2-2.2c0.5-1,0.8-2,0.8-3.2s-0.3-2.3-0.8-3.2
		c-0.5-1-1.3-1.7-2.2-2.2c-0.9-0.5-2-0.8-3.1-0.8c-1.2,0-2.2,0.3-3.1,0.8c-0.9,0.5-1.7,1.3-2.2,2.2c-0.5,1-0.8,2-0.8,3.2
		s0.3,2.3,0.8,3.2c0.5,1,1.3,1.7,2.2,2.2c0.9,0.5,2,0.8,3.1,0.8C761.7,198.1,762.8,197.9,763.7,197.3z"/>
	<path d="M792.7,182.1v19.6H789l-9.8-11.9v11.9h-4.5v-19.6h3.8l9.7,11.9v-11.9H792.7z"/>
	<path d="M814.7,194.7v6.9h-4.5v-7l-7.6-12.6h4.8l5.2,8.7l5.2-8.7h4.5L814.7,194.7z"/>
	<path d="M827.3,200.7c-1.6-0.9-2.9-2.1-3.8-3.6c-0.9-1.5-1.4-3.3-1.4-5.2c0-1.9,0.5-3.7,1.4-5.2c0.9-1.5,2.2-2.7,3.8-3.6
		c1.6-0.9,3.5-1.3,5.5-1.3c2,0,3.9,0.4,5.5,1.3c1.6,0.9,2.9,2.1,3.8,3.6s1.4,3.3,1.4,5.2c0,1.9-0.5,3.7-1.4,5.2s-2.2,2.7-3.8,3.6
		s-3.5,1.3-5.5,1.3C830.8,202,829,201.6,827.3,200.7z M836,197.3c0.9-0.5,1.7-1.3,2.2-2.2c0.5-1,0.8-2,0.8-3.2s-0.3-2.3-0.8-3.2
		c-0.5-1-1.3-1.7-2.2-2.2c-0.9-0.5-2-0.8-3.1-0.8c-1.2,0-2.2,0.3-3.1,0.8c-0.9,0.5-1.7,1.3-2.2,2.2c-0.5,1-0.8,2-0.8,3.2
		s0.3,2.3,0.8,3.2c0.5,1,1.3,1.7,2.2,2.2c0.9,0.5,2,0.8,3.1,0.8C834,198.1,835,197.9,836,197.3z"/>
	<path d="M849.1,199.7c-1.6-1.5-2.3-3.8-2.3-6.6v-11h4.5v10.8c0,3.5,1.5,5.3,4.4,5.3c1.4,0,2.5-0.4,3.2-1.3c0.7-0.8,1.1-2.2,1.1-4
		v-10.8h4.5v11c0,2.9-0.8,5.1-2.3,6.6c-1.6,1.5-3.7,2.3-6.5,2.3S850.7,201.2,849.1,199.7z"/>
	<path d="M881.5,201.7l-3.8-5.5h-0.2h-3.9v5.5H869v-19.6h8.5c1.7,0,3.2,0.3,4.5,0.9c1.3,0.6,2.3,1.4,3,2.5c0.7,1.1,1,2.3,1,3.8
		c0,1.5-0.4,2.7-1.1,3.8c-0.7,1.1-1.7,1.9-3,2.4l4.4,6.3H881.5z M880.4,186.6c-0.7-0.6-1.7-0.9-3.1-0.9h-3.7v6.8h3.7
		c1.4,0,2.4-0.3,3.1-0.9c0.7-0.6,1.1-1.4,1.1-2.5C881.4,188.1,881.1,187.2,880.4,186.6z"/>
	<path d="M914.6,193.3c0.6,0.8,1,1.9,1,3.1c0,1.7-0.7,3-2,4c-1.3,0.9-3.3,1.4-5.8,1.4h-10.1v-19.6h9.6c2.4,0,4.2,0.5,5.5,1.4
		c1.3,0.9,1.9,2.2,1.9,3.7c0,1-0.2,1.8-0.7,2.5c-0.5,0.7-1.1,1.3-1.9,1.8C913,191.8,913.9,192.4,914.6,193.3z M902,185.5v4.6h4.5
		c1.1,0,2-0.2,2.5-0.6c0.6-0.4,0.9-1,0.9-1.7c0-0.8-0.3-1.3-0.9-1.7c-0.6-0.4-1.4-0.6-2.5-0.6H902z M910,197.7
		c0.6-0.4,0.9-1,0.9-1.8c0-1.6-1.2-2.4-3.6-2.4H902v4.8h5.3C908.5,198.2,909.4,198.1,910,197.7z"/>
	<path d="M931.4,201.7l-3.8-5.5h-0.2h-3.9v5.5H919v-19.6h8.5c1.7,0,3.2,0.3,4.5,0.9c1.3,0.6,2.3,1.4,3,2.5c0.7,1.1,1,2.3,1,3.8
		c0,1.5-0.4,2.7-1.1,3.8c-0.7,1.1-1.7,1.9-3,2.4l4.4,6.3H931.4z M930.3,186.6c-0.7-0.6-1.7-0.9-3.1-0.9h-3.7v6.8h3.7
		c1.4,0,2.4-0.3,3.1-0.9c0.7-0.6,1.1-1.4,1.1-2.5C931.4,188.1,931,187.2,930.3,186.6z"/>
	<path d="M943.5,200.7c-1.6-0.9-2.9-2.1-3.8-3.6c-0.9-1.5-1.4-3.3-1.4-5.2c0-1.9,0.5-3.7,1.4-5.2c0.9-1.5,2.2-2.7,3.8-3.6
		c1.6-0.9,3.5-1.3,5.5-1.3c2,0,3.9,0.4,5.5,1.3c1.6,0.9,2.9,2.1,3.8,3.6s1.4,3.3,1.4,5.2c0,1.9-0.5,3.7-1.4,5.2s-2.2,2.7-3.8,3.6
		s-3.5,1.3-5.5,1.3C947,202,945.2,201.6,943.5,200.7z M952.2,197.3c0.9-0.5,1.7-1.3,2.2-2.2c0.5-1,0.8-2,0.8-3.2s-0.3-2.3-0.8-3.2
		c-0.5-1-1.3-1.7-2.2-2.2c-0.9-0.5-2-0.8-3.1-0.8c-1.2,0-2.2,0.3-3.1,0.8c-0.9,0.5-1.7,1.3-2.2,2.2c-0.5,1-0.8,2-0.8,3.2
		s0.3,2.3,0.8,3.2c0.5,1,1.3,1.7,2.2,2.2c0.9,0.5,2,0.8,3.1,0.8C950.2,198.1,951.2,197.9,952.2,197.3z"/>
	<path d="M992.1,182.1l-6.4,19.6h-4.9l-4.3-13.3l-4.5,13.3h-4.8l-6.4-19.6h4.7l4.4,13.8l4.6-13.8h4.2l4.5,13.9l4.6-13.9H992.1z"/>
	<path d="M996.6,201.4c-1.4-0.4-2.6-1-3.5-1.6l1.5-3.4c0.8,0.6,1.8,1.1,3,1.5c1.2,0.4,2.3,0.6,3.5,0.6c1.3,0,2.2-0.2,2.9-0.6
		c0.6-0.4,0.9-0.9,0.9-1.5c0-0.5-0.2-0.9-0.5-1.2c-0.4-0.3-0.8-0.6-1.4-0.7c-0.6-0.2-1.3-0.4-2.3-0.6c-1.5-0.4-2.7-0.7-3.7-1.1
		c-1-0.4-1.8-0.9-2.5-1.7c-0.7-0.8-1-1.8-1-3.1c0-1.1,0.3-2.2,0.9-3.1c0.6-0.9,1.5-1.7,2.8-2.2c1.2-0.5,2.8-0.8,4.5-0.8
		c1.3,0,2.5,0.1,3.7,0.4c1.2,0.3,2.2,0.7,3.1,1.3l-1.4,3.4c-1.8-1-3.6-1.5-5.4-1.5c-1.3,0-2.2,0.2-2.8,0.6c-0.6,0.4-0.9,1-0.9,1.6
		c0,0.7,0.4,1.2,1.1,1.5c0.7,0.3,1.8,0.6,3.2,1c1.5,0.4,2.7,0.7,3.7,1.1c1,0.4,1.8,0.9,2.4,1.7c0.7,0.8,1,1.8,1,3.1
		c0,1.1-0.3,2.1-0.9,3.1c-0.6,0.9-1.6,1.7-2.8,2.2c-1.3,0.5-2.8,0.8-4.6,0.8C999.6,202,998.1,201.8,996.6,201.4z"/>
	<path d="M1027.7,198v3.6h-15.2v-19.6h14.8v3.6H1017v4.3h9.1v3.5h-9.1v4.5H1027.7z"/>
	<path d="M1043.8,201.7l-3.8-5.5h-0.2h-3.9v5.5h-4.5v-19.6h8.5c1.7,0,3.2,0.3,4.5,0.9c1.3,0.6,2.3,1.4,3,2.5c0.7,1.1,1,2.3,1,3.8
		c0,1.5-0.4,2.7-1.1,3.8c-0.7,1.1-1.7,1.9-3,2.4l4.4,6.3H1043.8z M1042.7,186.6c-0.7-0.6-1.7-0.9-3.1-0.9h-3.7v6.8h3.7
		c1.4,0,2.4-0.3,3.1-0.9c0.7-0.6,1.1-1.4,1.1-2.5C1043.7,188.1,1043.4,187.2,1042.7,186.6z"/>
	<path d="M382.1,264.7H373l-1.7,4.2h-4.6l8.7-19.6h4.5l8.8,19.6h-4.8L382.1,264.7z M380.7,261.2l-3.1-7.5l-3.1,7.5H380.7z"/>
	<path d="M390.7,249.3h8.9c2.1,0,4,0.4,5.6,1.2c1.6,0.8,2.9,2,3.8,3.4c0.9,1.5,1.4,3.2,1.4,5.2s-0.5,3.7-1.4,5.2
		c-0.9,1.5-2.2,2.6-3.8,3.4c-1.6,0.8-3.5,1.2-5.6,1.2h-8.9V249.3z M399.4,265.1c2,0,3.5-0.5,4.7-1.6c1.2-1.1,1.8-2.6,1.8-4.4
		s-0.6-3.3-1.8-4.4c-1.2-1.1-2.7-1.6-4.7-1.6h-4.1v12.2H399.4z"/>
	<path d="M417.8,267.9c-1.6-0.9-2.9-2.1-3.8-3.6s-1.4-3.3-1.4-5.2c0-1.9,0.5-3.7,1.4-5.2s2.2-2.7,3.8-3.6c1.6-0.9,3.5-1.3,5.5-1.3
		s3.9,0.4,5.5,1.3c1.6,0.9,2.9,2.1,3.8,3.6c0.9,1.5,1.4,3.3,1.4,5.2c0,1.9-0.5,3.7-1.4,5.2c-0.9,1.5-2.2,2.7-3.8,3.6
		s-3.5,1.3-5.5,1.3S419.4,268.8,417.8,267.9z M426.4,264.5c0.9-0.5,1.7-1.3,2.2-2.2c0.5-1,0.8-2,0.8-3.2s-0.3-2.3-0.8-3.2
		c-0.5-1-1.3-1.7-2.2-2.2c-0.9-0.5-2-0.8-3.1-0.8c-1.2,0-2.2,0.3-3.1,0.8c-0.9,0.5-1.7,1.3-2.2,2.2c-0.5,1-0.8,2-0.8,3.2
		s0.3,2.3,0.8,3.2c0.5,1,1.3,1.7,2.2,2.2c0.9,0.5,2,0.8,3.1,0.8C424.5,265.3,425.5,265.1,426.4,264.5z"/>
	<path d="M454.5,260.5c0.6,0.8,1,1.9,1,3.1c0,1.7-0.7,3-2,4c-1.3,0.9-3.3,1.4-5.8,1.4h-10.1v-19.6h9.6c2.4,0,4.2,0.5,5.5,1.4
		c1.3,0.9,1.9,2.2,1.9,3.7c0,1-0.2,1.8-0.7,2.5c-0.5,0.7-1.1,1.3-1.9,1.8C453,259,453.8,259.6,454.5,260.5z M442,252.7v4.6h4.5
		c1.1,0,2-0.2,2.5-0.6c0.6-0.4,0.9-1,0.9-1.7c0-0.8-0.3-1.3-0.9-1.7c-0.6-0.4-1.4-0.6-2.5-0.6H442z M449.9,264.9
		c0.6-0.4,0.9-1,0.9-1.8c0-1.6-1.2-2.4-3.6-2.4H442v4.8h5.3C448.4,265.4,449.3,265.3,449.9,264.9z"/>
	<path d="M474,265.2v3.6h-15.2v-19.6h14.8v3.6h-10.3v4.3h9.1v3.5h-9.1v4.5H474z"/>
	<path d="M498.1,268.9l-3.8-5.5h-0.2h-3.9v5.5h-4.5v-19.6h8.5c1.7,0,3.2,0.3,4.5,0.9c1.3,0.6,2.3,1.4,3,2.5c0.7,1.1,1,2.3,1,3.8
		c0,1.5-0.3,2.7-1,3.8c-0.7,1.1-1.7,1.9-3,2.4l4.4,6.3H498.1z M496.9,253.8c-0.7-0.6-1.7-0.9-3.1-0.9h-3.7v6.8h3.7
		c1.4,0,2.4-0.3,3.1-0.9c0.7-0.6,1.1-1.4,1.1-2.5C498,255.3,497.6,254.4,496.9,253.8z"/>
	<path d="M521.3,265.2v3.6h-15.2v-19.6H521v3.6h-10.3v4.3h9.1v3.5h-9.1v4.5H521.3z"/>
	<path d="M542.8,268.9l0-11.8l-5.8,9.7h-2l-5.7-9.4v11.5h-4.3v-19.6h3.8l7.3,12.2l7.2-12.2h3.7l0.1,19.6H542.8z"/>
	<path d="M555.7,267.9c-1.6-0.9-2.9-2.1-3.8-3.6s-1.4-3.3-1.4-5.2c0-1.9,0.5-3.7,1.4-5.2s2.2-2.7,3.8-3.6c1.6-0.9,3.5-1.3,5.5-1.3
		s3.9,0.4,5.5,1.3c1.6,0.9,2.9,2.1,3.8,3.6c0.9,1.5,1.4,3.3,1.4,5.2c0,1.9-0.5,3.7-1.4,5.2c-0.9,1.5-2.2,2.7-3.8,3.6
		s-3.5,1.3-5.5,1.3S557.3,268.8,555.7,267.9z M564.3,264.5c0.9-0.5,1.7-1.3,2.2-2.2c0.5-1,0.8-2,0.8-3.2s-0.3-2.3-0.8-3.2
		c-0.5-1-1.3-1.7-2.2-2.2c-0.9-0.5-2-0.8-3.1-0.8c-1.2,0-2.2,0.3-3.1,0.8c-0.9,0.5-1.7,1.3-2.2,2.2c-0.5,1-0.8,2-0.8,3.2
		s0.3,2.3,0.8,3.2c0.5,1,1.3,1.7,2.2,2.2c0.9,0.5,2,0.8,3.1,0.8C562.3,265.3,563.4,265.1,564.3,264.5z"/>
	<path d="M593.5,249.3l-8.5,19.6h-4.5l-8.5-19.6h4.9l6,14l6-14H593.5z"/>
	<path d="M610.3,265.2v3.6h-15.2v-19.6H610v3.6h-10.3v4.3h9.1v3.5h-9.1v4.5H610.3z"/>
	<path d="M613.9,249.3h8.9c2.1,0,4,0.4,5.6,1.2c1.6,0.8,2.9,2,3.8,3.4c0.9,1.5,1.4,3.2,1.4,5.2s-0.5,3.7-1.4,5.2
		c-0.9,1.5-2.2,2.6-3.8,3.4c-1.6,0.8-3.5,1.2-5.6,1.2h-8.9V249.3z M622.6,265.1c2,0,3.5-0.5,4.7-1.6c1.2-1.1,1.8-2.6,1.8-4.4
		s-0.6-3.3-1.8-4.4c-1.2-1.1-2.7-1.6-4.7-1.6h-4.1v12.2H622.6z"/>
	<path d="M649,253h-6.3v-3.7h17.1v3.7h-6.3v15.9H649V253z"/>
	<path d="M680.3,249.3v19.6h-4.5v-8h-8.9v8h-4.5v-19.6h4.5v7.7h8.9v-7.7H680.3z"/>
	<path d="M700.1,265.2v3.6h-15.2v-19.6h14.8v3.6h-10.3v4.3h9.1v3.5h-9.1v4.5H700.1z"/>
	<path d="M711.6,249.3h8.9c2.1,0,4,0.4,5.6,1.2c1.6,0.8,2.9,2,3.8,3.4c0.9,1.5,1.4,3.2,1.4,5.2s-0.5,3.7-1.4,5.2s-2.2,2.6-3.8,3.4
		c-1.6,0.8-3.5,1.2-5.6,1.2h-8.9V249.3z M720.3,265.1c2,0,3.5-0.5,4.7-1.6c1.2-1.1,1.8-2.6,1.8-4.4s-0.6-3.3-1.8-4.4
		c-1.2-1.1-2.7-1.6-4.7-1.6h-4.1v12.2H720.3z"/>
	<path d="M738.7,267.9c-1.6-0.9-2.9-2.1-3.8-3.6c-0.9-1.5-1.4-3.3-1.4-5.2c0-1.9,0.5-3.7,1.4-5.2c0.9-1.5,2.2-2.7,3.8-3.6
		c1.6-0.9,3.5-1.3,5.5-1.3c2,0,3.9,0.4,5.5,1.3c1.6,0.9,2.9,2.1,3.8,3.6s1.4,3.3,1.4,5.2c0,1.9-0.5,3.7-1.4,5.2s-2.2,2.7-3.8,3.6
		s-3.5,1.3-5.5,1.3C742.2,269.2,740.4,268.8,738.7,267.9z M747.4,264.5c0.9-0.5,1.7-1.3,2.2-2.2c0.5-1,0.8-2,0.8-3.2
		s-0.3-2.3-0.8-3.2c-0.5-1-1.3-1.7-2.2-2.2c-0.9-0.5-2-0.8-3.1-0.8c-1.2,0-2.2,0.3-3.1,0.8c-0.9,0.5-1.7,1.3-2.2,2.2
		c-0.5,1-0.8,2-0.8,3.2s0.3,2.3,0.8,3.2c0.5,1,1.3,1.7,2.2,2.2c0.9,0.5,2,0.8,3.1,0.8C745.4,265.3,746.4,265.1,747.4,264.5z"/>
	<path d="M787.4,249.3l-6.4,19.6h-4.9l-4.3-13.3l-4.5,13.3h-4.8l-6.4-19.6h4.7l4.4,13.8l4.6-13.8h4.2l4.5,13.9l4.6-13.9H787.4z"/>
	<path d="M807.9,249.3v19.6h-3.7l-9.8-11.9v11.9h-4.5v-19.6h3.8l9.7,11.9v-11.9H807.9z"/>
	<path d="M812.5,249.3h4.5v15.9h9.8v3.7h-14.4V249.3z"/>
	<path d="M833.1,267.9c-1.6-0.9-2.9-2.1-3.8-3.6c-0.9-1.5-1.4-3.3-1.4-5.2c0-1.9,0.5-3.7,1.4-5.2c0.9-1.5,2.2-2.7,3.8-3.6
		c1.6-0.9,3.5-1.3,5.5-1.3c2,0,3.9,0.4,5.5,1.3c1.6,0.9,2.9,2.1,3.8,3.6s1.4,3.3,1.4,5.2c0,1.9-0.5,3.7-1.4,5.2s-2.2,2.7-3.8,3.6
		s-3.5,1.3-5.5,1.3C836.5,269.2,834.7,268.8,833.1,267.9z M841.7,264.5c0.9-0.5,1.7-1.3,2.2-2.2c0.5-1,0.8-2,0.8-3.2
		s-0.3-2.3-0.8-3.2c-0.5-1-1.3-1.7-2.2-2.2c-0.9-0.5-2-0.8-3.1-0.8c-1.2,0-2.2,0.3-3.1,0.8c-0.9,0.5-1.7,1.3-2.2,2.2
		c-0.5,1-0.8,2-0.8,3.2s0.3,2.3,0.8,3.2c0.5,1,1.3,1.7,2.2,2.2c0.9,0.5,2,0.8,3.1,0.8C839.7,265.3,840.8,265.1,841.7,264.5z"/>
	<path d="M865.3,264.7h-9.1l-1.7,4.2h-4.6l8.7-19.6h4.5l8.8,19.6h-4.8L865.3,264.7z M863.9,261.2l-3.1-7.5l-3.1,7.5H863.9z"/>
	<path d="M873.9,249.3h8.9c2.1,0,4,0.4,5.6,1.2c1.6,0.8,2.9,2,3.8,3.4c0.9,1.5,1.4,3.2,1.4,5.2s-0.5,3.7-1.4,5.2s-2.2,2.6-3.8,3.4
		c-1.6,0.8-3.5,1.2-5.6,1.2h-8.9V249.3z M882.6,265.1c2,0,3.5-0.5,4.7-1.6c1.2-1.1,1.8-2.6,1.8-4.4s-0.6-3.3-1.8-4.4
		c-1.2-1.1-2.7-1.6-4.7-1.6h-4.1v12.2H882.6z"/>
	<path d="M908.9,267.9c-1.6-0.9-2.9-2.1-3.8-3.6c-0.9-1.5-1.4-3.3-1.4-5.2c0-1.9,0.5-3.7,1.4-5.2c0.9-1.5,2.2-2.7,3.8-3.6
		c1.6-0.9,3.5-1.3,5.5-1.3c2,0,3.9,0.4,5.5,1.3c1.6,0.9,2.9,2.1,3.8,3.6s1.4,3.3,1.4,5.2c0,1.9-0.5,3.7-1.4,5.2s-2.2,2.7-3.8,3.6
		s-3.5,1.3-5.5,1.3C912.4,269.2,910.5,268.8,908.9,267.9z M917.6,264.5c0.9-0.5,1.7-1.3,2.2-2.2c0.5-1,0.8-2,0.8-3.2
		s-0.3-2.3-0.8-3.2c-0.5-1-1.3-1.7-2.2-2.2c-0.9-0.5-2-0.8-3.1-0.8c-1.2,0-2.2,0.3-3.1,0.8c-0.9,0.5-1.7,1.3-2.2,2.2
		c-0.5,1-0.8,2-0.8,3.2s0.3,2.3,0.8,3.2c0.5,1,1.3,1.7,2.2,2.2c0.9,0.5,2,0.8,3.1,0.8C915.6,265.3,916.6,265.1,917.6,264.5z"/>
	<path d="M933.1,252.9v5.2h9.1v3.6h-9.1v7.1h-4.5v-19.6h14.8v3.6H933.1z"/>
	<path d="M958.4,253h-6.3v-3.7h17.1v3.7H963v15.9h-4.5V253z"/>
	<path d="M989.7,249.3v19.6h-4.5v-8h-8.9v8h-4.5v-19.6h4.5v7.7h8.9v-7.7H989.7z"/>
	<path d="M1009.5,265.2v3.6h-15.2v-19.6h14.8v3.6h-10.3v4.3h9.1v3.5h-9.1v4.5H1009.5z"/>
	<path d="M1034,250.1c1.3,0.6,2.3,1.4,3,2.5c0.7,1.1,1,2.3,1,3.8c0,1.4-0.3,2.7-1,3.8c-0.7,1.1-1.7,1.9-3,2.5
		c-1.3,0.6-2.8,0.9-4.5,0.9h-3.9v5.4h-4.5v-19.6h8.5C1031.2,249.3,1032.7,249.6,1034,250.1z M1032.4,258.9c0.7-0.6,1.1-1.4,1.1-2.5
		c0-1.1-0.4-1.9-1.1-2.5c-0.7-0.6-1.7-0.9-3.1-0.9h-3.7v6.8h3.7C1030.6,259.8,1031.6,259.5,1032.4,258.9z"/>
	<path d="M1041.2,249.3h4.5v15.9h9.8v3.7h-14.4V249.3z"/>
	<path d="M1060.1,266.9c-1.6-1.5-2.3-3.8-2.3-6.6v-11h4.5v10.8c0,3.5,1.5,5.3,4.4,5.3c1.4,0,2.5-0.4,3.2-1.3c0.7-0.8,1.1-2.2,1.1-4
		v-10.8h4.5v11c0,2.9-0.8,5.1-2.3,6.6c-1.6,1.5-3.7,2.3-6.5,2.3S1061.6,268.4,1060.1,266.9z"/>
	<path d="M1093.2,258.8h4.1v8c-1.1,0.8-2.3,1.4-3.7,1.8c-1.4,0.4-2.8,0.6-4.2,0.6c-2,0-3.9-0.4-5.5-1.3c-1.6-0.9-2.9-2.1-3.8-3.6
		c-0.9-1.5-1.4-3.3-1.4-5.2s0.5-3.7,1.4-5.2c0.9-1.5,2.2-2.7,3.9-3.6c1.6-0.9,3.5-1.3,5.5-1.3c1.7,0,3.3,0.3,4.7,0.9
		c1.4,0.6,2.6,1.4,3.5,2.5l-2.9,2.7c-1.4-1.5-3.1-2.2-5.1-2.2c-1.3,0-2.4,0.3-3.3,0.8c-1,0.5-1.7,1.3-2.3,2.2c-0.5,1-0.8,2-0.8,3.3
		c0,1.2,0.3,2.3,0.8,3.2c0.5,1,1.3,1.7,2.3,2.2c1,0.5,2.1,0.8,3.3,0.8c1.3,0,2.5-0.3,3.5-0.8V258.8z"/>
	<path d="M1101.5,249.3h4.5v19.6h-4.5V249.3z"/>
	<path d="M1128.7,249.3v19.6h-3.7l-9.8-11.9v11.9h-4.5v-19.6h3.8l9.7,11.9v-11.9H1128.7z"/>
	<path d="M386.3,294.1c0.6,0.8,1,1.9,1,3.1c0,1.7-0.7,3-2,4c-1.3,0.9-3.3,1.4-5.8,1.4h-10.1v-19.6h9.6c2.4,0,4.2,0.5,5.5,1.4
		c1.3,0.9,1.9,2.2,1.9,3.7c0,1-0.2,1.8-0.7,2.5c-0.5,0.7-1.1,1.3-1.9,1.8C384.7,292.6,385.6,293.2,386.3,294.1z M373.7,286.3v4.6
		h4.5c1.1,0,2-0.2,2.5-0.6c0.6-0.4,0.9-1,0.9-1.7c0-0.8-0.3-1.3-0.9-1.7c-0.6-0.4-1.4-0.6-2.5-0.6H373.7z M381.7,298.5
		c0.6-0.4,0.9-1,0.9-1.8c0-1.6-1.2-2.4-3.6-2.4h-5.3v4.8h5.3C380.2,299,381.1,298.9,381.7,298.5z"/>
	<path d="M392.8,300.5c-1.6-1.5-2.3-3.8-2.3-6.6v-11h4.5v10.8c0,3.5,1.5,5.3,4.4,5.3c1.4,0,2.5-0.4,3.2-1.3c0.7-0.8,1.1-2.2,1.1-4
		v-10.8h4.5v11c0,2.9-0.8,5.1-2.3,6.6s-3.7,2.3-6.5,2.3C396.6,302.8,394.4,302,392.8,300.5z"/>
	<path d="M416.4,286.6h-6.3v-3.7h17.1v3.7H421v15.9h-4.5V286.6z"/>
	<path d="M447,295.5v6.9h-4.5v-7l-7.6-12.6h4.8l5.2,8.7l5.2-8.7h4.5L447,295.5z"/>
	<path d="M459.7,301.5c-1.6-0.9-2.9-2.1-3.8-3.6s-1.4-3.3-1.4-5.2c0-1.9,0.5-3.7,1.4-5.2s2.2-2.7,3.8-3.6c1.6-0.9,3.5-1.3,5.5-1.3
		s3.9,0.4,5.5,1.3c1.6,0.9,2.9,2.1,3.8,3.6c0.9,1.5,1.4,3.3,1.4,5.2c0,1.9-0.5,3.7-1.4,5.2c-0.9,1.5-2.2,2.7-3.8,3.6
		s-3.5,1.3-5.5,1.3S461.3,302.4,459.7,301.5z M468.3,298.1c0.9-0.5,1.7-1.3,2.2-2.2c0.5-1,0.8-2,0.8-3.2s-0.3-2.3-0.8-3.2
		c-0.5-1-1.3-1.7-2.2-2.2c-0.9-0.5-2-0.8-3.1-0.8c-1.2,0-2.2,0.3-3.1,0.8c-0.9,0.5-1.7,1.3-2.2,2.2c-0.5,1-0.8,2-0.8,3.2
		s0.3,2.3,0.8,3.2c0.5,1,1.3,1.7,2.2,2.2c0.9,0.5,2,0.8,3.1,0.8C466.3,298.9,467.4,298.7,468.3,298.1z"/>
	<path d="M481.5,300.5c-1.6-1.5-2.3-3.8-2.3-6.6v-11h4.5v10.8c0,3.5,1.5,5.3,4.4,5.3c1.4,0,2.5-0.4,3.2-1.3c0.7-0.8,1.1-2.2,1.1-4
		v-10.8h4.5v11c0,2.9-0.8,5.1-2.3,6.6s-3.7,2.3-6.5,2.3C485.2,302.8,483.1,302,481.5,300.5z"/>
	<path d="M513.3,301.5c-1.6-0.9-2.9-2.1-3.8-3.6s-1.4-3.3-1.4-5.2s0.5-3.7,1.4-5.2s2.2-2.7,3.8-3.6c1.6-0.9,3.4-1.3,5.4-1.3
		c1.7,0,3.2,0.3,4.6,0.9c1.4,0.6,2.5,1.5,3.5,2.6l-2.9,2.7c-1.3-1.5-3-2.3-4.9-2.3c-1.2,0-2.3,0.3-3.2,0.8c-1,0.5-1.7,1.3-2.2,2.2
		c-0.5,1-0.8,2-0.8,3.2s0.3,2.3,0.8,3.2c0.5,1,1.3,1.7,2.2,2.2c1,0.5,2,0.8,3.2,0.8c2,0,3.6-0.8,4.9-2.3l2.9,2.7
		c-0.9,1.1-2.1,2-3.5,2.6c-1.4,0.6-2.9,0.9-4.6,0.9C516.7,302.8,514.9,302.4,513.3,301.5z"/>
	<path d="M542.4,298.3h-9.1l-1.7,4.2h-4.6l8.7-19.6h4.5l8.8,19.6h-4.8L542.4,298.3z M540.9,294.8l-3.1-7.5l-3.1,7.5H540.9z"/>
	<path d="M568.9,282.9v19.6h-3.7l-9.8-11.9v11.9h-4.5v-19.6h3.8l9.7,11.9v-11.9H568.9z"/>
	<path d="M586,286.5v5.2h9.1v3.6H586v7.1h-4.5v-19.6h14.8v3.6H586z"/>
	<path d="M599.3,282.9h4.5v19.6h-4.5V282.9z"/>
	<path d="M626.5,282.9v19.6h-3.7l-9.8-11.9v11.9h-4.5v-19.6h3.8l9.7,11.9v-11.9H626.5z"/>
	<path d="M631.1,282.9h8.9c2.1,0,4,0.4,5.6,1.2c1.6,0.8,2.9,2,3.8,3.4c0.9,1.5,1.4,3.2,1.4,5.2s-0.5,3.7-1.4,5.2s-2.2,2.6-3.8,3.4
		c-1.6,0.8-3.5,1.2-5.6,1.2h-8.9V282.9z M639.8,298.7c2,0,3.5-0.5,4.7-1.6c1.2-1.1,1.8-2.6,1.8-4.4s-0.6-3.3-1.8-4.4
		c-1.2-1.1-2.7-1.6-4.7-1.6h-4.1v12.2H639.8z"/>
	<path d="M675.1,298.3H666l-1.7,4.2h-4.6l8.7-19.6h4.5l8.8,19.6h-4.8L675.1,298.3z M673.7,294.8l-3.1-7.5l-3.1,7.5H673.7z"/>
	<path d="M721.2,282.9l-6.4,19.6h-4.9l-4.3-13.3l-4.5,13.3h-4.8l-6.4-19.6h4.7l4.4,13.8l4.6-13.8h4.2l4.5,13.9l4.6-13.9H721.2z"/>
	<path d="M736,298.3h-9.1l-1.7,4.2h-4.6l8.7-19.6h4.5l8.8,19.6h-4.8L736,298.3z M734.5,294.8l-3.1-7.5l-3.1,7.5H734.5z"/>
	<path d="M752.7,295.5v6.9h-4.5v-7l-7.6-12.6h4.8l5.2,8.7l5.2-8.7h4.5L752.7,295.5z"/>
	<path d="M774.2,286.6H768v-3.7H785v3.7h-6.3v15.9h-4.5V286.6z"/>
	<path d="M791.2,301.5c-1.6-0.9-2.9-2.1-3.8-3.6c-0.9-1.5-1.4-3.3-1.4-5.2c0-1.9,0.5-3.7,1.4-5.2c0.9-1.5,2.2-2.7,3.8-3.6
		c1.6-0.9,3.5-1.3,5.5-1.3c2,0,3.9,0.4,5.5,1.3c1.6,0.9,2.9,2.1,3.8,3.6s1.4,3.3,1.4,5.2c0,1.9-0.5,3.7-1.4,5.2s-2.2,2.7-3.8,3.6
		s-3.5,1.3-5.5,1.3C794.6,302.8,792.8,302.4,791.2,301.5z M799.8,298.1c0.9-0.5,1.7-1.3,2.2-2.2c0.5-1,0.8-2,0.8-3.2
		s-0.3-2.3-0.8-3.2c-0.5-1-1.3-1.7-2.2-2.2c-0.9-0.5-2-0.8-3.1-0.8c-1.2,0-2.2,0.3-3.1,0.8c-0.9,0.5-1.7,1.3-2.2,2.2
		c-0.5,1-0.8,2-0.8,3.2s0.3,2.3,0.8,3.2c0.5,1,1.3,1.7,2.2,2.2c0.9,0.5,2,0.8,3.1,0.8C797.8,298.9,798.9,298.7,799.8,298.1z"/>
	<path d="M823.3,286.5v5.2h9.1v3.6h-9.1v7.1h-4.5v-19.6h14.8v3.6H823.3z"/>
	<path d="M836.6,282.9h4.5v19.6h-4.5V282.9z"/>
	<path d="M863.8,282.9v19.6h-3.7l-9.8-11.9v11.9h-4.5v-19.6h3.8l9.7,11.9v-11.9H863.8z"/>
	<path d="M868.4,282.9h8.9c2.1,0,4,0.4,5.6,1.2c1.6,0.8,2.9,2,3.8,3.4c0.9,1.5,1.4,3.2,1.4,5.2s-0.5,3.7-1.4,5.2s-2.2,2.6-3.8,3.4
		c-1.6,0.8-3.5,1.2-5.6,1.2h-8.9V282.9z M877.1,298.7c2,0,3.5-0.5,4.7-1.6c1.2-1.1,1.8-2.6,1.8-4.4s-0.6-3.3-1.8-4.4
		c-1.2-1.1-2.7-1.6-4.7-1.6H873v12.2H877.1z"/>
	<path d="M899.5,282.9h4.5v19.6h-4.5V282.9z"/>
	<path d="M912.7,286.6h-6.3v-3.7h17.1v3.7h-6.3v15.9h-4.5V286.6z"/>
	<path d="M933.3,291.9c-0.5-0.5-0.8-1.2-0.8-2c0-0.8,0.3-1.5,0.8-1.9c0.5-0.5,1.2-0.7,1.9-0.7s1.4,0.2,1.9,0.7
		c0.5,0.5,0.8,1.1,0.8,1.9c0,0.8-0.3,1.4-0.8,2s-1.2,0.8-1.9,0.8S933.8,292.4,933.3,291.9z M937.2,298c0.5,0.5,0.8,1.1,0.8,1.9
		c0,0.4,0,0.7-0.1,1.1c-0.1,0.4-0.3,0.9-0.6,1.7l-1.6,4h-2.8l1.2-4.5c-0.5-0.2-0.8-0.5-1.1-0.9c-0.3-0.4-0.4-0.9-0.4-1.5
		c0-0.8,0.3-1.5,0.8-1.9s1.2-0.7,1.9-0.7S936.7,297.5,937.2,298z"/>
	<path d="M939.2,307.9c1.2-2.1,2-4.2,2.6-6.3c0.5-2.1,0.8-4.4,0.8-6.8c0-2.4-0.3-4.7-0.8-6.8c-0.6-2.1-1.4-4.2-2.6-6.3h4.2
		c1.1,1.7,2,3.6,2.6,5.9c0.6,2.2,0.9,4.7,0.9,7.2c0,2.6-0.3,5-0.9,7.2s-1.5,4.2-2.6,5.9H939.2z"/>
</g>
</svg>
