<?xml version="1.0" standalone="no"?>
<!DOCTYPE svg PUBLIC "-//W3C//DTD SVG 20010904//EN"
 "http://www.w3.org/TR/2001/REC-SVG-20010904/DTD/svg10.dtd">
<svg version="1.0" xmlns="http://www.w3.org/2000/svg"
 width="16.000000pt" height="16.000000pt" viewBox="0 0 16.000000 16.000000"
 preserveAspectRatio="xMidYMid meet">
<metadata>
Created by potrace 1.11, written by Peter Selinger 2001-2013
</metadata>
<g transform="translate(0.000000,16.000000) scale(0.003125,-0.003125)"
fill="#000000" stroke="none">
<path d="M2378 4995 c-2 -1 -35 -6 -74 -9 -39 -4 -81 -8 -92 -11 -11 -2 -42
-6 -69 -10 -62 -9 -227 -49 -323 -80 -559 -176 -1048 -562 -1352 -1070 -79
-133 -106 -185 -153 -301 -20 -49 -40 -98 -45 -109 -12 -26 -75 -236 -89 -296
-54 -233 -74 -594 -45 -829 133 -1084 940 -1937 2009 -2125 162 -29 509 -42
650 -24 39 5 93 11 120 14 28 4 57 8 65 10 8 2 29 7 45 10 50 8 67 12 150 34
44 12 87 23 95 26 38 10 163 56 245 90 324 134 653 374 890 650 33 39 62 72
65 75 16 16 73 96 122 170 202 306 329 641 385 1010 32 214 22 588 -22 814
-146 744 -651 1395 -1337 1725 -221 106 -507 193 -716 217 -26 3 -76 9 -112
13 -59 7 -405 12 -412 6z m432 -181 c151 -18 167 -20 289 -50 682 -167 1254
-646 1537 -1287 92 -210 160 -464 181 -679 10 -105 10 -358 0 -463 -65 -680
-445 -1303 -1022 -1678 -122 -79 -209 -125 -341 -182 -106 -46 -305 -112 -364
-121 -19 -3 -38 -8 -41 -10 -4 -2 -62 -13 -130 -24 -143 -24 -441 -34 -584
-19 -534 55 -1021 292 -1402 680 -114 117 -176 194 -268 334 -177 270 -283
537 -341 860 -41 227 -40 568 2 783 9 42 18 88 20 102 28 151 156 484 237 615
98 161 198 302 257 366 120 129 223 229 294 284 21 17 44 35 50 41 26 24 247
165 316 201 255 133 556 225 825 250 33 3 61 7 63 8 10 8 328 0 422 -11z"/>
<path d="M1653 3357 c-52 -19 -120 -73 -156 -123 -19 -26 -79 -124 -133 -217
-55 -93 -109 -185 -121 -205 -12 -21 -31 -53 -41 -72 -10 -19 -88 -152 -172
-295 -175 -297 -201 -352 -206 -445 -4 -77 17 -131 68 -180 91 -87 105 -89
801 -84 325 2 619 6 652 9 131 10 227 61 269 140 27 51 28 58 28 126 0 69 -36
163 -104 272 -26 43 -48 81 -48 83 0 2 -17 33 -39 67 -21 34 -127 212 -235
395 -240 407 -234 397 -285 450 -78 80 -189 111 -278 79z m122 -173 c42 -20
75 -66 215 -309 10 -16 82 -138 160 -270 78 -132 152 -256 162 -275 11 -19 43
-73 71 -120 104 -172 114 -236 45 -272 -49 -26 -100 -28 -764 -31 -577 -4
-629 -1 -659 39 -27 34 -9 99 62 224 57 99 285 489 496 850 67 114 125 180
158 180 12 0 36 -7 54 -16z"/>
<path d="M2780 3358 c-129 -13 -223 -68 -267 -157 -24 -49 -22 -159 5 -226 16
-41 234 -423 262 -460 4 -5 19 -30 32 -55 14 -25 66 -115 117 -200 50 -85 96
-162 101 -170 138 -235 183 -290 269 -332 34 -17 62 -23 106 -22 146 4 205 65
424 445 90 156 174 300 186 319 71 112 259 446 276 491 41 107 27 216 -34 282
-30 32 -92 70 -141 85 -27 9 -1250 9 -1336 0z m1326 -180 c38 -21 47 -50 33
-104 -15 -54 -605 -1066 -654 -1121 -38 -41 -56 -49 -106 -44 -33 3 -86 74
-223 305 -261 440 -443 750 -465 793 -40 80 -33 135 22 165 34 18 193 23 802
23 510 0 563 -2 591 -17z"/>
</g>
</svg>
