<?xml version="1.0" encoding="utf-8"?>
<!-- Generator: Adobe Illustrator 18.0.0, SVG Export Plug-In . SVG Version: 6.00 Build 0)  -->
<!DOCTYPE svg PUBLIC "-//W3C//DTD SVG 1.1//EN" "http://www.w3.org/Graphics/SVG/1.1/DTD/svg11.dtd">
<svg version="1.1"
	 id="Livello_1" xmlns:inkscape="http://www.inkscape.org/namespaces/inkscape" xmlns:sodipodi="http://sodipodi.sourceforge.net/DTD/sodipodi-0.dtd" xmlns:cc="http://creativecommons.org/ns#" xmlns:dc="http://purl.org/dc/elements/1.1/" xmlns:svg="http://www.w3.org/2000/svg" xmlns:rdf="http://www.w3.org/1999/02/22-rdf-syntax-ns#"
	 xmlns="http://www.w3.org/2000/svg" xmlns:xlink="http://www.w3.org/1999/xlink" x="0px" y="0px" viewBox="944 384 32 32"
	 enable-background="new 944 384 32 32" xml:space="preserve">
<g transform="translate(0,-952.36218)">
	<g transform="translate(-1042,1553)">
		<path fill="#FFFFFF" d="M2000-209.8c-1.3,0-2.3,1-2.3,2.3v10.3l-0.7-1.4c-0.4-0.8-1-1.5-1.8-1.7c-0.6-0.2-1.2,0-1.6,0.3
			c-0.6,0.3-0.9,0.8-1.1,1.3c-0.2,0.7,0,1.3,0.3,2.1c1.5,3.7,3.8,8,6.3,10.9c0.1,0.1,0.2,0.1,0.2,0.1h8.8c0.1,0,0.1,0,0.2-0.1
			c0.9-0.6,1.6-1.8,2.2-3.2c0.6-1.4,1.1-3,1.3-4.6c0.2-1.6,0.3-3.1-0.1-4.3c-0.3-1.2-1.1-2.1-2.3-2.3c-0.4,0-0.8,0-1.1,0.2
			c-0.1-0.5-0.3-0.9-0.7-1.1c-0.4-0.3-0.9-0.4-1.2-0.4c-0.5,0-0.8,0.2-1.1,0.6c-0.1-0.4-0.3-0.7-0.6-0.8c-0.4-0.3-0.9-0.4-1.2-0.4
			c-0.5,0-0.9,0.2-1.3,0.5v-6C2002.3-209,2001.1-209.8,2000-209.8z M2000-209.1c0.9,0,1.6,0.7,1.6,1.6v6.8c0,0.1,0.1,0.3,0.3,0.3
			c0.1,0,0.3,0,0.4-0.2c0.2-0.4,0.8-0.8,1.3-0.8c0.2,0,0.6,0.1,0.8,0.3c0.3,0.2,0.5,0.5,0.5,1c0,0.1,0.1,0.3,0.3,0.3
			c0.1,0,0.3,0,0.4-0.2c0.3-0.6,0.6-0.8,1-0.8c0.2,0,0.5,0.1,0.8,0.3c0.3,0.2,0.5,0.5,0.5,1c0,0.3,0.4,0.4,0.6,0.2
			c0.1-0.1,0.2-0.1,0.4-0.2c0.2,0,0.5-0.1,0.6-0.1c0.9,0.1,1.4,0.7,1.7,1.8c0.3,1.1,0.3,2.5,0.1,4c-0.2,1.5-0.7,3.1-1.3,4.4
			c-0.6,1.3-1.3,2.3-2,2.8h-8.5c-2.4-2.7-4.6-7-6.1-10.6c-0.3-0.8-0.4-1.3-0.3-1.7c0.2-0.5,0.5-0.7,0.8-0.9c0.4-0.2,0.7-0.3,1.1-0.2
			c0.8,0.4,1,0.8,1.4,1.4l1.3,2.6c0.1,0.1,0.2,0.2,0.4,0.2c0.1,0,0.3-0.2,0.3-0.3v-11.7C1998.4-208.4,1999.1-209.1,2000-209.1z"/>
		<path fill="#FFFFFF" d="M1994.9-215.5l-2.9,2.9c0,0-0.1,0.1-0.1,0.2c0,0.1,0,0.2,0.1,0.2l2.9,2.9c0.1,0.1,0.3,0.1,0.5,0
			c0.1-0.1,0.1-0.3,0-0.5l-2.4-2.4c4.7,0,9.4,0,14.1,0l-2.4,2.4c-0.1,0.1-0.1,0.3,0,0.5c0.1,0.1,0.3,0.1,0.5,0l2.9-2.9
			c0.1-0.1,0.1-0.1,0.1-0.2c0-0.1,0-0.2-0.1-0.2l-2.9-2.9c-0.1-0.1-0.3-0.1-0.5,0c-0.1,0.1-0.1,0.3,0,0.5l2.4,2.4
			c-4.7,0-9.4,0-14.1,0l2.4-2.4c0.1-0.1,0.1-0.3,0-0.5C1995.2-215.7,1995-215.6,1994.9-215.5z"/>
	</g>
</g>
</svg>
